<svg xmlns="http://www.w3.org/2000/svg" viewBox="0 0 640 640">
    <path d="M220.1 153.3L207.5 138.8C186.5 114.6 155.2 101.9 123.3 104.7C68.4 109.5 27.7 157.9 32.5 212.9C39.8 295.9 122.5 364.8 190.9 410.5C180.4 382.1 174.7 351.3 177.5 319.3C184.6 238 256.3 177.8 337.7 184.9C365.7 187.3 392 197.7 413.8 214.1C415.5 202.6 416 191 415 179.4C410.2 124.5 361.8 83.8 306.8 88.6C274.9 91.4 246.2 109.3 229.8 136.8L220 153.3zM420.4 297.3L410.5 280.8C394.1 253.3 365.4 235.4 333.5 232.6C278.6 227.8 230.1 268.4 225.3 323.4C217.3 414.8 302.5 505.3 364.7 562C373.3 569.9 384.4 574.3 396 575.3C407.6 576.3 419.3 573.8 429.1 567.6C500.2 522.5 599.8 448.2 607.8 356.8C612.6 301.9 572 253.4 517 248.6C485.1 245.8 453.8 258.5 432.8 282.7L420.2 297.2z"/>
</svg>