<svg aria-hidden="true" focusable="false" data-prefix="far" data-icon="trophy-alt" class="svg-inline--fa fa-trophy-alt fa-w-18" role="img" xmlns="http://www.w3.org/2000/svg" viewBox="0 0 576 512"><path fill="currentColor" d="M359.3 138.9l-43.4-6.3-19.4-39.3c-3.5-7-13.5-7.1-17 0l-19.4 39.3-43.4 6.3c-7.8 1.1-10.9 10.7-5.3 16.2l31.4 30.6-7.4 43.2c-1.3 7.7 6.8 13.7 13.8 10l38.8-20.4 38.8 20.4c6.9 3.6 15.1-2.2 13.8-10l-7.4-43.2 31.4-30.6c5.6-5.5 2.5-15.1-5.3-16.2zM448 64V16c0-8.8-7.2-16-16-16H144c-8.8 0-16 7.2-16 16v48H16C7.2 64 0 71.2 0 80v60.8C0 201.1 68.3 266 159.6 283.4c27.4 57.9 68.1 88.2 104.4 97.4V464h-64c-22.1 0-40 17.9-40 40 0 4.4 3.6 8 8 8h240c4.4 0 8-3.6 8-8 0-22.1-17.9-40-40-40h-64v-83.2c36.3-9.3 77-39.5 104.4-97.4C507.5 266.1 576 201.2 576 140.8V80c0-8.8-7.2-16-16-16H448zM48 140.8V112h80c0 39.2 2.1 76.2 12.3 116.8-55.1-18.9-92.3-58.9-92.3-88zM288 336c-53 0-112-78.4-112-216V48h224v72c0 140.5-60.8 216-112 216zm240-195.2c0 29.1-37.2 69.1-92.3 88C445.9 188.2 448 151.1 448 112h80v28.8z"></path></svg>