<svg aria-hidden="true" focusable="false" data-prefix="far" data-icon="projector" class="svg-inline--fa fa-projector fa-w-20" role="img" xmlns="http://www.w3.org/2000/svg" viewBox="0 0 640 512"><path fill="currentColor" d="M307.72 133.65a16 16 0 0 0 22.63 0l11.31-11.31a16 16 0 0 0 0-22.62l-67.88-67.89a16 16 0 0 0-22.63 0l-11.31 11.31a16 16 0 0 0 0 22.63zM408 128h16a16 16 0 0 0 16-16V16a16 16 0 0 0-16-16h-16a16 16 0 0 0-16 16v96a16 16 0 0 0 16 16zm93.65 5.65a16 16 0 0 0 22.63 0l67.88-67.88a16 16 0 0 0 0-22.63l-11.31-11.31a16 16 0 0 0-22.63 0l-67.88 67.89a16 16 0 0 0 0 22.62zM112 296a24 24 0 1 0 24 24 24 24 0 0 0-24-24zm480-104H480.58c-19.51-9.89-41.25-16-64.58-16s-45.07 6.11-64.58 16H48a48 48 0 0 0-48 48v160a48 48 0 0 0 48 48h16l13 51.88A16 16 0 0 0 92.49 512h23A16 16 0 0 0 131 499.88L144 448h207.42c19.51 9.89 41.25 16 64.58 16s45.07-6.11 64.58-16H496l13 51.88A16 16 0 0 0 524.49 512h23A16 16 0 0 0 563 499.88L576 448h16a48 48 0 0 0 48-48V240a48 48 0 0 0-48-48zM296.38 400H48V240h248.38a143.45 143.45 0 0 0 0 160zM416 416a96 96 0 1 1 96-96 96.14 96.14 0 0 1-96 96zm176-16h-56.38a143.45 143.45 0 0 0 0-160H592zM176 296a24 24 0 1 0 24 24 24 24 0 0 0-24-24z"></path></svg>