<svg aria-hidden="true" focusable="false" data-prefix="far" data-icon="debug" class="svg-inline--fa fa-debug fa-w-16" role="img" xmlns="http://www.w3.org/2000/svg" viewBox="0 0 512 512"><path fill="currentColor" d="M117.75 271a16 16 0 1 0 4.5 31.68l42.75-6.09a90.21 90.21 0 0 0 10.81 39l-35.51 23.69a16 16 0 1 0 17.7 26.61l37.64-25.1a87.82 87.82 0 0 0 83.24 19.94L162.77 264.58zM256 8C119 8 8 119 8 256s111 248 248 248 248-111 248-248S393 8 256 8zm0 448c-110.28 0-200-89.72-200-200a198.86 198.86 0 0 1 42.81-123.25l280.44 280.44A198.86 198.86 0 0 1 256 456zm157.19-76.75L345 311.08a89.64 89.64 0 0 0 2-14.49l42.73 6.11a16 16 0 1 0 4.5-31.68l-46.82-6.69v-24.65l46.82-6.7a16 16 0 1 0-4.5-31.68l-43.52 6.22a90.15 90.15 0 0 0-10-31.1l35.51-23.69A16 16 0 1 0 354 126.11l-37.64 25.1a90.27 90.27 0 0 0-126.08 5.1l-57.5-57.5A198.86 198.86 0 0 1 256 56c110.28 0 200 89.72 200 200a198.86 198.86 0 0 1-42.81 123.25z"></path></svg>