<svg aria-hidden="true" focusable="false" data-prefix="far" data-icon="laptop-code" class="svg-inline--fa fa-laptop-code fa-w-20" role="img" xmlns="http://www.w3.org/2000/svg" viewBox="0 0 640 512"><path fill="currentColor" d="M624 352h-48V64c0-35.2-28.8-64-64-64H128C92.8 0 64 28.8 64 64v288H16c-8.8 0-16 7.2-16 16v48c0 52.8 43.2 96 96 96h448c52.8 0 96-43.2 96-96v-48c0-8.8-7.2-16-16-16zM112 64c0-8.67 7.33-16 16-16h384c8.67 0 16 7.33 16 16v288H112V64zm480 352c0 26.47-21.53 48-48 48H96c-26.47 0-48-21.53-48-48v-16h180.9c5.57 9.39 15.38 16 27.1 16h128c11.72 0 21.52-6.61 27.1-16H592v16zM277.66 261.65l11.31-11.31c6.25-6.25 6.25-16.38 0-22.63L253.25 192l35.71-35.72c6.25-6.25 6.25-16.38 0-22.63l-11.31-11.31c-6.25-6.25-16.38-6.25-22.63 0l-58.34 58.34c-6.25 6.25-6.25 16.38 0 22.63l58.34 58.34c6.25 6.25 16.39 6.25 22.64 0zm73.38-11.3l11.31 11.31c6.25 6.25 16.38 6.25 22.63 0l58.34-58.34c6.25-6.25 6.25-16.38 0-22.63l-58.34-58.34c-6.25-6.25-16.38-6.25-22.63 0l-11.31 11.31c-6.25 6.25-6.25 16.38 0 22.63L386.75 192l-35.71 35.72c-6.25 6.25-6.25 16.38 0 22.63z"></path></svg>