<svg aria-hidden="true" focusable="false" data-prefix="far" data-icon="digital-tachograph" class="svg-inline--fa fa-digital-tachograph fa-w-20" role="img" xmlns="http://www.w3.org/2000/svg" viewBox="0 0 640 512"><path fill="currentColor" d="M608 96H32c-17.67 0-32 14.33-32 32v256c0 17.67 14.33 32 32 32h576c17.67 0 32-14.33 32-32V128c0-17.67-14.33-32-32-32zm-16 272H48V144h544v224zM96 240h192c8.84 0 16-7.16 16-16v-32c0-8.84-7.16-16-16-16H96c-8.84 0-16 7.16-16 16v32c0 8.84 7.16 16 16 16zm-8 104h208c4.42 0 8-3.58 8-8v-8c0-4.42-3.58-8-8-8H88c-4.42 0-8 3.58-8 8v8c0 4.42 3.58 8 8 8zm256 0h208c4.42 0 8-3.58 8-8v-8c0-4.42-3.58-8-8-8H344c-4.42 0-8 3.58-8 8v8c0 4.42 3.58 8 8 8zM96 264c-4.42 0-8 3.58-8 8v16c0 4.42 3.58 8 8 8h16c4.42 0 8-3.58 8-8v-16c0-4.42-3.58-8-8-8H96zm58.67 0c-4.42 0-8 3.58-8 8v16c0 4.42 3.58 8 8 8h16c4.42 0 8-3.58 8-8v-16c0-4.42-3.58-8-8-8h-16zm58.66 0c-4.42 0-8 3.58-8 8v16c0 4.42 3.58 8 8 8h16c4.42 0 8-3.58 8-8v-16c0-4.42-3.58-8-8-8h-16zm58.67 0c-4.42 0-8 3.58-8 8v16c0 4.42 3.58 8 8 8h16c4.42 0 8-3.58 8-8v-16c0-4.42-3.58-8-8-8h-16z"></path></svg>