<svg aria-hidden="true" focusable="false" data-prefix="far" data-icon="cloud-rainbow" class="svg-inline--fa fa-cloud-rainbow fa-w-18" role="img" xmlns="http://www.w3.org/2000/svg" viewBox="0 0 576 512"><path fill="currentColor" d="M560.6 48c8.6-.4 15.4-7.1 15.4-15.7V16.2c0-9-7.6-16.6-16.6-16.2-140.2 6-260.9 87.3-323.5 204.2C220 196.4 202.4 192 184 192c-64 0-116.4 50.3-119.8 113.4C25.6 322.4 0 360.5 0 404c0 59.5 48.4 108 108 108h296c59.6 0 108-48.5 108-108 0-38.5-20.4-71.9-50.8-91.1 23.7-30.7 59.1-52 99.7-56.2 8.4-.9 15.1-7.4 15.1-15.9v-16.1c0-9.2-7.7-16.9-16.8-16.1-61 5.3-113.8 39.2-145.5 87.9-1-.1-1.9-.4-3-.5-5.6-17.8-16-33.1-29.3-45.2 41.2-56 105.7-93.9 179.3-98.5 8.5-.5 15.3-7.2 15.3-15.8v-16c0-9.1-7.6-16.7-16.7-16.2-91.1 5.2-170.7 53-220.1 123.4-8.7-2.4-17.8-3.9-27.2-3.9-12 0-23.8 2.4-35 6.5C331.2 126.5 436.9 53.6 560.6 48zM312 272c28.6 0 52.4 21.7 55.3 50.4l2.2 21.6H404c33.1 0 60 26.9 60 60s-26.9 60-60 60H108c-33.1 0-60-26.9-60-60 0-28 19.1-52 46.4-58.3l20.8-4.8-2.8-24.9c-.2-1.3-.4-2.6-.4-4 0-39.7 32.3-72 72-72 25.2 0 48.2 13.1 61.4 35.1l13.3 22.1 21.1-14.9c9.6-6.7 20.7-10.3 32.2-10.3z"></path></svg>