<svg xmlns="http://www.w3.org/2000/svg" viewBox="0 0 640 640" fill="currentColor"><!--!Font Awesome Pro v7.2.0 by @fontawesome - https://fontawesome.com License - https://fontawesome.com/license (Commercial License) Copyright 2026 Fonticons, Inc.--><path opacity=".4" d="M320 144C320 148.7 323.1 152.9 327.7 154.2L376 168L389.8 216.3C391.1 220.9 395.3 224 400 224C404.7 224 408.9 220.9 410.2 216.3L424 168L472.3 154.2C476.9 152.9 480 148.7 480 144C480 139.3 476.9 135.1 472.3 133.8L424 120L410.2 71.7C408.9 67.1 404.8 64 400 64C395.2 64 391.1 67.1 389.8 71.7L376 120L327.7 133.8C323.1 135.1 320 139.3 320 144zM448 288C448 291.8 450.5 295.1 454.2 296.2L492.8 307.2L503.8 345.8C504.8 349.4 508.2 352 512 352C515.8 352 519.1 349.5 520.2 345.8L531.2 307.2L569.8 296.2C573.4 295.2 576 291.8 576 288C576 284.2 573.5 280.9 569.8 279.8L531.2 268.8L520.2 230.2C519.2 226.6 515.8 224 512 224C508.2 224 504.9 226.5 503.8 230.2L492.8 268.8L454.2 279.8C450.6 280.8 448 284.2 448 288z"/><path d="M277.5 221.4C268.7 203.5 243.2 203.5 234.4 221.4L188.1 315.4L84.6 330.5C64.9 333.3 57 357.5 71.3 371.4L146.2 444.6L128.5 547.9C125.1 567.5 145.7 582.5 163.3 573.2L255.9 524.4L348.5 573.2C366.1 582.5 386.7 567.5 383.3 547.9L365.6 444.6L440.5 371.4C454.7 357.5 446.9 333.3 427.2 330.5L323.7 315.4L277.4 221.4z"/></svg>