<svg viewBox="1 -93 511.99998 511" xmlns="http://www.w3.org/2000/svg"><path d="m264.871094 324.554688c-79.640625 0-161.992188 0-166.003906-.015626l-.386719-.007812c-55.222657-1.667969-98.480469-46.257812-98.480469-101.515625 0-42.757813 26.851562-80.964844 66.960938-95.5.097656-35.316406 28.867187-64.019531 64.214843-64.019531 15.3125 0 29.980469 5.417968 41.585938 15.308594 21.171875-47.652344 68.210937-78.304688 120.539062-78.304688 72.714844 0 131.871094 59.15625 131.871094 131.867188 0 1.277343-.027344 2.613281-.082031 4.195312 48.882812 3.722656 86.910156 44.617188 86.910156 93.882812 0 50.941407-39.867188 92.269532-90.761719 94.082032l-.664062.011718c-2.066407.007813-62.222657.015626-155.703125.015626zm-165.675782-30.039063c5.996094.019531 90.769532.019531 165.675782.019531 89.40625 0 152.015625-.011718 155.539062-.019531 34.546875-1.355469 61.566406-29.453125 61.566406-64.070313 0-33.964843-26.527343-62.085937-60.398437-64.027343-15.316406-.878907-27.226563-14.054688-26.554687-29.371094.085937-1.960937.125-3.402344.125-4.679687 0-56.15625-45.6875-101.84375-101.847657-101.84375-41.070312 0-77.925781 24.449218-93.886719 62.289062-3.574218 8.445312-11.046874 14.640625-19.992187 16.589844-8.972656 1.941406-18.347656-.609375-25.089844-6.820313-6.335937-5.847656-14.554687-9.0625-23.15625-9.0625-18.742187 0-34.007812 15.152344-34.191406 33.84375.011719.371094.023437.753907.023437 1.128907.136719 12.121093-7.453124 22.933593-18.914062 26.929687-28.757812 9.996094-48.070312 37.160156-48.070312 67.59375 0 38.859375 30.367187 70.226563 69.171874 71.5zm0 0"/></svg>