<svg viewBox="0 0 512.00003 512.00003" xmlns="http://www.w3.org/2000/svg"><path d="m511.996094 256.402344c0-.136719.003906-.269532.003906-.402344 0-68.378906-26.628906-132.667969-74.980469-181.019531-48.351562-48.351563-112.640625-74.980469-181.019531-74.980469s-132.667969 26.628906-181.019531 74.980469c-48.351563 48.351562-74.980469 112.640625-74.980469 181.019531 0 .132812.00390625.265625.00390625.402344 0 .03125-.00390625.0625-.00390625.097656 0 .054688.0078125.105469.0078125.160156.1718755 68.132813 26.7773435 132.164063 74.9726565 180.359375 48.351562 48.351563 112.640625 74.980469 181.019531 74.980469 6.84375 0 13.644531-.277344 20.394531-.808594.058594-.003906.113281-.007812.171875-.015625 60.625-4.785156 116.980469-30.683593 160.453125-74.15625 48.195313-48.195312 74.800781-112.226562 74.972657-180.359375 0-.054687.007812-.105468.007812-.160156 0-.03125-.003906-.066406-.003906-.097656zm-49.039063 90.714844h-86.675781c8.542969-28.851563 12.246094-54.488282 13.429688-75.621094h91.765624c-1.773437 26.390625-8.066406 51.898437-18.519531 75.621094zm-413.894531-182.277344h86.433594c-8.667969 29.355468-12.265625 55.371094-13.308594 76.664062h-91.726562c1.683593-26.761718 8.007812-52.632812 18.601562-76.664062zm221.933594-29.992188v-101.425781c12.914062 15.007813 41.65625 51.519531 63.046875 101.425781zm74.328125 29.992188c7.636719 23.570312 13.074219 49.34375 14.484375 76.664062h-88.8125v-76.664062zm-104.320313-29.992188h-62.777344c6.847657-15.9375 14.261719-30.117187 21.246094-42.09375 16.222656-27.8125 32.617188-48.320312 41.53125-58.683594zm0 29.992188v76.664062h-88.792968c1.460937-27.511718 7.089843-53.375 14.6875-76.664062zm-210.480468 106.65625h91.761718c1.46875 26.921875 6.503906 52.359375 13.445313 75.621094h-86.6875c-10.453125-23.722657-16.746094-49.230469-18.519531-75.621094zm121.792968 0h88.6875v75.621094h-73.890625c-7.65625-23.3125-13.183593-48.738282-14.796875-75.621094zm88.6875 105.609375v100.789062c-12.863281-15.117187-41.183594-51.46875-62.488281-100.789062zm29.992188 0h62.558594c-6.777344 15.816406-14.097657 29.90625-21 41.839843-16.242188 28.085938-32.660157 48.832032-41.558594 59.292969zm0-29.988281v-75.621094h88.671875c-1.648438 27.09375-7.273438 52.605468-14.792969 75.621094zm118.84375-105.613282c-1.167969-25.46875-5.53125-51.070312-13.074219-76.664062h86.171875c10.59375 24.03125 16.917969 49.902344 18.601562 76.664062zm57.042968-106.65625h-80.417968c-6.566406-16.769531-14.480469-33.511718-23.75-50.183594-10.558594-18.988281-21.308594-35.039062-30.625-47.6875 38.910156 9.890626 74.59375 30.082032 103.722656 59.210938 11.875 11.871094 22.257812 24.835938 31.070312 38.660156zm-350.695312-38.660156c29.269531-29.269531 65.15625-49.519531 104.28125-59.359375-8.050781 10.867187-17.238281 24.320313-26.445312 40.035156-11.796876 20.132813-21.027344 39.550781-28.242188 57.984375h-80.664062c8.8125-13.824218 19.195312-26.789062 31.070312-38.660156zm-31.097656 280.917969h81c8.707031 22.179687 18.652344 41.632812 27.914062 57.53125 9.289063 15.941406 18.550782 29.589843 26.652344 40.585937-39.199219-9.824218-75.152344-30.09375-104.46875-59.410156-11.886719-11.886719-22.28125-24.863281-31.097656-38.707031zm350.722656 38.707031c-29.246094 29.25-65.101562 49.488281-104.195312 59.339844 8.050781-10.976563 17.242187-24.5625 26.453124-40.421875 11.625-20.011719 20.753907-39.304688 27.910157-57.621094h80.929687c-8.816406 13.839844-19.210937 26.816406-31.097656 38.703125zm0 0"/></svg>