<svg viewBox="0 0 511 511.99926" xmlns="http://www.w3.org/2000/svg"><path d="m374.328125 512c-11.425781 0-22.9375-4.878906-32.675781-14.210938-4.636719-4.441406-7.632813-11.46875-7.632813-17.894531v-65.6875h-155.113281v57.429688c0 16.183593-9.621094 30.746093-24.507812 37.097656-16.070313 6.859375-34.203126 2.765625-48.511719-10.945313-4.636719-4.441406-7.632813-11.46875-7.632813-17.894531v-65.6875h-57.390625c-16.1875 0-30.746093-9.621093-37.101562-24.507812-6.855469-16.066407-2.765625-34.203125 10.949219-48.507813 4.4375-4.636718 11.464843-7.632812 17.894531-7.632812h65.648437v-155.117188h-57.390625c-16.1875 0-30.746093-9.617187-37.101562-24.503906-6.855469-16.070312-2.765625-34.207031 10.949219-48.511719 4.4375-4.636719 11.464843-7.632812 17.894531-7.632812h65.648437v-57.429688c0-16.183593 9.617188-30.75 24.507813-37.101562 16.070312-6.855469 34.203125-2.761719 48.507812 10.949219 4.640625 4.441406 7.636719 11.46875 7.636719 17.894531v65.6875h155.113281v-57.429688c0-16.183593 9.621094-30.75 24.507813-37.101562 16.066406-6.855469 34.203125-2.761719 48.507812 10.949219 4.636719 4.4375 7.632813 11.464843 7.632813 17.894531v65.6875h57.46875c16.183593 0 30.746093 9.621093 37.097656 24.507812 6.859375 16.066407 2.765625 34.203125-10.945313 48.507813-4.445312 4.636718-11.46875 7.632812-17.898437 7.632812h-65.722656v155.117188h65.722656c6.429687 0 13.453125 2.996094 17.898437 7.632812 13.710938 14.304688 17.804688 32.441406 10.945313 48.511719-6.351563 14.886719-20.914063 24.503906-37.097656 24.503906h-57.46875v57.429688c0 16.183593-9.617188 30.746093-24.503907 37.097656-5.132812 2.191406-10.476562 3.265625-15.835937 3.265625zm-10.300781-34.433594c4.988281 4.144532 10.03125 5.414063 14.359375 3.570313 3.8125-1.625 6.273437-5.355469 6.273437-9.5v-69.839844c0-9.703125 7.894532-17.597656 17.601563-17.597656h69.875c4.144531 0 7.871093-2.464844 9.496093-6.277344 1.847657-4.324219.578126-9.367187-3.566406-14.355469h-75.804687c-9.707031 0-17.601563-7.894531-17.601563-17.597656v-179.9375c0-9.703125 7.894532-17.597656 17.601563-17.597656h75.804687c4.144532-4.988282 5.414063-10.03125 3.566406-14.359375-1.625-3.808594-5.355468-6.273438-9.496093-6.273438h-69.875c-9.707031 0-17.601563-7.894531-17.601563-17.601562v-75.765625c-4.988281-4.144532-10.03125-5.414063-14.355468-3.570313-3.8125 1.628907-6.277344 5.355469-6.277344 9.5v69.839844c0 9.703125-7.894532 17.597656-17.597656 17.597656h-179.9375c-9.703126 0-17.597657-7.894531-17.597657-17.597656v-75.769531c-4.988281-4.144532-10.035156-5.414063-14.359375-3.570313-3.8125 1.628907-6.273437 5.355469-6.273437 9.5v69.839844c0 9.703125-7.894531 17.597656-17.597657 17.597656h-75.730468c-4.148438 4.992188-5.417969 10.03125-3.570313 14.359375 1.628907 3.808594 5.355469 6.273438 9.5 6.273438h69.800781c9.703126 0 17.597657 7.894531 17.597657 17.601562v179.933594c0 9.703125-7.894531 17.597656-17.597657 17.597656h-75.730468c-4.148438 4.992188-5.417969 10.035156-3.570313 14.359375 1.628907 3.8125 5.355469 6.277344 9.5 6.277344h69.800781c9.703126 0 17.597657 7.894531 17.597657 17.597656v75.765625c4.992187 4.148438 10.03125 5.414063 14.359375 3.570313 3.8125-1.625 6.273437-5.355469 6.273437-9.5v-69.835938c0-9.703125 7.898438-17.597656 17.601563-17.597656h179.933594c9.703124 0 17.597656 7.894531 17.597656 17.597656zm-17.597656-114h-179.9375c-9.703126 0-17.597657-7.894531-17.597657-17.597656v-179.9375c0-9.703125 7.894531-17.597656 17.597657-17.597656h179.9375c9.703124 0 17.597656 7.894531 17.597656 17.597656v179.9375c0 9.703125-7.894532 17.597656-17.597656 17.597656zm-167.523438-30.007812h155.113281v-155.117188h-155.113281zm0 0"/></svg>