<svg viewBox="0 -10 512.0002 512" xmlns="http://www.w3.org/2000/svg"><path d="m387.53125 491.144531c-8.816406 0-17.632812-2.792969-25.324219-8.382812l-98.507812-71.570313c-4.605469-3.34375-10.792969-3.34375-15.398438 0l-98.507812 71.570313c-15.386719 11.179687-35.265625 11.179687-50.652344 0-15.382813-11.179688-21.527344-30.085938-15.652344-48.175781l37.625-115.800782c1.761719-5.414062-.152343-11.296875-4.757812-14.644531l-98.503907-71.566406c-15.386718-11.179688-21.53125-30.089844-15.65625-48.175781 5.878907-18.085938 21.964844-29.773438 40.980469-29.773438h121.761719c5.691406 0 10.699219-3.636719 12.457031-9.050781l37.625-115.800781c5.878907-18.085938 21.964844-29.773438 40.980469-29.773438s35.101562 11.6875 40.980469 29.773438l37.625 115.800781c1.757812 5.414062 6.765625 9.050781 12.457031 9.050781h121.761719c19.015625 0 35.101562 11.6875 40.980469 29.773438 5.875 18.085937-.269532 36.996093-15.65625 48.175781l-98.503907 71.566406c-4.605469 3.347656-6.519531 9.230469-4.757812 14.644531l37.625 115.800782c5.875 18.089843-.269531 36.996093-15.652344 48.175781-7.691406 5.589843-16.511719 8.382812-25.328125 8.382812zm-131.53125-112.46875c8.875 0 17.753906 2.753907 25.328125 8.257813l98.503906 71.566406c7.148438 5.191406 13.59375 1.3125 15.398438 0 1.808593-1.3125 7.488281-6.246094 4.757812-14.644531l-37.625-115.800781c-5.785156-17.808594.503907-37.167969 15.652344-48.171876l98.507813-71.570312c7.144531-5.191406 5.445312-12.523438 4.757812-14.644531-.691406-2.125-3.628906-9.050781-12.457031-9.050781h-121.761719c-18.722656 0-35.191406-11.964844-40.976562-29.773438l-37.628907-115.804688c-2.726562-8.394531-10.222656-9.050781-12.457031-9.050781s-9.730469.65625-12.457031 9.050781l-37.628907 115.804688c-5.785156 17.808594-22.253906 29.773438-40.976562 29.773438h-121.761719c-8.828125 0-11.765625 6.925781-12.457031 9.050781-.691406 2.121093-2.386719 9.453125 4.757812 14.644531l98.507813 71.566406c15.148437 11.007813 21.4375 30.367188 15.652344 48.175782l-37.628907 115.800781c-2.726562 8.398437 2.953126 13.332031 4.761719 14.644531 1.804688 1.3125 8.253907 5.191406 15.398438 0l98.503906-71.566406c7.574219-5.503906 16.449219-8.257813 25.328125-8.257813zm0 0"/></svg>