<svg viewBox="0 -60 511.99996 511" xmlns="http://www.w3.org/2000/svg"><path d="m507.773438 7.292969c-5.015626-6.109375-13.332032-8.375-20.726563-5.65625l-469.65625 169.722656c-9.382813 3.410156-15.96875 11.679687-17.191406 21.582031-1.210938 9.855469 3.132812 19.417969 11.28125 24.921875l67.132812 45.828125c6.503907 4.441406 14.867188 4.917969 21.832031 1.242188l145.625-76.792969-113.496093 84.746094c-5.328125 3.980469-8.511719 10.328125-8.511719 16.976562v78.5c0 8.097657 4.441406 15.515625 11.589844 19.367188 7.160156 3.851562 15.808594 3.46875 22.609375-1.015625l51.003906-33.832032 50.15625 34.199219c4.394531 3.011719 9.628906 4.597657 14.910156 4.597657 1.785157 0 3.578125-.183594 5.34375-.550782 7.042969-1.46875 13.273438-5.820312 17.097657-11.9375l212.488281-350.382812c4.136719-6.746094 3.542969-15.378906-1.488281-21.515625zm-234.5625 352.863281-51.941407-35.417969c-3.613281-2.46875-7.777343-3.703125-11.9375-3.703125-4.070312 0-8.144531 1.183594-11.710937 3.550782l-43.542969 28.882812v-59.175781l200.410156-149.644531c8.949219-6.683594 11.203125-18.847657 5.238281-28.292969-5.96875-9.445313-17.917968-12.636719-27.796874-7.425781l-240.78125 126.972656-56.78125-38.761719 432.488281-156.289063zm0 0"/></svg>