<svg viewBox="0 0 511 511.9982" xmlns="http://www.w3.org/2000/svg"><path d="m512.441406 245.640625c-1.527344-66.980469-29.011718-129.398437-77.378906-175.753906-48.300781-46.285157-111.730469-71.078125-178.589844-69.839844-66.882812-1.253906-130.289062 23.554687-178.585937 69.839844-48.371094 46.355469-75.851563 108.773437-77.382813 175.75l-.003906.210937v.210938c.351562 68.257812 29.578125 133.15625 80.320312 178.640625v61.886719c0 12.011718 8.386719 22.472656 19.9375 24.878906 1.710938.355468 3.433594.535156 5.148438.535156 4.648438 0 9.21875-1.300781 13.242188-3.8125l49.738281-31.074219c28.050781 9.824219 57.320312 14.800781 87.078125 14.800781h.375c1.648437.03125 3.277344.046876 4.921875.046876 65.105469-.003907 126.65625-24.710938 173.800781-69.886719 48.367188-46.355469 75.851562-108.773438 77.378906-175.75l.007813-.34375zm-98.15625 154.753906c-42.59375 40.820313-98.535156 62.660157-157.515625 61.496094l-.164062-.003906h-.164063c-27.675781.0625-54.914062-4.753907-80.917968-14.289063-6.429688-2.355468-13.433594-1.636718-19.21875 1.976563l-45.457032 28.394531v-56.925781c0-6.351563-2.761718-12.394531-7.578125-16.578125-45.863281-39.871094-72.367187-97.582032-72.738281-158.351563 1.398438-58.898437 25.585938-113.773437 68.132812-154.546875 42.589844-40.816406 98.546876-62.648437 157.511719-61.492187l.296875.003906.296875-.003906c58.96875-1.144531 114.921875 20.675781 157.515625 61.492187 42.507813 40.738282 66.695313 95.570313 68.128906 154.414063-1.433593 58.847656-25.621093 113.675781-68.128906 154.414062zm0 0"/><path d="m366.476562 174.273438h-220.007812c-8.289062 0-15.011719 6.71875-15.011719 15.011718 0 8.292969 6.722657 15.015625 15.011719 15.015625h220.007812c8.292969 0 15.015626-6.722656 15.015626-15.015625 0-8.292968-6.722657-15.011718-15.015626-15.011718zm0 0"/><path d="m366.476562 240.6875h-220.007812c-8.289062 0-15.011719 6.722656-15.011719 15.011719 0 8.292969 6.722657 15.015625 15.011719 15.015625h220.007812c8.292969 0 15.015626-6.722656 15.015626-15.015625 0-8.289063-6.722657-15.011719-15.015626-15.011719zm0 0"/><path d="m366.476562 307.101562h-108.171874c-8.289063 0-15.011719 6.722657-15.011719 15.015626 0 8.289062 6.722656 15.011718 15.011719 15.011718h108.171874c8.292969 0 15.015626-6.722656 15.015626-15.011718 0-8.292969-6.722657-15.015626-15.015626-15.015626zm0 0"/></svg>