<svg viewBox="0 0 512.001 512" xmlns="http://www.w3.org/2000/svg"><path d="m437.019531 74.980469c-48.351562-48.351563-112.640625-74.980469-181.019531-74.980469s-132.667969 26.628906-181.019531 74.980469c-48.351563 48.351562-74.980469 112.640625-74.980469 181.019531s26.628906 132.667969 74.980469 181.019531c48.351562 48.351563 112.640625 74.980469 181.019531 74.980469s132.667969-26.628906 181.019531-74.980469c48.351563-48.351562 74.980469-112.640625 74.980469-181.019531s-26.628906-132.667969-74.980469-181.019531zm-21.234375 340.804687c-42.679687 42.679688-99.425781 66.1875-159.785156 66.1875s-117.105469-23.503906-159.785156-66.1875c-42.679688-42.679687-66.1875-99.425781-66.1875-159.785156s23.507812-117.105469 66.1875-159.785156c42.679687-42.679688 99.425781-66.183594 159.785156-66.183594s117.105469 23.503906 159.785156 66.183594c42.679688 42.679687 66.1875 99.425781 66.1875 159.785156s-23.507812 117.105469-66.1875 159.785156zm0 0"/><path d="m199.710938 196.21875c0 8.292969 6.722656 15.015625 15.015624 15.015625 8.292969 0 15.011719-6.722656 15.011719-15.015625 0-33.632812-27.363281-60.996094-60.996093-60.996094-33.632813 0-60.996094 27.363282-60.996094 60.996094 0 8.292969 6.722656 15.015625 15.015625 15.015625s15.015625-6.722656 15.015625-15.015625c0-17.074219 13.890625-30.96875 30.964844-30.96875 17.078124 0 30.96875 13.894531 30.96875 30.96875zm0 0"/><path d="m347.949219 135.222656c-33.632813 0-60.996094 27.363282-60.996094 60.996094 0 8.292969 6.722656 15.015625 15.015625 15.015625 8.289062 0 15.011719-6.722656 15.011719-15.015625 0-17.074219 13.894531-30.96875 30.96875-30.96875 17.078125 0 30.96875 13.894531 30.96875 30.96875 0 8.292969 6.722656 15.015625 15.015625 15.015625 8.289062 0 15.011718-6.722656 15.011718-15.015625 0-33.632812-27.363281-60.996094-60.996093-60.996094zm0 0"/><path d="m347.226562 258.214844c-8.292968 0-15.015624 6.722656-15.015624 15.015625 0 40.539062-32.980469 73.519531-73.519532 73.519531-40.539062 0-73.519531-32.980469-73.519531-73.519531 0-8.292969-6.722656-15.015625-15.011719-15.015625-8.292968 0-15.015625 6.722656-15.015625 15.015625 0 57.097656 46.453125 103.546875 103.546875 103.546875 57.097656 0 103.550782-46.449219 103.550782-103.546875 0-8.292969-6.722657-15.015625-15.015626-15.015625zm0 0"/></svg>