<svg viewBox="-54 0 512 512.001" xmlns="http://www.w3.org/2000/svg"><path d="m398.914062 123.761719-118.601562-118.605469c-2.40625-2.40625-5.394531-4.019531-8.640625-4.730469-.058594-.015625-.117187-.035156-.175781-.046875-1.179688-.246094-2.390625-.378906-3.628906-.378906h-249.667969c-10.035157 0-18.199219 8.164062-18.199219 18.203125v475.597656c0 10.035157 8.164062 18.199219 18.203125 18.199219h367.660156c10.039063 0 18.203125-8.164062 18.203125-18.199219v-357.605469c0-4.699218-1.832031-9.117187-5.152344-12.433593zm-115.417968-72.949219 70.371094 70.371094h-70.371094zm-253.464844 431.160156v-451.941406h223.4375v106.164062c0 8.292969 6.722656 15.015626 15.015625 15.015626h105.550781v330.761718zm0 0"/><path d="m327.242188 235.761719h-191.800782c-8.292968 0-15.015625 6.722656-15.015625 15.015625 0 8.292968 6.722657 15.011718 15.015625 15.011718h191.800782c8.289062 0 15.011718-6.71875 15.011718-15.011718 0-8.292969-6.722656-15.015625-15.011718-15.015625zm0 0"/><path d="m327.242188 304.628906h-191.800782c-8.292968 0-15.015625 6.722656-15.015625 15.011719 0 8.292969 6.722657 15.015625 15.015625 15.015625h191.800782c8.289062 0 15.011718-6.722656 15.011718-15.015625 0-8.289063-6.722656-15.011719-15.011718-15.011719zm0 0"/><path d="m327.242188 373.492188h-191.800782c-8.292968 0-15.015625 6.722656-15.015625 15.015624 0 8.292969 6.722657 15.015626 15.015625 15.015626h191.800782c8.289062 0 15.011718-6.722657 15.011718-15.015626 0-8.292968-6.722656-15.015624-15.011718-15.015624zm0 0"/><path d="m91.546875 247.84375c-.101563-.480469-.222656-.960938-.359375-1.421875-.140625-.472656-.3125-.941406-.5-1.390625-.183594-.453125-.402344-.890625-.621094-1.324219-.230468-.4375-.492187-.859375-.761718-1.269531-.269532-.402344-.5625-.800781-.871094-1.179688-.308594-.382812-.652344-.753906-.992188-1.101562-.347656-.339844-.71875-.683594-1.101562-.992188-.378906-.308593-.769532-.601562-1.179688-.871093s-.832031-.519531-1.261718-.75c-.429688-.230469-.882813-.441407-1.332032-.628907-.449218-.191406-.921875-.351562-1.378906-.503906-.472656-.136718-.953125-.257812-1.433594-.359375-.480468-.089843-.96875-.167969-1.449218-.210937-.980469-.097656-1.972657-.097656-2.953126 0-.492187.042968-.980468.121094-1.464843.210937-.476563.101563-.960938.222657-1.417969.359375-.472656.152344-.933594.3125-1.382812.503906-.460938.1875-.898438.398438-1.332032.628907-.429687.230469-.859375.480469-1.261718.75-.410157.269531-.808594.5625-1.191407.871093-.378906.308594-.75.652344-1.089843.992188-.351563.347656-.679688.71875-1 1.101562-.300782.378907-.601563.777344-.871094 1.179688-.269532.410156-.519532.832031-.75 1.269531-.230469.433594-.441406.871094-.632813 1.324219-.1875.449219-.347656.917969-.5 1.390625-.140625.460937-.257812.941406-.359375 1.421875-.089844.480469-.167968.96875-.210937 1.460938-.050781.480468-.078125.980468-.078125 1.472656 0 .488281.027344.988281.078125 1.480468.042969.480469.121093.96875.210937 1.449219.101563.480469.222656.960938.359375 1.433594.152344.460937.3125.929687.5 1.378906.191407.453125.402344.902344.632813 1.332031.230468.429688.480468.851563.75 1.261719.269531.410157.570312.800781.871094 1.179688.320312.382812.648437.753906 1 1.101562.339843.339844.710937.683594 1.089843.992188.382813.308593.78125.601562 1.191407.871093.402343.269532.832031.53125 1.261718.75.433594.230469.871094.441407 1.332032.632813.449218.1875.910156.347656 1.382812.5.457031.140625.9375.257813 1.417969.359375.480469.089844.972656.167969 1.464843.21875.488282.050781.980469.070312 1.472657.070312.488281 0 .988281-.019531 1.480469-.070312.480468-.050781.96875-.128906 1.449218-.21875.480469-.101562.960938-.21875 1.433594-.359375.457031-.152344.929688-.3125 1.378906-.5.449219-.191406.902344-.402344 1.332032-.632813.429687-.21875.851562-.480468 1.261718-.75.410156-.269531.800782-.5625 1.179688-.871093.382812-.308594.753906-.652344 1.101562-.992188.339844-.347656.683594-.71875.992188-1.101562.308594-.378907.601562-.769531.871094-1.179688.269531-.410156.53125-.832031.761718-1.261719.21875-.429687.4375-.878906.621094-1.332031.1875-.449219.359375-.917969.5-1.378906.140625-.472656.257812-.953125.359375-1.433594s.171875-.96875.21875-1.449219c.050781-.492187.070313-.992187.070313-1.480468 0-.492188-.019532-.992188-.070313-1.472656-.050781-.492188-.121094-.980469-.21875-1.460938zm0 0"/><path d="m91.546875 316.707031c-.101563-.480469-.222656-.960937-.359375-1.417969-.140625-.472656-.3125-.941406-.5-1.394531-.183594-.449219-.402344-.890625-.621094-1.320312-.230468-.441407-.492187-.859375-.761718-1.269531-.269532-.402344-.5625-.800782-.871094-1.183594-.308594-.378906-.652344-.75-.992188-1.097656-.347656-.34375-.71875-.683594-1.101562-.992188-.378906-.3125-.769532-.601562-1.179688-.871094-.410156-.269531-.832031-.519531-1.261718-.75-.429688-.230468-.882813-.441406-1.332032-.632812-.449218-.1875-.921875-.347656-1.378906-.5-.472656-.140625-.953125-.257813-1.433594-.359375-.480468-.089844-.96875-.171875-1.449218-.21875-.980469-.101563-1.972657-.101563-2.953126 0-.492187.046875-.980468.128906-1.464843.21875-.476563.101562-.960938.21875-1.417969.359375-.472656.152344-.933594.3125-1.382812.5-.460938.191406-.898438.402344-1.332032.632812-.429687.230469-.859375.480469-1.261718.75-.410157.269532-.808594.558594-1.191407.871094-.378906.308594-.75.648438-1.089843.992188-.351563.347656-.679688.71875-1 1.097656-.300782.382812-.601563.78125-.871094 1.183594-.269532.410156-.519532.828124-.75 1.269531-.230469.429687-.441406.871093-.632813 1.320312-.1875.453125-.347656.921875-.5 1.394531-.140625.457032-.257812.9375-.359375 1.417969-.089844.480469-.167968.972657-.210937 1.464844-.050781.480469-.078125.980469-.078125 1.46875 0 .492187.027344.992187.078125 1.484375.042969.480469.121093.96875.210937 1.449219.101563.480469.222656.960937.359375 1.433593.152344.457032.3125.929688.5 1.378907.191407.449219.402344.890625.632813 1.320312.230468.441407.480468.863281.75 1.273438.269531.398437.570312.800781.871094 1.179687.320312.382813.648437.75 1 1.101563.339843.339843.710937.679687 1.089843.992187.382813.308594.78125.601563 1.191407.871094.402343.269531.832031.519531 1.261718.75.433594.230469.871094.441406 1.332032.628906.449218.191406.910156.351563 1.382812.5.457031.140625.9375.261719 1.417969.363282.480469.089843.972656.167968 1.464843.21875.488282.050781.980469.070312 1.472657.070312.488281 0 .988281-.019531 1.480469-.070312.480468-.050782.96875-.128907 1.449218-.21875.480469-.101563.960938-.222657 1.433594-.363282.457031-.148437.929688-.308594 1.378906-.5.449219-.1875.902344-.398437 1.332032-.628906.429687-.230469.851562-.480469 1.261718-.75s.800782-.5625 1.179688-.871094c.382812-.3125.753906-.652344 1.101562-.992187.339844-.351563.683594-.71875.992188-1.101563.308594-.378906.601562-.78125.871094-1.179687.269531-.410157.53125-.832031.761718-1.273438.21875-.429687.4375-.871093.621094-1.320312.1875-.449219.359375-.921875.5-1.378907.140625-.472656.257812-.953124.359375-1.433593s.171875-.96875.21875-1.449219c.050781-.492188.070313-.992188.070313-1.484375 0-.488281-.019532-.988281-.070313-1.46875-.050781-.492187-.121094-.984375-.21875-1.464844zm0 0"/><path d="m91.546875 385.574219c-.101563-.480469-.222656-.960938-.359375-1.429688-.140625-.460937-.3125-.929687-.5-1.382812-.183594-.449219-.402344-.898438-.621094-1.332031-.230468-.429688-.492187-.847657-.761718-1.257813-.269532-.414063-.5625-.800781-.871094-1.183594-.308594-.378906-.652344-.75-.992188-1.101562-.347656-.339844-.71875-.679688-1.101562-.988281-.378906-.3125-.769532-.601563-1.179688-.871094-.410156-.273438-.832031-.53125-1.261718-.761719-.429688-.21875-.882813-.441406-1.332032-.621094-.449218-.191406-.921875-.359375-1.378906-.5-.472656-.140625-.953125-.261719-1.433594-.359375-.480468-.089844-.96875-.171875-1.449218-.222656-.980469-.097656-1.972657-.097656-2.953126 0-.492187.050781-.980468.132812-1.464843.222656-.476563.097656-.960938.21875-1.417969.359375-.472656.140625-.933594.308594-1.382812.5-.460938.179688-.898438.402344-1.332032.621094-.429687.230469-.859375.488281-1.261718.761719-.410157.269531-.808594.558594-1.191407.871094-.378906.308593-.75.648437-1.089843.988281-.351563.351562-.679688.722656-1 1.101562-.300782.382813-.601563.769531-.871094 1.183594-.269532.410156-.519532.828125-.75 1.257813-.230469.433593-.441406.882812-.632813 1.332031-.1875.453125-.347656.921875-.5 1.382812-.140625.46875-.257812.949219-.359375 1.429688-.089844.480469-.167968.972656-.210937 1.453125-.050781.488281-.078125.992187-.078125 1.480468 0 .492188.027344.980469.078125 1.472657.042969.488281.121093.980469.210937 1.460937.101563.480469.222656.960938.359375 1.421875.152344.46875.3125.941407.5 1.390625.191407.449219.402344.890625.632813 1.320313.230468.441406.480468.863281.75 1.273437.269531.398438.570312.800782.871094 1.179688.320312.378906.648437.75 1 1.101562.339843.339844.710937.679688 1.089843.992188.382813.308594.78125.597656 1.191407.867187.402343.273438.832031.523438 1.261718.753907.433594.230468.871094.4375 1.332032.628906.449218.191406.910156.351562 1.382812.5.457031.140625.9375.261718 1.417969.351562.480469.101563.972656.179688 1.464843.21875.488282.050782.980469.082032 1.472657.082032.488281 0 .988281-.03125 1.480469-.082032.480468-.039062.96875-.117187 1.449218-.21875.480469-.089844.960938-.210937 1.433594-.351562.457031-.148438.929688-.308594 1.378906-.5.449219-.191406.902344-.398438 1.332032-.628906.429687-.230469.851562-.480469 1.261718-.753907.410156-.269531.800782-.558593 1.179688-.867187.382812-.3125.753906-.652344 1.101562-.992188.339844-.351562.683594-.722656.992188-1.101562s.601562-.78125.871094-1.179688c.269531-.410156.53125-.832031.761718-1.273437.21875-.429688.4375-.871094.621094-1.320313.1875-.449218.359375-.921875.5-1.390625.140625-.460937.257812-.941406.359375-1.421875.101563-.480468.171875-.972656.21875-1.460937.050781-.492188.070313-.980469.070313-1.472657 0-.488281-.019532-.992187-.070313-1.480468-.050781-.480469-.121094-.972656-.21875-1.453125zm0 0"/></svg>