<svg viewBox="-53 1 511 511.99999" xmlns="http://www.w3.org/2000/svg"><path d="m399.414062 123.761719-118.613281-118.617188c-2.402343-2.398437-5.382812-4.003906-8.621093-4.71875-.0625-.011719-.121094-.035156-.183594-.046875-1.183594-.246094-2.394532-.378906-3.628906-.378906h-249.664063c-10.039063 0-18.203125 8.164062-18.203125 18.203125v475.59375c0 10.039063 8.164062 18.203125 18.203125 18.203125h367.660156c10.035157 0 18.203125-8.164062 18.203125-18.203125v-357.601563c-.003906-4.699218-1.835937-9.117187-5.152344-12.433593zm-115.417968-72.953125 70.371094 70.375h-70.371094zm-253.46875 431.164062v-451.945312h223.441406v106.167968c0 8.292969 6.722656 15.015626 15.015625 15.015626h105.550781v330.761718zm0 0"/><path d="m330.921875 209.195312h-255.878906c-9.402344 0-17.054688 7.652344-17.054688 17.058594v199.386719c0 9.402344 7.652344 17.054687 17.054688 17.054687h255.878906c9.40625 0 17.058594-7.652343 17.058594-17.054687v-199.386719c0-9.40625-7.652344-17.058594-17.058594-17.058594zm-242.90625 96.871094h43.316406v39.757813h-43.316406zm73.347656 0h156.585938v39.757813h-156.585938zm156.585938-30.027344h-156.585938v-36.816406h156.585938zm-186.617188-36.816406v36.816406h-43.316406v-36.816406zm-43.316406 136.628906h43.316406v36.816407h-43.316406zm73.347656 36.816407v-36.816407h156.585938v36.816407zm0 0"/></svg>