<svg viewBox="1 0 511.99901 511" xmlns="http://www.w3.org/2000/svg"><path d="m487.875 299.984375c2.6875-14.75 4.046875-29.375 4.046875-43.5 0-31.792969-6.261719-62.644531-18.613281-91.691406-12.304688-28.9375-29.21875-54.285157-50.265625-75.339844-21.035157-21.039063-46.382813-37.953125-75.34375-50.265625-29.042969-12.351562-59.894531-18.613281-91.695313-18.613281-14.105468 0-28.730468 1.363281-43.5 4.050781-22.972656-16.011719-48.863281-24.125-76.992187-24.125-37.230469 0-69.464844 13.355469-95.808594 39.695312-26.34375 26.335938-39.703125 58.570313-39.703125 95.804688 0 28.152344 8.113281 54.042969 24.125 76.992188-2.6875 14.753906-4.046875 29.375-4.046875 43.496093 0 31.804688 6.261719 62.65625 18.613281 91.699219 12.308594 28.9375 29.21875 54.289062 50.265625 75.339844 21.035157 21.042968 46.386719 37.953125 75.34375 50.269531 29.042969 12.351563 59.894531 18.613281 91.695313 18.613281 14.097656 0 28.71875-1.363281 43.496094-4.050781 22.972656 16.011719 48.863281 24.125 77 24.125 37.226562 0 69.460937-13.355469 95.808593-39.695313 26.339844-26.34375 39.699219-58.578124 39.699219-95.804687 0-28.136719-8.113281-54.03125-24.125-77zm-36.800781 151.574219c-20.800781 20.796875-45.195313 30.90625-74.582031 30.90625-22.816407 0-42.894532-6.488282-61.386719-19.835938-4.191407-3.023437-9.238281-4.628906-14.339844-4.628906-1.515625 0-3.035156.144531-4.539063.433594-13.730468 2.625-27.265624 3.957031-40.230468 3.957031-27.742188 0-54.640625-5.457031-79.945313-16.21875-25.402343-10.800781-47.558593-25.558594-65.863281-43.867187-18.316406-18.320313-33.074219-40.480469-43.867188-65.863282-10.761718-25.308594-16.21875-52.207031-16.21875-79.953125 0-12.988281 1.328126-26.523437 3.949219-40.222656 1.257813-6.570313-.273437-13.457031-4.203125-18.894531-13.34375-18.464844-19.828125-38.539063-19.828125-61.371094 0-29.390625 10.109375-53.785156 30.90625-74.578125 20.800781-20.792969 45.199219-30.902344 74.585938-30.902344 22.800781 0 42.867187 6.484375 61.355469 19.816407 5.453124 3.9375 12.347656 5.46875 18.910156 4.21875 13.71875-2.628907 27.253906-3.960938 40.226562-3.960938 27.742188 0 54.640625 5.457031 79.945313 16.21875 25.402343 10.800781 47.5625 25.5625 65.863281 43.867188 18.316406 18.320312 33.074219 40.480468 43.867188 65.863281 10.765624 25.308593 16.21875 52.207031 16.21875 79.945312 0 12.992188-1.328126 26.527344-3.949219 40.230469-1.257813 6.558594.28125 13.449219 4.214843 18.90625 13.332032 18.480469 19.816407 38.554688 19.816407 61.363281 0 29.382813-10.109375 53.773438-30.90625 74.570313zm0 0"/><path d="m320.75 242.585938c-9.089844-6.140626-19.074219-11.914063-29.679688-17.15625-10.4375-5.152344-20.269531-9.492188-29.226562-12.898438-6.820312-2.59375-12.503906-5.902344-16.898438-9.84375-3.261718-2.921875-3.703124-5.242188-3.703124-7.128906 0-3.792969 1.152343-6.003906 4.25-8.15625 4.472656-3.105469 11.980468-4.75 21.710937-4.75 9.535156 0 18.230469 1.828125 25.824219 5.433594 14.753906 7.015624 19.894531 8.34375 24.210937 8.34375 11.140625 0 20.625-5.683594 26.71875-16.019532 4.742188-8.066406 7.144531-16.246094 7.144531-24.316406 0-10.132812-4.394531-19.230469-12.71875-26.328125-6.703124-5.695313-15.199218-9.875-25.265624-12.425781-8.417969-2.125-16.53125-3.679688-24.132813-4.625-7.605469-.941406-14.933594-1.417969-21.78125-1.417969-12.320313 0-24.203125 1.460937-35.324219 4.347656-11.367187 2.957031-22.195312 7.667969-32.175781 13.996094-10.921875 6.925781-19.703125 16.648437-26.109375 28.898437-6.308594 12.054688-9.507812 25.972657-9.507812 41.371094 0 13.761719 2.609374 26.328125 7.753906 37.34375 5.203125 11.160156 12.261718 20.308594 20.980468 27.191406 7.59375 5.996094 16.070313 11.449219 25.203126 16.210938 8.695312 4.539062 17.410156 8.671875 25.886718 12.28125 7.75 3.308594 14.945313 6.761719 21.375 10.253906 5.003906 2.726563 8.871094 5.976563 11.8125 9.917969 2.304688 3.097656 3.378906 6.417969 3.378906 10.441406 0 6.761719-2.449218 9.378907-5.09375 11.195313-5.226562 3.589844-11.933593 5.335937-20.503906 5.335937-6.464844 0-12.113281-1.078125-17.28125-3.300781-6.585937-2.832031-9.941406-5.34375-11.609375-6.96875-4.203125-4.070312-8.578125-7.835938-13.003906-11.179688-6.632813-5.015624-13.277344-7.554687-19.746094-7.554687-7.078125 0-17.398437 2.523437-26.359375 14.5625-6.183594 8.304687-9.316406 16.992187-9.316406 25.828125 0 16.835938 10.832031 31.585938 32.195312 43.839844 18.664063 10.703125 41.058594 16.128906 66.570313 16.128906 29.410156 0 53.722656-8 72.269531-23.78125 19.265625-16.386719 29.035156-39.542969 29.035156-68.820312 0-17.136719-3.511718-32.484376-10.4375-45.621094-6.941406-13.148438-15.835937-23.453125-26.445312-30.628906zm-11.605469 122.207031c-13.148437 11.1875-30.425781 16.625-52.816406 16.625-20.207031 0-37.578125-4.085938-51.636719-12.152344-10.875-6.234375-17.113281-12.722656-17.113281-17.796875 0-2.230469 1.136719-4.890625 3.378906-7.898438.929688-1.25 1.640625-1.90625 2.0625-2.230468.429688.238281 1.050781.628906 1.863281 1.242187 3.449219 2.605469 6.882813 5.5625 10.1875 8.765625 5.113282 4.980469 11.878907 9.234375 20.667969 13.011719 8.859375 3.8125 18.660157 5.742187 29.136719 5.742187 14.640625 0 27.261719-3.570312 37.507812-10.613281 11.847657-8.144531 18.113282-20.570312 18.113282-35.9375 0-10.507812-3.132813-20.046875-9.324219-28.371093-5.515625-7.402344-12.761719-13.578126-21.542969-18.359376-7.269531-3.949218-15.320312-7.816406-23.945312-11.496093-7.769532-3.308594-15.769532-7.105469-23.777344-11.28125-7.46875-3.898438-14.359375-8.324219-20.484375-13.160157-5.078125-4.007812-9.125-9.34375-12.378906-16.320312-3.273438-7.019531-4.9375-15.3125-4.9375-24.652344 0-10.5 2.050781-19.738281 6.089843-27.457031 3.988282-7.628906 9.085938-13.339844 15.585938-17.460937 7.347656-4.660157 15.308594-8.125 23.648438-10.292969 8.652343-2.246094 17.996093-3.382813 27.773437-3.382813 5.621094 0 11.710937.398438 18.085937 1.1875 6.367188.792969 13.257813 2.121094 20.472657 3.941406 5.566406 1.410157 10 3.492188 13.164062 6.179688 2.15625 1.839844 2.15625 2.859375 2.15625 3.46875 0 2.648438-1.011719 5.707031-2.996093 9.082031-.226563.382813-.421876.667969-.582032.875-1.78125-.652343-5.261718-2.070312-11.597656-5.082031-11.65625-5.53125-24.679688-8.335938-38.703125-8.335938-16.109375 0-29.179687 3.402344-38.839844 10.117188-11.214843 7.792969-17.140625 19.136719-17.140625 32.808594 0 11.269531 4.738282 21.46875 13.691406 29.488281 7.148438 6.40625 15.980469 11.636719 26.257813 15.542969 8.074219 3.070312 17.023437 7.027344 26.601563 11.753906 9.390624 4.640625 18.195312 9.726562 26.160156 15.113281 6.476562 4.378907 12.097656 11.03125 16.707031 19.765625 4.625 8.769532 6.96875 19.410156 6.96875 31.613282 0 20.355468-6.039063 35.386718-18.464844 45.957031zm0 0"/></svg>