<svg viewBox="0 0 511 511.99908" xmlns="http://www.w3.org/2000/svg"><path d="m512.445312 245.636719c-1.527343-66.980469-29.011718-129.394531-77.382812-175.75-48.300781-46.289063-111.722656-71.078125-178.585938-69.8437502-66.855468-1.2343748-130.289062 23.5546872-178.589843 69.8437502-48.371094 46.355469-75.851563 108.769531-77.382813 175.75l-.003906.210937v.210938c.351562 68.261718 29.578125 133.15625 80.320312 178.640625v61.886719c0 12.011718 8.386719 22.476562 19.941407 24.878906 1.710937.359375 3.433593.535156 5.144531.535156 4.652344 0 9.222656-1.300781 13.246094-3.8125l49.738281-31.070312c28.046875 9.820312 57.324219 14.796874 87.082031 14.796874h.371094c1.644531.03125 3.273438.046876 4.917969.046876 65.105469-.003907 126.65625-24.710938 173.800781-69.886719 48.371094-46.355469 75.851562-108.773438 77.382812-175.75l.007813-.34375zm-98.160156 154.757812c-42.59375 40.816407-98.519531 62.652344-157.515625 61.496094l-.324219-.003906c-.160156 0-.3125 0-.472656 0-27.53125 0-54.59375-4.808594-80.441406-14.285157-6.433594-2.359374-13.4375-1.640624-19.222656 1.972657l-45.460938 28.394531v-56.925781c0-6.347657-2.757812-12.390625-7.574218-16.578125-45.863282-39.871094-72.367188-97.578125-72.742188-158.351563 1.398438-58.898437 25.589844-113.773437 68.132812-154.542969 42.59375-40.820312 98.535157-62.65625 157.515626-61.496093l.296874.007812.292969-.007812c59.007813-1.15625 114.925781 20.675781 157.515625 61.496093 42.511719 40.738282 66.699219 95.566407 68.128906 154.414063-1.429687 58.84375-25.617187 113.671875-68.128906 154.410156zm0 0"/><path d="m405.730469 177.195312c-.289063-.730468-.644531-1.429687-1.042969-2.097656-24.960938-49.753906-74.347656-85.210937-132.332031-90.546875-1.480469-.34375-3.003907-.464843-4.515625-.351562-3.546875-.230469-7.117188-.359375-10.71875-.359375-64.492188 0-120.453125 37.203125-147.570313 91.269531-.394531.664063-.746093 1.355469-1.035156 2.082031-10.496094 21.675782-16.382813 45.980469-16.382813 71.636719 0 .082031.003907.164063.003907.25 0 .019531-.003907.039063-.003907.0625 0 .035156.007813.066406.007813.101563.0625 25.535156 5.953125 49.722656 16.410156 71.300781.265625.644531.578125 1.257812.925781 1.855469 27.089844 54.144531 83.09375 91.417968 147.644532 91.417968 4.4375 0 8.828125-.183594 13.175781-.527344.078125-.007812.15625-.011718.234375-.019531 58.832031-4.757812 109.035156-40.507812 134.230469-90.863281.351562-.597656.664062-1.222656.929687-1.871094 10.457032-21.578125 16.347656-45.761718 16.410156-71.292968 0-.035157.007813-.066407.007813-.101563 0-.023437-.003906-.042969-.003906-.0625 0-.085937.003906-.167969.003906-.25 0-25.652344-5.886719-49.953125-16.378906-71.632813zm-23.671875 122.652344h-42.511719c2.941406-11.300781 5.089844-23.238281 6.101563-35.691406h45.554687c-1.417969 12.488281-4.546875 24.464844-9.144531 35.691406zm-249.863282-102.0625h42.371094c-2.972656 11.488282-5.121094 23.640625-6.070312 36.339844h-45.53125c1.386718-12.722656 4.546875-24.921875 9.230468-36.339844zm139.941407-30.03125v-41.140625c7.40625 10.019531 16.632812 24.085938 24.730469 41.140625zm36.375 30.03125c3.4375 11.390625 5.996093 23.570313 7.121093 36.339844h-43.496093v-36.339844zm-66.40625-30.03125h-24.515625c8.042968-16.824218 17.167968-30.738281 24.515625-40.695312zm0 30.03125v36.339844h-43.480469c1.144531-12.757812 3.738281-24.941406 7.210938-36.339844zm-119.070313 66.367188h45.554688c1.007812 12.457031 3.164062 24.394531 6.109375 35.691406h-42.515625c-4.597656-11.222656-7.726563-23.199219-9.148438-35.691406zm75.707032 0h43.367187v35.691406h-36.171875c-3.421875-11.203125-5.988281-23.164062-7.195312-35.691406zm43.363281 65.722656v40.675781c-7.324219-9.964843-16.402344-23.871093-24.421875-40.675781zm30.03125 0h24.386719c-8.011719 16.824219-17.078126 30.777344-24.386719 40.78125zm0-30.027344v-35.691406h43.351562c-1.214843 12.507812-3.792969 24.472656-7.222656 35.691406zm73.617187-65.722656c-.9375-12.699219-3.070312-24.851562-6.027344-36.34375h42.320313c4.683594 11.421875 7.84375 23.617188 9.230469 36.34375zm19.191406-66.371094h-35.203124c-7.066407-17.320312-15.496094-32.390625-23.40625-44.59375 23.429687 9.207032 43.679687 24.789063 58.609374 44.59375zm-156.742187-44.707031c-7.960937 12.207031-16.464844 27.3125-23.597656 44.707031h-35.308594c14.992187-19.886718 35.351563-35.515625 58.90625-44.707031zm-58.925781 206.828125h35.5c7.160156 17.429688 15.667968 32.574219 23.621094 44.808594-23.648438-9.1875-44.085938-24.851563-59.121094-44.808594zm156.707031 44.753906c7.917969-12.230468 16.386719-27.359375 23.507813-44.753906h35.472656c-15.003906 19.917969-35.390625 35.5625-58.980469 44.753906zm0 0"/></svg>