<svg viewBox="1 -48 511.99999 511" xmlns="http://www.w3.org/2000/svg"><path d="m448.777344 72.792969h-57.832032c-1.496093 0-4.304687-2.023438-4.777343-3.441407l-14.953125-44.875c-4.566406-13.671874-18.878906-23.976562-33.285156-23.976562h-163.859376c-14.425781 0-28.742187 10.316406-33.289062 23.992188l-14.945312 44.851562c-.476563 1.417969-3.289063 3.445312-4.78125 3.445312h-57.832032c-34.859375.003907-63.222656 28.363282-63.222656 63.222657v216.875c0 34.863281 28.363281 63.226562 63.222656 63.226562h385.554688c34.859375 0 63.222656-28.363281 63.222656-63.226562v-216.875c0-34.859375-28.363281-63.21875-63.222656-63.21875zm33.164062 280.09375c0 18.289062-14.875 33.167969-33.164062 33.167969h-385.554688c-18.289062 0-33.164062-14.878907-33.164062-33.167969v-216.875c0-18.285157 14.875-33.164063 33.164062-33.164063h57.832032c14.410156 0 28.71875-10.308594 33.292968-23.988281l14.949219-44.871094c.46875-1.410156 3.28125-3.429687 4.773437-3.429687h163.859376c1.492187 0 4.304687 2.027344 4.773437 3.433594l14.949219 44.855468c4.550781 13.679688 18.863281 24 33.292968 24h57.832032c18.289062 0 33.164062 14.878906 33.164062 33.164063zm0 0"/><path d="m260.65625 112.683594c-67.523438 0-122.460938 54.9375-122.460938 122.460937 0 67.523438 54.9375 122.460938 122.460938 122.460938s122.460938-54.9375 122.460938-122.460938c0-67.523437-54.933594-122.460937-122.460938-122.460937zm0 214.867187c-50.953125 0-92.402344-41.453125-92.402344-92.40625 0-50.949219 41.449219-92.402343 92.402344-92.402343s92.402344 41.453124 92.402344 92.402343c0 50.953125-41.449219 92.40625-92.402344 92.40625zm0 0"/><path d="m260.65625 169.449219c-36.222656 0-65.695312 29.472656-65.695312 65.695312 0 36.222657 29.472656 65.695313 65.695312 65.695313 36.226562 0 65.695312-29.472656 65.695312-65.695313 0-36.222656-29.46875-65.695312-65.695312-65.695312zm0 101.335937c-19.652344 0-35.636719-15.988281-35.636719-35.640625 0-19.648437 15.984375-35.636719 35.636719-35.636719s35.636719 15.988282 35.636719 35.636719c0 19.652344-15.984375 35.640625-35.636719 35.640625zm0 0"/><path d="m439.785156 151.609375c-.089844-.480469-.210937-.964844-.359375-1.425781-.140625-.46875-.300781-.929688-.492187-1.390625-.191406-.449219-.402344-.894531-.632813-1.324219s-.480469-.859375-.75-1.261719c-.269531-.410156-.570312-.8125-.871093-1.191406-.320313-.378906-.652344-.75-.992188-1.09375-.351562-.347656-.722656-.679687-1.101562-1-.382813-.300781-.78125-.601563-1.183594-.871094-.410156-.269531-.839844-.523437-1.273438-.753906-.429687-.226563-.871094-.4375-1.320312-.628906-.460938-.191407-.921875-.351563-1.394532-.492188-.460937-.148437-.941406-.269531-1.421874-.359375-.480469-.101562-.972657-.171875-1.460938-.222656-.984375-.097656-1.976562-.097656-2.957031 0-.480469.050781-.972657.121094-1.453125.222656-.480469.089844-.960938.210938-1.433594.359375-.460938.140625-.929688.300781-1.382812.492188-.449219.191406-.898438.398437-1.332032.628906-.429687.230469-.851562.484375-1.261718.753906-.410157.269531-.8125.570313-1.179688.871094-.382812.320313-.753906.652344-1.105469 1-.347656.34375-.679687.714844-.992187 1.09375-.308594.378906-.597656.78125-.871094 1.191406-.269531.402344-.53125.832031-.761719 1.261719-.230469.433594-.4375.875-.621093 1.324219-.1875.460937-.359376.921875-.5 1.390625-.140626.460937-.261719.945312-.359376 1.425781-.101562.480469-.171874.972656-.222656 1.460937-.046875.492188-.070312.980469-.070312 1.472657 0 3.957031 1.605468 7.835937 4.398437 10.628906.351563.34375.722657.683594 1.105469.992187.367188.3125.769531.601563 1.179688.875.410156.269532.832031.527344 1.261718.757813.433594.222656.882813.441406 1.332032.621094.453124.191406.921874.363281 1.382812.503906.472656.140625.953125.257813 1.433594.359375.480468.101562.972656.171875 1.453125.21875.492187.050781.992187.070312 1.484375.070312.488281 0 .980468-.019531 1.472656-.070312.488281-.046875.980469-.117188 1.460938-.21875.480468-.101562.960937-.222656 1.421874-.359375.472657-.140625.933594-.3125 1.394532-.503906.449218-.179688.890625-.398438 1.320312-.621094.433594-.226563.863282-.488281 1.273438-.757813.402344-.273437.800781-.5625 1.183594-.875.378906-.308593.75-.648437 1.101562-.992187 2.796875-2.792969 4.398438-6.671875 4.398438-10.628906 0-.488281-.03125-.980469-.082032-1.472657-.039062-.492187-.117187-.980468-.21875-1.460937zm0 0"/><path d="m439.785156 193.6875c-.089844-.480469-.210937-.960938-.359375-1.421875-.140625-.472656-.3125-.933594-.492187-1.394531-.191406-.449219-.402344-.890625-.632813-1.320313-.230469-.429687-.480469-.863281-.75-1.261719-.269531-.414062-.570312-.8125-.882812-1.195312-.308594-.378906-.640625-.75-.992188-1.089844-3.132812-3.148437-7.652343-4.78125-12.101562-4.339844-.480469.050782-.972657.132813-1.453125.222657-.480469.101562-.960938.21875-1.433594.371093-.460938.140626-.929688.300782-1.382812.488282-.449219.191406-.898438.402344-1.332032.632812-.429687.230469-.851562.480469-1.261718.75-.410157.273438-.8125.570313-1.179688.882813-.382812.3125-.753906.640625-1.105469.992187-2.792969 2.792969-4.398437 6.660156-4.398437 10.621094 0 .488281.023437.988281.070312 1.480469.050782.480469.121094.972656.222656 1.453125.097657.480468.21875.960937.359376 1.433594.140624.460937.3125.933593.5 1.382812.183593.449219.390624.902344.621093 1.332031.230469.429688.492188.851563.761719 1.261719.273438.410156.5625.8125.871094 1.183594.3125.378906.644531.75.992187 1.101562.351563.351563.722657.683594 1.105469.992188.367188.3125.769531.601562 1.179688.871094.410156.269531.832031.53125 1.261718.761718.433594.222656.882813.441406 1.332032.621094.453124.191406.921874.359375 1.382812.5.472656.140625.953125.261719 1.433594.363281.480468.097657.972656.167969 1.453125.21875.492187.050781.992187.070313 1.484375.070313.488281 0 .980468-.019532 1.472656-.070313.488281-.050781.980469-.121093 1.460938-.21875.480468-.101562.960937-.222656 1.421874-.363281.472657-.140625.933594-.308594 1.382813-.5.453125-.179688.902344-.398438 1.332031-.621094.433594-.230468.863282-.492187 1.265625-.761718.410157-.269532.808594-.5625 1.191407-.871094.378906-.308594.75-.640625 1.089843-.992188.351563-.351562.683594-.722656.992188-1.101562.3125-.371094.613281-.773438.882812-1.183594s.519531-.832031.75-1.261719c.230469-.429687.441407-.882812.632813-1.332031.179687-.449219.351562-.921875.492187-1.382812.148438-.472657.269531-.953126.359375-1.433594.101563-.480469.171875-.972656.21875-1.453125.050782-.492188.082032-.992188.082032-1.480469 0-.492188-.03125-.984375-.082032-1.476562-.046875-.488282-.117187-.980469-.21875-1.460938zm0 0"/></svg>