<svg viewBox="0 -32 511.99832 511" xmlns="http://www.w3.org/2000/svg"><path d="m497.792969 34.046875c-22.066407-32.902344-57.640625-33.535156-59.144531-33.546875h-.109376c-33.136718 0-64.675781 10.378906-91.214843 30.019531-20.390625 15.089844-37.921875 35.957031-48.101563 57.25-3.296875 6.894531-2.726562 14.808594 1.527344 21.167969s11.355469 9.910156 18.976562 9.492188c16.152344-.886719 27.214844 2.855468 33.816407 11.398437 5.667969 7.34375 6.546875 16.765625 6.28125 23.375-.175781 4.476563-1.152344 9.042969-2.902344 13.5625l-.71875 1.851563c-.339844.886718-.339844.886718-.421875 1.089843l-.058594.148438c-37.488281 95.03125-63.015625 114.980469-77.828125 114.980469-1.425781 0-2.179687-.304688-2.210937-.320313l-.25-.097656c-2.726563-1.078125-17.140625-9.605469-33.023438-72.066407-10.25-40.308593-16.75-86.324218-19.714844-110.164062l-.027343-.21875c-1.925781-13.839844-4.617188-26.414062-8-37.375-5.828125-18.871094-18.746094-34.230469-36.375-43.246094-17.734375-9.066406-37.894531-10.546875-56.765625-4.171875-3.339844 1.128907-6.332032 2.375-9.148438 3.804688-36.433594 18.457031-83.433594 65.242187-106.015625 87.722656-7.957031 7.917969-8.519531 20.378906-1.308593 28.984375 7.527343 8.980469 20.628906 10.296875 29.828124 2.992188 9.082032-7.214844 17.390626-10.871094 24.695313-10.871094 12.742187 0 18.171875 11.550781 18.226563 11.667968l.210937.441407c29.535156 59.359375 49.101563 142.902343 49.292969 143.742187l.035156.136719c15.59375 64.441406 34.785156 110.730469 57.039062 137.582031 19.183594 23.148438 35.34375 24.949219 39.839844 24.949219h1.128906l.933594-.121094c112.195313-14.199219 216.203125-182.933593 255.710938-254.816406 11.738281-21.355469 20.222656-43.667969 25.21875-66.328125 8.695312-39.425781 5.523437-70.722656-9.421875-93.015625zm-19.828125 86.570313c-4.382813 19.867187-11.855469 39.5-22.21875 58.347656-16.332032 29.722656-50.128906 87.292968-92.921875 138.898437-23.453125 28.285157-46.554688 51.066407-68.667969 67.707031-24.566406 18.484376-48.003906 29.464844-69.707031 32.660157-5.179688-1.722657-38.433594-17.359375-67.980469-139.421875-.75-3.1875-20.9375-88.441406-51.539062-150.035156-6.714844-14.433594-23.285157-28.914063-45.351563-28.914063-.359375 0-.714844.003906-1.070313.011719 21.332032-19.867188 47.175782-41.917969 67.410157-52.171875 1.53125-.777344 3.234375-1.476563 5.203125-2.144531 11.148437-3.765626 23.058594-2.890626 33.53125 2.464843 10.375 5.304688 17.972656 14.332031 21.390625 25.410157 2.902343 9.402343 5.238281 20.359374 6.941406 32.566406 3.726563 29.972656 10.289063 73.992187 20.394531 113.738281 13.9375 54.808594 30.132813 84.210937 50.953125 92.503906 2.878907 1.179688 7.53125 2.550781 13.5625 2.550781 19.558594 0 37.738281-11.605468 55.582031-35.488281 16.054688-21.488281 32.4375-53.671875 50.078126-98.375.09375-.234375.132812-.328125.585937-1.503906l.714844-1.84375c2.941406-7.605469 4.589843-15.40625 4.898437-23.183594.660156-16.597656-3.664062-31.421875-12.503906-42.875-10.339844-13.386719-25.1875-21.011719-44.257812-22.773437 6.308593-9.75 16.601562-22.640625 32.152343-34.148438 21.601563-15.988281 46.234375-24.109375 73.21875-24.144531h.007813.023437.148438-.167969c1.734375.066406 21.792969 1.265625 34.542969 20.273437 10.070312 15.023438 11.816406 39.191407 5.046875 69.890626zm0 0"/></svg>