<svg viewBox="0 0 512 512.00099" xmlns="http://www.w3.org/2000/svg"><path d="m373.410156 0h-234.816406c-76.421875 0-138.59375 62.171875-138.59375 138.59375v234.8125c0 76.421875 62.171875 138.59375 138.59375 138.59375h234.816406c76.417969 0 138.589844-62.171875 138.589844-138.59375v-234.8125c0-76.421875-62.171875-138.59375-138.589844-138.59375zm108.574219 373.40625c0 59.871094-48.707031 108.578125-108.574219 108.578125h-234.816406c-59.871094 0-108.578125-48.707031-108.578125-108.578125v-234.8125c0-59.871094 48.707031-108.578125 108.578125-108.578125h234.816406c59.867188 0 108.574219 48.707031 108.574219 108.578125zm0 0"/><path d="m219.152344 248.273438c16.4375-7.15625 24.664062-22.535157 24.664062-46.136719 0-34.042969-19.441406-51.066407-58.324218-51.066407h-56c-4.453126 0-8.320313 1.0625-11.605469 3.191407-3.292969 2.128906-4.933594 5.03125-4.933594 8.703125v188.601562c0 3.097656 1.546875 5.804688 4.644531 8.125 3.089844 2.320313 7.058594 3.480469 11.894532 3.480469h61.515624c17.792969 0 31.914063-4.882813 42.363282-14.652344 10.445312-9.765625 15.667968-25.386719 15.667968-46.859375v-6.09375c0-13.539062-2.519531-23.839844-7.546874-30.902344-5.03125-7.058593-12.476563-12.519531-22.339844-16.390624zm-68.769532-64.125h32.207032c7.351562 0 13.105468 2.175781 17.265625 6.527343 4.15625 4.351563 6.238281 10.300781 6.238281 17.84375 0 7.738281-1.984375 13.832031-5.949219 18.28125-3.964843 4.449219-9.71875 6.671875-17.261719 6.671875h-32.5zm60.933594 114.320312c0 21.085938-9.382812 31.628906-28.144531 31.628906h-32.789063v-67.027344h32.789063c9.285156 0 16.292969 2.421876 21.035156 7.253907 4.738281 4.835937 7.109375 12.671875 7.109375 23.503906zm0 0"/><path d="m381.640625 303.980469c4.058594 0 7.347656-.191407 9.863281-.574219 2.511719-.382812 5.269532-1.34375 8.269532-2.875 2.996093-1.53125 5.222656-4.167969 6.671874-7.902344 1.453126-3.734375 2.179688-8.472656 2.179688-14.222656 0-15.738281-5.855469-28.808594-17.554688-39.203125-11.707031-10.394531-25.78125-15.597656-42.21875-15.597656-17.605468 0-32.597656 5.710937-44.976562 17.121093-12.378906 11.414063-18.570312 25.054688-18.570312 40.914063v24.660156c0 17.800781 6.53125 32.164063 19.585937 43.089844 13.058594 10.929687 29.933594 16.394531 50.632813 16.394531 14.507812 0 26.644531-2.65625 36.414062-7.980468 9.765625-5.316407 14.65625-10.6875 14.65625-16.105469 0-3.480469-1.355469-7.109375-4.0625-10.878907-2.710938-3.773437-6.09375-5.660156-10.15625-5.660156-2.132812 0-6.773438 1.84375-13.929688 5.515625-7.15625 3.675781-14.410156 5.511719-21.761718 5.511719-10.253906 0-18.472656-2.5625-24.660156-7.6875-6.195313-5.125-9.285157-11.847656-9.285157-20.167969v-4.351562zm-58.902344-29.640625c0-6.320313 2.511719-11.425782 7.542969-15.308594 5.027344-3.882812 10.925781-5.828125 17.699219-5.828125 7.152343 0 13.203125 1.992187 18.136719 5.960937 4.929687 3.976563 7.398437 9.128907 7.398437 15.449219 0 2.890625-.632813 4.832031-1.886719 5.824219-1.261718.996094-3.4375 1.492188-6.527344 1.492188h-42.363281zm0 0"/><path d="m394.386719 177.863281h-93.867188c-8.289062 0-15.011719 6.722657-15.011719 15.007813 0 8.289062 6.722657 15.011718 15.011719 15.011718h93.867188c8.289062 0 15.011719-6.722656 15.011719-15.011718 0-8.285156-6.722657-15.007813-15.011719-15.007813zm0 0"/></svg>