<svg viewBox="0 0 512 512.00102" xmlns="http://www.w3.org/2000/svg"><path d="m486.613281 0h-58.5c-13.753906 0-24.941406 11.1875-24.941406 24.941406v21.46875c-44.777344 49.417969-102.769531 70.707032-192.722656 70.972656-28.742188.082032-56.878907 11.917969-77.199219 32.46875-3.023438 3.058594-5.832031 6.261719-8.433594 9.589844h-65.347656c-32.789062 0-59.46875 26.675782-59.46875 59.46875 0 32.789063 26.679688 59.46875 59.46875 59.46875h58.5625c11.285156 18.535156 28.078125 33.378906 48.058594 42.21875-1.496094 31.574219-9.867188 60.492188-23.996094 82.28125-16.421875 25.324219-32.460938 29.109375-40.5625 29.109375-22.058594 0-40.003906 17.945313-40.003906 40.003907 0 22.0625 17.945312 40.007812 40.003906 40.007812 42.023438 0 80.269531-23.292969 107.695312-65.585938 20.691407-31.90625 33.34375-72.3125 36.410157-115.480468 31.140625 2.34375 57.816406 7.828125 80.824219 16.613281 29.527343 11.269531 54.65625 28.640625 76.707031 53.011719v12.320312c0 13.75 11.191406 24.941406 24.941406 24.941406h58.5c13.753906 0 24.941406-11.191406 24.941406-24.941406v-387.9375c.003907-13.753906-11.1875-24.941406-24.9375-24.941406zm-427.144531 248.371094c-16.246094 0-29.460938-13.21875-29.460938-29.460938 0-16.246094 13.214844-29.464844 29.460938-29.464844h48.929688c-3.886719 11.125-5.863282 22.902344-5.761719 34.945313.070312 8.246094 1.09375 16.277344 2.960937 23.980469zm124.582031 181.714844c-21.707031 33.476562-51.011719 51.910156-82.519531 51.910156-5.511719 0-10-4.488282-10-10.003906 0-5.515626 4.488281-10 10-10 14.191406 0 41.597656-5.558594 65.738281-42.789063 15.933594-24.570313 25.785157-56.164063 28.390625-90.410156 4.289063.53125 8.648438.808593 13.070313.808593 2.332031 0 4.628906.027344 6.917969.054688-2.792969 37.816406-13.761719 72.929688-31.597657 100.429688zm219.109375-71.421876c-19.714844-16.894531-41.527344-29.8125-65.996094-39.152343-35.105468-13.398438-77.117187-19.914063-128.433593-19.914063-41.605469 0-75.738281-33.851562-76.089844-75.460937-.164063-19.816407 7.628906-38.703125 21.949219-53.1875 14.742187-14.914063 35.136718-23.5 55.949218-23.5625 50.753907-.148438 92.367188-6.746094 127.214844-20.167969 24.21875-9.328125 45.84375-22.183594 65.414063-38.949219zm78.386719 49.144532h-48.371094v-377.804688h48.371094zm0 0"/></svg>