<svg xmlns="http://www.w3.org/2000/svg" viewBox="0 0 640 640">
    <path d="M446.2 64L448 64C554 64 640 150 640 256L640 286.6C640 374.6 588.5 452.2 512 488.1L512 544C512 561.7 497.7 576 480 576L416 576C398.3 576 384 561.7 384 544L384 522C368.7 525.9 352.6 528 336 528C329.2 528 322.5 527.6 315.9 527C308.4 508.1 291.5 493.7 270.5 490.2L162 472.1C142.4 468.8 128 451.9 128 432C128 423.2 120.8 416 112 416C103.2 416 96 423.2 96 432C96 467.5 121.7 497.8 156.7 503.7L265.2 521.8C278.4 524 288 535.4 288 548.7C288 563.8 275.8 576 260.7 576L120.8 576C54.1 576 0 521.9 0 455.3C0 421.2 14.4 388.8 39.5 365.9L129.2 284.3C171.9 245.5 227.6 224 285.3 224C335.5 224 384.3 240.3 424.5 270.4L480 312C486.9 317.2 495.3 320 504 320C526.1 320 544 302.1 544 280L544 256C544 220.7 515.3 192 480 192L415.7 192C389.4 192 368 170.6 368 144.3L368 139.6C368 122.9 378.1 108 393.6 101.8L395.3 101.1C403.5 97.8 410.1 91.7 414 83.9C420.1 71.8 432.5 64.1 446.1 64.1zM464 128C472.8 128 480 120.8 480 112C480 103.2 472.8 96 464 96C455.2 96 448 103.2 448 112C448 120.8 455.2 128 464 128z"/>
</svg>