<svg aria-hidden="true" focusable="false" data-prefix="far" data-icon="sparkles" class="svg-inline--fa fa-sparkles fa-w-16" role="img" xmlns="http://www.w3.org/2000/svg" viewBox="0 0 512 512"><path fill="currentColor" d="M324.42 103.16L384 128l24.84 59.58a8 8 0 0 0 14.32 0L448 128l59.58-24.84a8 8 0 0 0 0-14.32L448 64 423.16 4.42a8 8 0 0 0-14.32 0L384 64l-59.58 24.84a8 8 0 0 0 0 14.32zm183.16 305.68L448 384l-24.84-59.58a8 8 0 0 0-14.32 0L384 384l-59.58 24.84a8 8 0 0 0 0 14.32L384 448l24.84 59.58a8 8 0 0 0 14.32 0L448 448l59.58-24.84a8 8 0 0 0 0-14.32zM384 256a24 24 0 0 0-13.28-21.47l-104.85-52.42-52.4-104.84c-8.13-16.25-34.81-16.25-42.94 0l-52.41 104.84-104.84 52.42a24 24 0 0 0 0 42.94l104.84 52.42 52.41 104.85a24 24 0 0 0 42.94 0l52.4-104.85 104.85-52.42A24 24 0 0 0 384 256zm-146.72 34.53a24 24 0 0 0-10.75 10.74L192 370.33l-34.53-69.06a24 24 0 0 0-10.75-10.74L77.66 256l69.06-34.53a24 24 0 0 0 10.75-10.73L192 141.67l34.53 69.07a24 24 0 0 0 10.75 10.73L306.34 256z"></path></svg>