<svg aria-hidden="true" focusable="false" data-prefix="far" data-icon="book-heart" class="svg-inline--fa fa-book-heart fa-w-14" role="img" xmlns="http://www.w3.org/2000/svg" viewBox="0 0 448 512"><path fill="currentColor" d="M448 384V16c0-8.8-7.2-16-16-16H80C35.8 0 0 35.8 0 80v352c0 44.2 35.8 80 80 80h352c8.8 0 16-7.2 16-16v-16c0-7.8-5.6-14.3-12.9-15.7-4.2-13-4.2-51.6 0-64.6 7.4-1.5 12.9-7.9 12.9-15.7zm-54 80H80c-17.7 0-32-14.3-32-32 0-17.6 14.4-32 32-32h314c-2.7 17.3-2.7 46.7 0 64zm6-112H80c-11.4 0-22.2 2.4-32 6.7V80c0-17.7 14.3-32 32-32h320v304zm-184.5-67.5c4.7 4.6 12.3 4.6 17 0l72.6-71.3c21.1-20.7 19.8-55.1-3.7-74.2s-54.3-10.6-70 4.8l-7.4 7.3-7.4-7.3c-15.3-15.1-46.2-24.1-70-4.8-23.6 19.1-24.8 53.5-3.7 74.2l72.6 71.3z"></path></svg>