<svg aria-hidden="true" focusable="false" data-prefix="far" data-icon="browser" class="svg-inline--fa fa-browser fa-w-16" role="img" xmlns="http://www.w3.org/2000/svg" viewBox="0 0 512 512"><path fill="currentColor" d="M464 32H48C21.5 32 0 53.5 0 80v352c0 26.5 21.5 48 48 48h416c26.5 0 48-21.5 48-48V80c0-26.5-21.5-48-48-48zM48 92c0-6.6 5.4-12 12-12h40c6.6 0 12 5.4 12 12v24c0 6.6-5.4 12-12 12H60c-6.6 0-12-5.4-12-12V92zm416 334c0 3.3-2.7 6-6 6H54c-3.3 0-6-2.7-6-6V168h416v258zm0-310c0 6.6-5.4 12-12 12H172c-6.6 0-12-5.4-12-12V92c0-6.6 5.4-12 12-12h280c6.6 0 12 5.4 12 12v24z"></path></svg>