<svg aria-hidden="true" focusable="false" data-prefix="far" data-icon="traffic-light-go" class="svg-inline--fa fa-traffic-light-go fa-w-12" role="img" xmlns="http://www.w3.org/2000/svg" viewBox="0 0 384 512"><path fill="currentColor" d="M384 192h-48v-45.31c28.57-16.63 48-47.24 48-82.69h-48V32c0-17.67-14.33-32-32-32H80C62.33 0 48 14.33 48 32v32H0c0 35.44 19.43 66.05 48 82.69V192H0c0 35.44 19.43 66.05 48 82.69V320H0c0 37.73 21.97 70.05 53.63 85.74C70.3 466.84 125.62 512 192 512s121.7-45.16 138.37-106.26C362.03 390.05 384 357.73 384 320h-48v-45.31c28.57-16.64 48-47.25 48-82.69zm-96 176c0 52.93-43.06 96-96 96s-96-43.07-96-96V48h192v320zm-96-192c26.51 0 48-21.49 48-48s-21.49-48-48-48-48 21.49-48 48 21.49 48 48 48zm0-72c13.23 0 24 10.77 24 24s-10.77 24-24 24-24-10.77-24-24 10.77-24 24-24zm0 200c26.51 0 48-21.49 48-48s-21.49-48-48-48-48 21.49-48 48 21.49 48 48 48zm0-72c13.23 0 24 10.77 24 24s-10.77 24-24 24-24-10.77-24-24 10.77-24 24-24zm0 200c26.51 0 48-21.49 48-48s-21.49-48-48-48-48 21.49-48 48 21.49 48 48 48z"></path></svg>