<svg aria-hidden="true" focusable="false" data-prefix="far" data-icon="server" class="svg-inline--fa fa-server fa-w-16" role="img" xmlns="http://www.w3.org/2000/svg" viewBox="0 0 512 512"><path fill="currentColor" d="M424 400c0 13.255-10.745 24-24 24s-24-10.745-24-24 10.745-24 24-24 24 10.745 24 24zm-88-24c-13.255 0-24 10.745-24 24s10.745 24 24 24 24-10.745 24-24-10.745-24-24-24zm64-144c-13.255 0-24 10.745-24 24s10.745 24 24 24 24-10.745 24-24-10.745-24-24-24zm-64 0c-13.255 0-24 10.745-24 24s10.745 24 24 24 24-10.745 24-24-10.745-24-24-24zm176-72a47.758 47.758 0 0 1-6.438 24A47.758 47.758 0 0 1 512 208v96a47.758 47.758 0 0 1-6.438 24A47.758 47.758 0 0 1 512 352v96c0 26.51-21.49 48-48 48H48c-26.51 0-48-21.49-48-48v-96a47.758 47.758 0 0 1 6.438-24A47.758 47.758 0 0 1 0 304v-96a47.758 47.758 0 0 1 6.438-24A47.758 47.758 0 0 1 0 160V64c0-26.51 21.49-48 48-48h416c26.51 0 48 21.49 48 48v96zm-464 0h416V64H48v96zm416 48H48v96h416v-96zm0 144H48v96h416v-96zm-64-216c13.255 0 24-10.745 24-24s-10.745-24-24-24-24 10.745-24 24 10.745 24 24 24zm-64 0c13.255 0 24-10.745 24-24s-10.745-24-24-24-24 10.745-24 24 10.745 24 24 24z"></path></svg>