<svg aria-hidden="true" focusable="false" data-prefix="far" data-icon="rabbit-fast" class="svg-inline--fa fa-rabbit-fast fa-w-20" role="img" xmlns="http://www.w3.org/2000/svg" viewBox="0 0 640 512"><path fill="currentColor" d="M598.33 189.44c-1.98-1.4.26.02-41.42-25.23-1.44-8.79-3.37-17.75-5.76-26.67C542.64 105.8 516.85 32 461.17 32c-5.01 0-9.99.65-14.8 1.95-18.5 4.96-31.84 17.01-39.68 34.91-8.84-3.03-17.89-4.86-26.88-4.86-16.51 0-31.68 6.07-42.71 17.1-5.7 5.7-14.96 17.64-16.74 36.22C292.78 103.85 266.77 96 239.89 96c-40.75 0-77.54 18.47-112.37 55.99-13.71-10.22-30.11-16-47.53-16-44.19 0-80 35.75-80 79.99 0 44.19 35.76 79.99 80 79.99 10.98 0 21.54-2.34 31.33-6.55 7.3 11.89 8.74 12.68 51.15 59.01l-9.54 5.16c-15.62 10.4-24.94 27.82-24.94 46.59v23.73c0 20.19 10.44 38.29 27.88 48.42 8.78 5.11 18.44 7.66 28.12 7.66 9.53 0 19.06-2.48 27.78-7.45l42.21-24.12 14.6 15.95a48.01 48.01 0 0 0 35.41 15.59h160c26.51 0 48-21.49 48-48 0-26.14-12.6-49.39-32.05-64h61.07c54.58 0 98.98-44.12 98.98-98.35.01-31.78-15.57-61.76-41.66-80.17zM95.87 243.1c-19.31 11.27-34.01.01-38.5-4.48-12.5-12.5-12.5-32.76 0-45.25 6.69-6.7 26.57-16.99 44.22-.69-5.94 16.23-7.56 33.47-5.72 50.42zm92.1 187.76c-3.5 2.02-6.5.81-8-.02-1.47-.88-3.97-2.92-3.97-6.92v-23.73c0-2.69 1.34-5.17 1.62-5.5l18.2-9.81 24.94 27.24-32.79 18.74zm353.05-110.88H448l-48.06 20.03c-.35-48.13-31.81-90.94-76.81-104.27l-36.31-10.77c-12.81-3.75-26.06 3.5-29.81 16.19-3.78 12.72 3.47 26.08 16.19 29.84l36.31 10.76c25.03 7.41 42.5 31.69 42.5 59.03v59.18h80c17.66 0 32 14.36 32 32H304L159.86 274.5c-22.36-24.22-22.66-61.37-.81-86.05C186.71 157.21 212.34 144 239.9 144c52.91 0 112.95 48.69 208.11 111.99 0-18.85-.38-22.24 3.75-33.12-13.16-6.88-28.53-18.32-43.38-33.17-30.93-30.92-47.64-64.35-37.33-74.65 10.74-10.74 45.13 7.8 74.66 37.32 2.58 2.58 4.9 5.18 7.28 7.78-10.27-40.77-7.88-76.17 5.81-79.84 14.11-3.8 34.71 27.54 45.99 69.65 4.37 16.3 6.67 31.8 7.1 44.98 2.6.84 5.2 1.56 7.79 2.82l50.98 30.89c13.4 9.45 21.35 24.71 21.35 40.97-.01 27.82-22.84 50.36-50.99 50.36zM512 239.99c-8.84 0-16 7.16-16 16s7.16 16 16 16 16-7.16 16-16-7.16-16-16-16z"></path></svg>