<svg aria-hidden="true" focusable="false" data-prefix="far" data-icon="hand-sparkles" class="svg-inline--fa fa-hand-sparkles fa-w-20" role="img" xmlns="http://www.w3.org/2000/svg" viewBox="0 0 640 512"><path fill="currentColor" d="M471.38,467.5l-1-.43-1-.49a37.63,37.63,0,0,1-6.06-4.23,31.74,31.74,0,0,1-9.47,1.65H273.14a32.29,32.29,0,0,1-26.69-14.3L132.34,277.8c-18-25.71,20.7-54.1,39.3-27.5l37.81,54.4c4.5,6.5,14.59,3.21,14.59-4.61V104c0-31.8,48-31.7,48,0V248a8,8,0,0,0,8,8h16a8,8,0,0,0,8-8V72c0-31.8,48-31.7,48,0V248a8,8,0,0,0,8,8h16a8,8,0,0,0,8-8V104c0-31.8,48-31.7,48,0V248a8,8,0,0,0,8,8h16a8,8,0,0,0,8-8V184c0-31.8,48-31.7,48,0v88.3a321.9,321.9,0,0,1-6.2,62.79L495.6,386.4l13.27-5.53,15.63-37.49.41-1,.47-.95c5.83-11.74,18-19.6,31-20.92A371.21,371.21,0,0,0,560,272.3V184A71.94,71.94,0,0,0,488,112c-2.7,0-5.4.2-8,.41V104a72.08,72.08,0,0,0-72-72,70.77,70.77,0,0,0-18.59,2.41,72,72,0,0,0-122.81,0A70.79,70.79,0,0,0,248,32a72.08,72.08,0,0,0-72,72v92.09c-10.5-3.68-38.09-10.18-65.29,8.91A72.13,72.13,0,0,0,93,305.3l113.5,171a79.81,79.81,0,0,0,66.6,35.7H453.75a79.85,79.85,0,0,0,57-24.3l-1.9-4.57ZM86,156.3l20.69-49.63h0l.09,0L156.3,86A7.29,7.29,0,0,0,160,80h0A7.28,7.28,0,0,0,156.3,74L106.73,53.37l-.07,0L86,3.7A6.65,6.65,0,0,0,74,3.7L53.34,53.33l-.05,0L3.7,74A7.28,7.28,0,0,0,0,80H0A7.29,7.29,0,0,0,3.7,86l49.57,20.67.07,0L74,156.3a6.65,6.65,0,0,0,11.92,0ZM307.58,288a4,4,0,0,0-7.15,0L288,317.79l-29.79,12.42a4,4,0,0,0,0,7.15L288,349.78l12.42,29.78a4,4,0,0,0,7.15,0L320,349.78l29.79-12.42a4,4,0,0,0,0-7.15L320,317.79ZM640,432A7.28,7.28,0,0,0,636.3,426l-49.57-20.67-.07,0L566,355.7a6.65,6.65,0,0,0-11.92,0l-20.7,49.63-.05,0L483.7,426A7.28,7.28,0,0,0,480,432h0A7.29,7.29,0,0,0,483.7,438l49.57,20.67.07,0L554,508.3a6.65,6.65,0,0,0,11.92,0l20.69-49.63h0l.09-.05L636.3,438A7.29,7.29,0,0,0,640,432h0Z"></path></svg>