<svg aria-hidden="true" focusable="false" data-prefix="far" data-icon="portal-enter" class="svg-inline--fa fa-portal-enter fa-w-16" role="img" xmlns="http://www.w3.org/2000/svg" viewBox="0 0 512 512"><path fill="currentColor" d="M416,0c-38.68751,0-83.877,34.86808-93.9043,188.8126l-.002-.00586a88.19428,88.19428,0,0,0-64.8125-60.23254l-78.25-17.70258a87.4657,87.4657,0,0,0-73.25,16.21825l-48.375,37.35824a24.00841,24.00841,0,1,0,29.375,37.98321l48.375-37.37386a40.34188,40.34188,0,0,1,33.3125-7.37477l14.875,3.37489-35.3125,87.34109a55.77113,55.77113,0,0,0,23,68.90415l83.78124,50.5922a8.84284,8.84284,0,0,1,3.84376,6.84354,8.72041,8.72041,0,0,1-.3125,2.20306L225.06249,481.40718a23.97436,23.97436,0,0,0,16.46876,29.671,24.99565,24.99565,0,0,0,6.625.92185,23.98662,23.98662,0,0,0,23.0625-17.42134l33.3125-104.46557A56.10341,56.10341,0,0,0,279.625,326.7869L227.78125,295.491l41.9375-104.79367a39.09378,39.09378,0,0,1,6.40625,12.06213l13.96875,45.9361c7.21874,23.67115,28.6875,39.04568,53.40625,39.13943l48.40625.15624H392a23.986,23.986,0,0,0,24-23.90552c.06249-13.26522-10.65625-23.48366-23.93751-23.53053l-23.88085-.084C370.01953,132.87485,390.69922,47.99854,416,47.99854c26.50977,0,48,93.12215,48,207.99365s-21.49023,207.99365-48,207.99365c-21.35352,0-39.42773-60.45909-45.66016-143.99561h-48.4375C328.01367,418.1845,350.87305,511.98438,416,511.98438c43.79492,0,96-44.41271,96-255.99219C512,139.20864,495.3457,0,416,0ZM272.15625,95.99707A47.99855,47.99855,0,1,0,224.125,47.99854,48.02832,48.02832,0,0,0,272.15625,95.99707Zm-146,220.85264L106.3125,363.12954a8.0132,8.0132,0,0,1-7.34375,4.85923H24a23.99927,23.99927,0,1,0,0,47.99854H98.96875a55.99645,55.99645,0,0,0,51.5-33.93647L164,350.44243l-9.5625-5.76545A87.55881,87.55881,0,0,1,126.15625,316.84971Z"></path></svg>