<svg aria-hidden="true" focusable="false" data-prefix="far" data-icon="badge-check" class="svg-inline--fa fa-badge-check fa-w-16" role="img" xmlns="http://www.w3.org/2000/svg" viewBox="0 0 512 512"><path fill="currentColor" d="M332.73 178.37c-3.85-3.88-10.11-3.9-13.98-.06l-87.36 86.66-37.88-38.19c-3.84-3.88-10.11-3.9-13.98-.06l-23.4 23.21c-3.88 3.85-3.9 10.11-.06 13.98l68.05 68.6c3.85 3.88 10.11 3.9 13.98.06l117.78-116.83c3.88-3.85 3.9-10.11.06-13.98l-23.21-23.39zM512 256c0-36.5-18.8-68.4-46.7-86.7 6.8-32.9-2.7-68.7-28.3-94.3-25.6-25.7-61.5-35.1-94.3-28.3C324.2 18.7 292.3 0 256 0s-68.3 18.7-86.7 46.7C136.4 39.9 100.6 49.4 75 75c-25.7 25.6-35.1 61.5-28.3 94.3C18.6 187.8 0 219.8 0 256c0 36.3 18.7 68.3 46.7 86.7-6.8 32.9 2.7 68.7 28.3 94.3 25.6 25.7 61.2 35.1 94.3 28.3 18.5 28.1 50.5 46.7 86.7 46.7 36.4 0 68.3-18.8 86.7-46.7 33.1 6.8 68.7-2.7 94.3-28.3 25.7-25.6 35.1-61.5 28.3-94.3 28.1-18.5 46.7-50.5 46.7-86.7zm-108.3 61.3c9.1 19.9 30.3 54.8-.7 85.8-28 28-55.3 14.5-85.8.7-7.7 20.6-17.3 60.2-61.2 60.2-45.3 0-54.7-42.8-61.2-60.2-21.1 9.6-54.9 30.2-85.9-.8-32-32-8.4-68.9-.7-85.8C87.6 309.5 48 299.9 48 256c0-45.3 42.8-54.7 60.3-61.3-9.1-19.9-30.3-54.8.7-85.8 32-32 68.9-8.4 85.8-.7C202.5 87.6 212.1 48 256 48c45.3 0 54.7 42.8 61.2 60.4 19.9-9.1 54.8-30.3 85.8.7 32 32 8.4 68.9.7 85.8 20.6 7.7 60.2 17.3 60.2 61.2 0 45.3-42.8 54.7-60.2 61.2z"></path></svg>