<svg aria-hidden="true" focusable="false" data-prefix="far" data-icon="comet" class="svg-inline--fa fa-comet fa-w-16" role="img" xmlns="http://www.w3.org/2000/svg" viewBox="0 0 512 512"><path fill="currentColor" d="M308.422,263.93781l-61.1094-8.92187L219.961,199.48281a13.37629,13.37629,0,0,0-24.01563,0l-27.35353,55.53313-61.10939,8.92187a13.40072,13.40072,0,0,0-7.40625,22.86911l44.26173,43.166-10.4961,61.01164a13.38,13.38,0,0,0,19.416,14.11913l54.69533-28.81051,54.69533,28.81051a13.386,13.386,0,0,0,19.416-14.11913L271.631,329.97288l44.25392-43.166A13.4298,13.4298,0,0,0,308.422,263.93781ZM502.34978,9.75648a32.86732,32.86732,0,0,0-33.0879-8.29687c-28.4004,8.5-94.98245,29.18356-153.252,52.291a38.60717,38.60717,0,0,0-53.8965-20.29489c-42.21095,21.998-146.28325,79.17959-203.461,136.283-78.20315,78.19522-78.20315,205.36889,0,283.56411a200.55452,200.55452,0,0,0,283.53916,0c57.084-56.99407,114.38481-161.28105,136.38091-203.36889a38.52636,38.52636,0,0,0-20.40235-53.90033c23.1836-58.49407,43.8047-124.89438,52.30275-153.18731A32.66975,32.66975,0,0,0,502.34978,9.75648Zm-71.5801,227.97433c-23.90235,44.79291-73.98635,133.18929-122.47661,181.57594a152.39983,152.39983,0,0,1-215.64655,0c-59.39456-59.49406-59.39456-156.1873,0-215.68137,49.084-49.08783,141.754-101.08191,181.6524-122.3768,2.446,8.03684,4.29138,14.41977,10.998,37.38667l24.90236-10.68749c47.584-20.40427,107.3848-40.19917,146.28325-52.40032-12.2168,38.79292-31.9004,98.39636-52.3965,146.28107l-10.7168,24.90426C421.60232,235.09874,424.78362,236.06512,430.76968,237.73081Z"></path></svg>