<svg aria-hidden="true" focusable="false" data-prefix="far" data-icon="rocket-launch" class="svg-inline--fa fa-rocket-launch fa-w-16" role="img" xmlns="http://www.w3.org/2000/svg" viewBox="0 0 512 512"><path fill="currentColor" d="M35.68523,352.06641C9.82784,377.91992-2.94948,442.59375.5759,511.41016c69.11514,3.55859,133.61115-9.35157,159.365-35.10547,40.289-40.2793,42.8769-93.98633,6.31054-130.54883C129.68706,309.19727,75.97033,311.78516,35.68523,352.06641Zm81.6327,84.03125c-8.58592,8.584-30.08394,12.88672-53.11907,11.69922-1.17382-22.93555,3.084-44.49219,11.70311-53.10938,13.42772-13.42578,31.33-14.28906,43.51752-2.10352C131.607,404.77148,130.74565,422.67188,117.31793,436.09766ZM505.16311,19.29688c-1.17578-5.4629-6.98827-11.26563-12.45115-12.4336C460.6163,0,435.464,0,410.4191,0,307.20049,0,245.30018,55.20312,199.09126,128H94.88827c-16.29685,0-35.59956,11.92383-42.88861,26.49805L2.57785,253.29688A28.4,28.4,0,0,0,.06223,264,24.00826,24.00826,0,0,0,24.0661,288h103.953a96.00635,96.00635,0,0,1,96.01354,96V488a24.00826,24.00826,0,0,0,24.00388,24,28.53983,28.53983,0,0,0,10.70311-2.51562l98.74791-49.40626c14.56053-7.28515,26.47457-26.56445,26.47457-42.84374V312.79688c72.5878-46.3125,128.01936-108.40626,128.01936-211.09376C512.07521,76.55273,512.07521,51.40234,505.16311,19.29688ZM358.13792,272.332c-25.332,16.16211-7.50585,6.74024-99.31627,52.209a144.4818,144.4818,0,0,0-71.41006-71.36719c45.373-91.6836,35.89643-73.75,52.21282-99.45313C286.66341,79.61719,337.74146,48,410.4191,48c17.64841,0,33.541,0,51.373,2.248,2.30468,18.26367,2.24413,34.46875,2.18163,51.45507C463.97371,173.97266,432.32141,225.002,358.13792,272.332ZM368.05587,104a40,40,0,1,0,40.00581,40A40.01947,40.01947,0,0,0,368.05587,104Z"></path></svg>