<svg aria-hidden="true" focusable="false" data-prefix="far" data-icon="user-visor" class="svg-inline--fa fa-user-visor fa-w-14" role="img" xmlns="http://www.w3.org/2000/svg" viewBox="0 0 448 512"><path fill="currentColor" d="M313.59375,304c-28.6875,0-42.5,16-89.59375,16s-60.8125-16-89.59375-16A134.43133,134.43133,0,0,0,0,438.40625V464a48.01238,48.01238,0,0,0,48,48H400a48.01238,48.01238,0,0,0,48-48V438.40625A134.43133,134.43133,0,0,0,313.59375,304ZM400,464H48V438.40625A86.55945,86.55945,0,0,1,134.40625,352C149,352,172.6875,368,224,368c51.6875,0,74.90625-16,89.59375-16A86.55945,86.55945,0,0,1,400,438.40625ZM322.44141,362.66406a3.53,3.53,0,0,0-2.69532,1.23633c-17.61132,20.42969-28.27734,47.19531-31.72265,79.55664a3.55509,3.55509,0,0,0,5.72265,3.18164c22.084-17.18164,30-21.168,32.918-22.05664a5.98,5.98,0,0,1,1.22266-.334c2.332,2.07031,7.27734,7.627,17.666,22.252a3.51185,3.51185,0,0,0,2.88868,1.5,3.63354,3.63354,0,0,0,1.14062-.18164,3.56782,3.56782,0,0,0,2.416-3.48633c-1.02735-31.40234-10.02735-58.4043-26.72266-80.26562A4.00227,4.00227,0,0,0,322.44141,362.66406ZM88.33789,190.45312C107.73828,247.05078,160.82422,288,224,288s116.26172-40.94922,135.66211-97.54688C373.52734,186.94336,384,174.95508,384,160V96a31.99908,31.99908,0,0,0-32-32h-8.31641a143.90751,143.90751,0,0,0-239.36718,0H96A31.99908,31.99908,0,0,0,64,96v64C64,174.95508,74.47266,186.94336,88.33789,190.45312ZM224,240c-35.37305,0-65.99023-19.44531-82.64453-48H306.64453C289.99023,220.55469,259.37305,240,224,240Zm0-192a95.35439,95.35439,0,0,1,52.86719,16H171.13281A95.35439,95.35439,0,0,1,224,48ZM112,112H336v32H112Z"></path></svg>