<svg xmlns="http://www.w3.org/2000/svg" viewBox="0 0 640 640" fill="currentColor"><!--!Font Awesome Pro v7.2.0 by @fontawesome - https://fontawesome.com License - https://fontawesome.com/license (Commercial License) Copyright 2026 Fonticons, Inc.--><path opacity=".4" d="M144 400C144 391.2 151.2 384 160 384L210.2 384L162.2 336L230.1 336L303.1 409C312.5 418.4 327.7 418.4 337 409L410 336L477.9 336L429.9 384L480.1 384C488.9 384 496.1 391.2 496.1 400L496.1 480C496.1 488.8 488.9 496 480.1 496L160 496C151.2 496 144 488.8 144 480L144 400zM416 440C416 453.3 426.7 464 440 464C453.3 464 464 453.3 464 440C464 426.7 453.3 416 440 416C426.7 416 416 426.7 416 440z"/><path d="M344 88C344 74.7 333.3 64 320 64C306.7 64 296 74.7 296 88L296 334.1L233 271.1C223.6 261.7 208.4 261.7 199.1 271.1C189.8 280.5 189.7 295.7 199.1 305L303 409C312.4 418.4 327.6 418.4 336.9 409L441 305C450.4 295.6 450.4 280.4 441 271.1C431.6 261.8 416.4 261.7 407.1 271.1L344.1 334.1L344.1 88zM162.2 336L160 336C124.7 336 96 364.7 96 400L96 480C96 515.3 124.7 544 160 544L480 544C515.3 544 544 515.3 544 480L544 400C544 364.7 515.3 336 480 336L477.8 336L429.8 384L480 384C488.8 384 496 391.2 496 400L496 480C496 488.8 488.8 496 480 496L160 496C151.2 496 144 488.8 144 480L144 400C144 391.2 151.2 384 160 384L210.2 384L162.2 336zM464 440C464 426.7 453.3 416 440 416C426.7 416 416 426.7 416 440C416 453.3 426.7 464 440 464C453.3 464 464 453.3 464 440z"/></svg>