<svg xmlns="http://www.w3.org/2000/svg" viewBox="0 0 640 640" fill="currentColor"><!--!Font Awesome Pro v7.2.0 by @fontawesome - https://fontawesome.com License - https://fontawesome.com/license (Commercial License) Copyright 2026 Fonticons, Inc.--><path opacity=".4" d="M112.3 128L112.3 160L192.3 160L192.3 128C192.3 119.2 185.1 112 176.3 112L128.3 112C119.5 112 112.3 119.2 112.3 128zM112.3 208L112.3 432L192.3 432L192.3 208L112.3 208zM112.3 480L112.3 512C112.3 520.8 119.5 528 128.3 528L176.3 528C185.1 528 192.3 520.8 192.3 512L192.3 480L112.3 480zM240.3 192L240.3 512C240.3 520.8 247.5 528 256.3 528L304.3 528C313.1 528 320.3 520.8 320.3 512L320.3 192C320.3 183.2 313.1 176 304.3 176L256.3 176C247.5 176 240.3 183.2 240.3 192zM363.8 145.4L372.1 176.3L449.4 155.6L441.1 124.7C438.8 116.2 430 111.1 421.5 113.4L375.1 125.8C366.6 128.1 361.5 136.9 363.8 145.4zM384.5 222.7L442.5 439.1L519.8 418.4L461.8 202L384.5 222.7zM454.9 485.4L463.2 516.3C465.5 524.8 474.3 529.9 482.8 527.6L529.2 515.2C537.7 512.9 542.8 504.1 540.5 495.6L532.2 464.7L454.9 485.4z"/><path d="M128.3 112L176.3 112C185.1 112 192.3 119.2 192.3 128L192.3 160L112.3 160L112.3 128C112.3 119.2 119.5 112 128.3 112zM112.3 208L192.3 208L192.3 432L112.3 432L112.3 208zM240.3 130L240.3 128C240.3 92.7 211.6 64 176.3 64L128.3 64C93 64 64.3 92.7 64.3 128L64.3 512C64.3 547.3 93 576 128.3 576L176.3 576C191.4 576 205.3 570.7 216.3 562C227.3 570.8 241.2 576 256.3 576L304.3 576C339.6 576 368.3 547.3 368.3 512L368.3 347.6L416.9 528.8C426 562.9 461.1 583.2 495.3 574.1L541.7 561.7C575.8 552.6 596.1 517.5 587 483.3L487.4 112.3C478.3 78.2 443.2 57.9 409 67.1L362.7 79.5C338.3 86 320.9 105.9 316.4 129.2C312.5 128.4 308.4 128.1 304.3 128.1L256.3 128.1C250.8 128.1 245.4 128.8 240.3 130.1zM240.3 192C240.3 183.2 247.5 176 256.3 176L304.3 176C313.1 176 320.3 183.2 320.3 192L320.3 512C320.3 520.8 313.1 528 304.3 528L256.3 528C247.5 528 240.3 520.8 240.3 512L240.3 192zM192.3 512C192.3 520.8 185.1 528 176.3 528L128.3 528C119.5 528 112.3 520.8 112.3 512L112.3 480L192.3 480L192.3 512zM421.5 113.4C430 111.1 438.8 116.2 441.1 124.7L449.4 155.6L372.1 176.3L363.8 145.4C361.5 136.9 366.6 128.1 375.1 125.8L421.5 113.4zM442.5 439.1L384.5 222.7L461.8 202L519.8 418.4L442.5 439.1zM454.9 485.5L532.2 464.8L540.5 495.7C542.8 504.2 537.7 513 529.2 515.3L482.8 527.7C474.3 530 465.5 524.9 463.2 516.4L454.9 485.5z"/></svg>