<svg aria-hidden="true" focusable="false" data-prefix="far" data-icon="swatchbook" class="svg-inline--fa fa-swatchbook fa-w-16" role="img" xmlns="http://www.w3.org/2000/svg" viewBox="0 0 512 512"><path fill="currentColor" d="M112 424c13.25 0 24-10.75 24-24 0-13.26-10.75-24-24-24s-24 10.74-24 24c0 13.25 10.75 24 24 24zm368-136h-97.61l69.02-69.02c12.5-12.5 12.5-32.76 0-45.25L338.27 60.59c-6.25-6.25-14.44-9.37-22.63-9.37s-16.38 3.12-22.63 9.37L224 129.61V32c0-17.67-14.33-32-32-32H32C14.33 0 0 14.33 0 32v368c0 61.86 50.14 112 112 112h368c17.67 0 32-14.33 32-32V320c0-17.67-14.33-32-32-32zM176 400c0 17.88-7.41 34.03-19.27 45.65-3.65 3.57-7.7 6.53-11.99 9.05-.86.51-1.76.96-2.64 1.43-4.47 2.34-9.12 4.31-14.02 5.57-5.16 1.35-10.48 2.29-16.06 2.29H112c-35.29 0-64-28.71-64-64v-96h128V400zm0-144H48v-80h128v80zm0-128H48V48h128v80zm48 69.49l91.65-91.65 90.51 90.51L224 378.51V197.49zM464 464H206.39l128-128H464v128z"></path></svg>