<svg aria-hidden="true" focusable="false" data-prefix="fal" data-icon="download" class="svg-inline--fa fa-download fa-w-16" role="img" xmlns="http://www.w3.org/2000/svg" viewBox="0 0 512 512"><path fill="currentColor" d="M452 432c0 11-9 20-20 20s-20-9-20-20 9-20 20-20 20 9 20 20zm-84-20c-11 0-20 9-20 20s9 20 20 20 20-9 20-20-9-20-20-20zm144-48v104c0 24.3-19.7 44-44 44H44c-24.3 0-44-19.7-44-44V364c0-24.3 19.7-44 44-44h99.4L87 263.6c-25.2-25.2-7.3-68.3 28.3-68.3H168V40c0-22.1 17.9-40 40-40h96c22.1 0 40 17.9 40 40v155.3h52.7c35.6 0 53.4 43.1 28.3 68.3L368.6 320H468c24.3 0 44 19.7 44 44zm-261.7 17.7c3.1 3.1 8.2 3.1 11.3 0L402.3 241c5-5 1.5-13.7-5.7-13.7H312V40c0-4.4-3.6-8-8-8h-96c-4.4 0-8 3.6-8 8v187.3h-84.7c-7.1 0-10.7 8.6-5.7 13.7l140.7 140.7zM480 364c0-6.6-5.4-12-12-12H336.6l-52.3 52.3c-15.6 15.6-41 15.6-56.6 0L175.4 352H44c-6.6 0-12 5.4-12 12v104c0 6.6 5.4 12 12 12h424c6.6 0 12-5.4 12-12V364z"></path></svg>