<svg xmlns="http://www.w3.org/2000/svg" viewBox="0 0 640 640"><path fill="currentcolor" d="M341.5 64C358.5 64 374.8 70.8 386.8 82.8L493.3 189.2C505.3 201.2 512 217.5 512 234.4L512 512C512 547.3 483.3 576 448 576L192 576C156.7 576 128 547.3 128 512L128 128C128 92.7 156.7 64 192 64L341.5 64zM248 292C228.1 292 212 308.1 212 328L212 356.4L185.1 386.7C178.4 394.3 178.4 405.7 185.1 413.3L212 443.6L212 472C212 491.9 228.1 508 248 508L264 508C275 508 284 499 284 488C284 477 275 468 264 468L252 468L252 442.1C252 434.4 249.5 426.9 245 420.7L242.9 418.1L226.7 399.9L242.9 381.7L245 379.1C249.5 372.9 252 365.4 252 357.7L252 331.8L264 331.8C275 331.8 284 322.8 284 311.8C284 300.8 275 291.8 264 291.8L248 291.8zM376 292C365 292 356 301 356 312C356 323 365 332 376 332L388 332L388 357.9C388 365.6 390.5 373.1 395 379.3L397.1 381.9L413.3 400.1L397.1 418.3L395 420.9C390.5 427.1 388 434.6 388 442.3L388 468.2L376 468.2C365 468.2 356 477.2 356 488.2C356 499.2 365 508.2 376 508.2L392 508.2C411.9 508.2 428 492.1 428 472.2L428 443.8L454.9 413.5C461.6 405.9 461.6 394.5 454.9 386.9L428 356.4L428 328C428 308.1 411.9 292 392 292L376 292zM336 216C336 229.3 346.7 240 360 240L453.5 240L336 122.5L336 216z"/></svg>
