<svg aria-hidden="true" focusable="false" data-prefix="far" data-icon="memory" class="svg-inline--fa fa-memory fa-w-20" role="img" xmlns="http://www.w3.org/2000/svg" viewBox="0 0 640 512"><path fill="currentColor" d="M480 160h-64v128h64V160zm-128 0h-64v128h64V160zm-128 0h-64v128h64V160zm408 0h8V96c0-17.67-14.33-32-32-32H32C14.33 64 0 78.33 0 96v64h8c13.26 0 24 10.74 24 24 0 13.25-10.74 24-24 24H0v240h640V208h-8c-13.25 0-24-10.75-24-24 0-13.26 10.75-24 24-24zm-40 240h-64c0-8.84-7.16-16-16-16s-16 7.16-16 16h-96c0-8.84-7.16-16-16-16s-16 7.16-16 16h-96c0-8.84-7.16-16-16-16s-16 7.16-16 16h-96c0-8.84-7.16-16-16-16s-16 7.16-16 16H48v-48h544v48zm0-275.84c-19.29 12.93-32 34.93-32 59.84s12.71 46.91 32 59.84V320H48v-76.16c19.29-12.93 32-34.93 32-59.84s-12.71-46.91-32-59.84V112h544v12.16z"></path></svg>