<svg aria-hidden="true" focusable="false" data-prefix="far" data-icon="cogs" class="svg-inline--fa fa-cogs fa-w-20" role="img" xmlns="http://www.w3.org/2000/svg" viewBox="0 0 640 512"><path fill="currentColor" d="M217.1 478.1c-23.8 0-41.6-3.5-57.5-7.5-10.6-2.7-18.1-12.3-18.1-23.3v-31.7c-9.4-4.4-18.4-9.6-26.9-15.6l-26.7 15.4c-9.6 5.6-21.9 3.8-29.5-4.3-35.4-37.6-44.2-58.6-57.2-98.5-3.6-10.9 1.1-22.7 11-28.4l26.8-15c-.9-10.3-.9-20.7 0-31.1L12.2 223c-10-5.6-14.6-17.5-11-28.4 13.1-40 21.9-60.9 57.2-98.5 7.6-8.1 19.8-9.9 29.5-4.3l26.7 15.4c8.5-6 17.5-11.2 26.9-15.6V61.4c0-11.1 7.6-20.8 18.4-23.3 44.2-10.5 70-10.5 114.3 0 10.8 2.6 18.4 12.2 18.4 23.3v30.4c9.4 4.4 18.4 9.6 26.9 15.6L346.2 92c9.7-5.6 21.9-3.7 29.6 4.4 26.1 27.9 48.4 58.5 56.8 100.3 2 9.8-2.4 19.8-10.9 25.1l-26.6 16.5c.9 10.3.9 20.7 0 31.1l26.6 16.5c8.4 5.2 12.9 15.2 10.9 24.9-8.1 40.5-29.6 71.3-56.9 100.6-7.6 8.1-19.8 9.9-29.5 4.3l-26.7-15.4c-8.5 6-17.5 11.2-26.9 15.6v31.7c0 11-7.4 20.6-18.1 23.3-15.8 3.8-33.6 7.2-57.4 7.2zm-27.6-50.7c18.3 2.9 36.9 2.9 55.1 0v-44.8l16-5.7c15.2-5.4 29.1-13.4 41.3-23.9l12.9-11 38.8 22.4c11.7-14.4 21-30.5 27.6-47.7l-38.8-22.4 3.1-16.7c2.9-15.9 2.9-32 0-47.9l-3.1-16.7 38.8-22.4c-6.6-17.2-15.9-33.3-27.6-47.7l-38.8 22.4-12.9-11c-12.3-10.5-26.2-18.6-41.3-23.9l-16-5.7V80c-18.3-2.9-36.9-2.9-55.1 0v44.8l-16 5.7c-15.2 5.4-29.1 13.4-41.3 23.9l-12.9 11L80.5 143c-11.7 14.4-21 30.5-27.6 47.7l38.8 22.4-3.1 16.7c-2.9 15.9-2.9 32 0 47.9l3.1 16.7-38.8 22.4c6.6 17.2 15.9 33.4 27.6 47.7l38.8-22.4 12.9 11c12.3 10.5 26.2 18.6 41.3 23.9l16 5.7v44.7zm27.1-85.1c-22.6 0-45.2-8.6-62.4-25.8-34.4-34.4-34.4-90.4 0-124.8 34.4-34.4 90.4-34.4 124.8 0 34.4 34.4 34.4 90.4 0 124.8-17.3 17.2-39.9 25.8-62.4 25.8zm0-128.4c-10.3 0-20.6 3.9-28.5 11.8-15.7 15.7-15.7 41.2 0 56.9 15.7 15.7 41.2 15.7 56.9 0 15.7-15.7 15.7-41.2 0-56.9-7.8-7.9-18.1-11.8-28.4-11.8zM638.5 85c-1-5.8-6-10-11.9-10h-16.1c-3.5-9.9-8.8-19-15.5-26.8l8-13.9c2.9-5.1 1.8-11.6-2.7-15.3C591 11.3 580.5 5.1 569 .8c-5.5-2.1-11.8.1-14.7 5.3l-8 13.9c-10.2-1.9-20.7-1.9-30.9 0l-8-13.9c-3-5.1-9.2-7.3-14.7-5.3-11.5 4.3-22.1 10.5-31.4 18.2-4.5 3.7-5.7 10.2-2.7 15.3l8 13.9c-6.7 7.8-12 16.9-15.5 26.8H435c-5.9 0-11 4.3-11.9 10.2-2 12.2-1.9 24.5 0 36.2 1 5.8 6 10 11.9 10h16.1c3.5 9.9 8.8 19 15.5 26.8l-8 13.9c-2.9 5.1-1.8 11.6 2.7 15.3 9.3 7.7 19.9 13.9 31.4 18.2 5.5 2.1 11.8-.1 14.7-5.3l8-13.9c10.2 1.9 20.7 1.9 30.9 0l8 13.9c3 5.1 9.2 7.3 14.7 5.3 11.5-4.3 22.1-10.5 31.4-18.2 4.5-3.7 5.7-10.2 2.7-15.3l-8-13.9c6.7-7.8 12-16.9 15.5-26.8h16.1c5.9 0 11-4.3 11.9-10.2 1.9-12.2 1.9-24.4-.1-36.2zm-107.8 50.2c-17.7 0-32-14.3-32-32s14.3-32 32-32 32 14.3 32 32-14.3 32-32 32zm107.8 255.4c-1-5.8-6-10-11.9-10h-16.1c-3.5-9.9-8.8-19-15.5-26.8l8-13.9c2.9-5.1 1.8-11.6-2.7-15.3-9.3-7.7-19.9-13.9-31.4-18.2-5.5-2.1-11.8.1-14.7 5.3l-8 13.9c-10.2-1.9-20.7-1.9-30.9 0l-8-13.9c-3-5.1-9.2-7.3-14.7-5.3-11.5 4.3-22.1 10.5-31.4 18.2-4.5 3.7-5.7 10.2-2.7 15.3l8 13.9c-6.7 7.8-12 16.9-15.5 26.8h-16.1c-5.9 0-11 4.3-11.9 10.2-2 12.2-1.9 24.5 0 36.2 1 5.8 6 10 11.9 10H451c3.5 9.9 8.8 19 15.5 26.8l-8 13.9c-2.9 5.1-1.8 11.6 2.7 15.3 9.3 7.7 19.9 13.9 31.4 18.2 5.5 2.1 11.8-.1 14.7-5.3l8-13.9c10.2 1.9 20.7 1.9 30.9 0l8 13.9c3 5.1 9.2 7.3 14.7 5.3 11.5-4.3 22.1-10.5 31.4-18.2 4.5-3.7 5.7-10.2 2.7-15.3l-8-13.9c6.7-7.8 12-16.9 15.5-26.8h16.1c5.9 0 11-4.3 11.9-10.2 2-12.1 2-24.4 0-36.2zm-107.8 50.2c-17.7 0-32-14.3-32-32s14.3-32 32-32 32 14.3 32 32-14.3 32-32 32z"></path></svg>