<svg aria-hidden="true" focusable="false" role="img" xmlns="http://www.w3.org/2000/svg" viewBox="0 0 512 512"><path fill="currentColor" d="M48 32C21.49 32 0 53.49 0 80v144c0 8.84 7.16 16 16 16h208c8.84 0 16-7.16 16-16V80c0-26.51-21.49-48-48-48H48zm240 0c-8.84 0-16 7.16-16 16v96c0 8.84 7.16 16 16 16h176c26.51 0 48-21.49 48-48V80c0-26.51-21.49-48-48-48H288zm0 160c-8.84 0-16 7.16-16 16v224c0 26.51 21.49 48 48 48h144c26.51 0 48-21.49 48-48V208c0-8.84-7.16-16-16-16H288zM16 272c-8.84 0-16 7.16-16 16v144c0 26.51 21.49 48 48 48h176c8.84 0 16-7.16 16-16V288c0-8.84-7.16-16-16-16H16z"></path></svg>
