<svg aria-hidden="true" focusable="false" data-prefix="far" data-icon="box-open" class="svg-inline--fa fa-box-open fa-w-20" role="img" xmlns="http://www.w3.org/2000/svg" viewBox="0 0 640 512"><path fill="currentColor" d="M638.3 143.8L586.8 41c-4-8-12.1-9.5-16.7-8.9L320 64 69.8 32.1c-4.6-.6-12.6.9-16.6 8.9L1.7 143.8c-4.6 9.2.3 20.2 10.1 23L64 181.7V393c0 14.7 10 27.5 24.2 31l216.2 54.1c6 1.5 17.4 3.4 31 0L551.8 424c14.2-3.6 24.2-16.4 24.2-31V181.7l52.1-14.9c9.9-2.8 14.7-13.8 10.2-23zM86 82.6l154.8 19.7-41.2 68.3-138-39.4L86 82.6zm26 112.8l97.8 27.9c8 2.3 15.2-1.8 18.5-7.3L296 103.8v322.7l-184-46V195.4zm416 185.1l-184 46V103.8l67.7 112.3c3.3 5.5 10.6 9.6 18.5 7.3l97.8-27.9v185zm-87.7-209.9l-41.2-68.3L554 82.6l24.3 48.6-138 39.4z"></path></svg>