<svg aria-hidden="true" focusable="false" data-prefix="far" data-icon="briefcase" class="svg-inline--fa fa-briefcase fa-w-16" role="img" xmlns="http://www.w3.org/2000/svg" viewBox="0 0 512 512"><path fill="currentColor" d="M464 128h-80V80c0-26.51-21.49-48-48-48H176c-26.51 0-48 21.49-48 48v48H48c-26.51 0-48 21.49-48 48v256c0 26.51 21.49 48 48 48h416c26.51 0 48-21.49 48-48V176c0-26.51-21.49-48-48-48zM176 80h160v48H176V80zM54 176h404c3.31 0 6 2.69 6 6v74H48v-74c0-3.31 2.69-6 6-6zm404 256H54c-3.31 0-6-2.69-6-6V304h144v24c0 13.25 10.75 24 24 24h80c13.25 0 24-10.75 24-24v-24h144v122c0 3.31-2.69 6-6 6z"></path></svg>