<svg aria-hidden="true" focusable="false" data-prefix="far" data-icon="paste" class="svg-inline--fa fa-paste fa-w-14" role="img" xmlns="http://www.w3.org/2000/svg" viewBox="0 0 448 512"><path fill="currentColor" d="M433.941 193.941l-51.882-51.882A48 48 0 0 0 348.118 128H320V80c0-26.51-21.49-48-48-48h-61.414C201.582 13.098 182.294 0 160 0s-41.582 13.098-50.586 32H48C21.49 32 0 53.49 0 80v288c0 26.51 21.49 48 48 48h80v48c0 26.51 21.49 48 48 48h224c26.51 0 48-21.49 48-48V227.882a48 48 0 0 0-14.059-33.941zm-84.066-16.184l48.368 48.368a6 6 0 0 1 1.757 4.243V240h-64v-64h9.632a6 6 0 0 1 4.243 1.757zM160 38c9.941 0 18 8.059 18 18s-8.059 18-18 18-18-8.059-18-18 8.059-18 18-18zm-32 138v192H54a6 6 0 0 1-6-6V86a6 6 0 0 1 6-6h55.414c9.004 18.902 28.292 32 50.586 32s41.582-13.098 50.586-32H266a6 6 0 0 1 6 6v42h-96c-26.51 0-48 21.49-48 48zm266 288H182a6 6 0 0 1-6-6V182a6 6 0 0 1 6-6h106v88c0 13.255 10.745 24 24 24h88v170a6 6 0 0 1-6 6z"></path></svg>