<svg viewBox="0 0 512 512.00203" xmlns="http://www.w3.org/2000/svg"><path d="m333.175781 496.832031c-.027343-84.941406-33.117187-164.792969-93.179687-224.855469-60.089844-60.089843-139.980469-93.179687-224.957032-93.179687-.007812 0-.015624 0-.023437 0-.003906 0-.011719 0-.019531 0-8.28125 0-14.996094 6.714844-14.996094 14.996094v95.339843c0 8.28125 6.714844 14.996094 14.996094 14.996094 106.3125 0 192.808594 86.492188 192.808594 192.808594 0 6.265625 3.847656 11.628906 9.308593 13.871094 1.800781.765625 3.785157 1.195312 5.867188 1.195312h.019531l94.042969-.128906c.378906.027344.753906.054688 1.140625.054688 8.28125 0 14.992187-6.710938 14.992187-14.992188 0-.023438 0-.042969 0-.066406 0-.003906 0-.007813 0-.015625 0-.007813 0-.015625 0-.023438zm-160.640625-157.4375c-38.523437-38.527343-88.675781-61.191406-142.542968-64.75v-65.472656c71.347656 3.621094 137.914062 33.125 188.796874 84.011719 50.867188 50.863281 80.367188 117.398437 84.007813 188.71875l-65.507813.089844c-3.546874-53.886719-26.214843-104.058594-64.753906-142.597657zm0 0"/><path d="m67.046875 377.914062c-36.96875 0-67.04296875 30.074219-67.04296875 67.042969s30.07421875 67.042969 67.04296875 67.042969 67.042969-30.074219 67.042969-67.042969-30.074219-67.042969-67.042969-67.042969zm0 104.097657c-20.429687 0-37.054687-16.625-37.054687-37.054688 0-20.433593 16.625-37.054687 37.054687-37.054687s37.054687 16.621094 37.054687 37.054687c0 20.429688-16.621093 37.054688-37.054687 37.054688zm0 0"/><path d="m511.558594 496.4375c0-.003906 0-.007812 0-.015625-.015625-66.976563-13.148438-131.960937-39.027344-193.148437-25.011719-59.132813-60.8125-112.234376-106.410156-157.832032-45.597656-45.601562-98.703125-81.402344-157.835938-106.414062-61.226562-25.894532-126.261718-39.027344-193.289062-39.027344-8.28125 0-14.996094 6.714844-14.996094 14.996094v94.242187c0 8.28125 6.714844 14.996094 14.996094 14.996094 50.269531 0 99.03125 9.84375 144.921875 29.253906 44.335937 18.75 84.15625 45.597657 118.355469 79.800781 34.199218 34.195313 61.046874 74.015626 79.796874 118.351563 19.414063 45.894531 29.253907 94.652344 29.253907 144.921875 0 5.707031 3.191406 10.671875 7.882812 13.203125 2.179688 1.234375 4.691407 1.949219 7.375 1.949219h.039063l92.378906-.238282c.515625.054688 1.035156.082032 1.5625.082032 8.28125 0 14.996094-6.714844 14.996094-14.996094 0-.035156 0-.070312 0-.109375 0-.003906 0-.007813 0-.015625zm-125.863282-156.480469c-20.265624-47.910156-49.273437-90.933593-86.214843-127.875-36.945313-36.945312-79.96875-65.953125-127.878907-86.214843-45.03125-19.046876-92.597656-29.570313-141.609374-31.347657v-64.285156c57.695312 1.804687 113.675781 14.023437 166.609374 36.414063 55.558594 23.5 105.457032 57.144531 148.3125 100 42.851563 42.851562 76.496094 92.75 99.996094 148.308593 22.382813 52.921875 34.605469 108.886719 36.414063 166.566407l-64.28125.164062c-1.765625-49.054688-12.289063-96.664062-31.347657-141.730469zm0 0"/></svg>