<svg viewBox="0 -45 512.00013 512" xmlns="http://www.w3.org/2000/svg"><path d="m194.816406 422.710938c-85.453125 0-152.992187-14.929688-185.304687-40.953126l-.628907-.507812-.570312-.570312c-7.675781-7.679688-10.191406-17.753907-6.894531-27.636719l.300781-.820313c4-10.003906 13.800781-16.738281 24.421875-16.800781 21.859375-.378906 40.984375-2.984375 58.339844-8.042969-27.683594-12.875-46.914063-35.167968-58.355469-67.433594-3.847656-10.0625-.527344-21.21875 8.339844-27.871093 2.1875-1.644531 4.660156-2.886719 7.277344-3.71875-15.382813-17.757813-26.746094-37.964844-33.109376-59.335938l-.199218-.664062-.136719-.679688c-2.160156-10.808593 2.671875-21.921875 11.527344-26.707031 3.714843-2.132812 7.75-3.238281 11.800781-3.332031-4.367188-9.40625-7.542969-19.0625-9.425781-28.777344-5.226563-26.921875-.914063-53.910156 12.8125-80.214844l3.175781-6.351562c2.542969-5.082031 7.402344-8.652344 13.003906-9.5625 5.601563-.90625 11.34375.945312 15.355469 4.957031l5.785156 5.792969c45.703125 47.914062 86.640625 70.648437 157.417969 86.203125 3.160156-27.167969 14.90625-52.421875 33.855469-72.296875 22.550781-23.648438 52.664062-36.917969 84.792969-37.371094h.210937c23.441406 0 52.519531 13.382813 70.105469 22.820313 15.085937-4.9375 33.261718-12.582032 52.121094-20.664063 8.824218-4.140625 19.703124-2.2460938 26.640624 4.691406 6.800782 6.800781 8.6875 16.390625 5.078126 25.710938-1.371094 3.816406-2.925782 7.5625-4.65625 11.226562 2.582031 1.183594 4.945312 2.789063 6.941406 4.785157 6.035156 6.035156 8.550781 15.480468 6.40625 24.066406l-.230469.816406c-7.226563 23.289062-21.109375 42.257812-39.46875 54.164062-3.066406 163.285157-126.027344 295.078126-276.730469 295.078126zm-156.511718-57.675782c30.449218 17.226563 88.476562 27.648438 156.511718 27.648438 65.410156 0 127.136719-28.082032 173.804688-79.074219 47.050781-51.410156 72.960937-119.679687 72.960937-192.234375v-.816406c0-6.570313 3.617188-12.566406 9.4375-15.652344 11.808594-6.253906 21.371094-16.90625 27.589844-30.527344-6.414063 1.011719-12.933594-1.5625-16.929687-6.929687-4.644532-6.238281-4.695313-14.664063-.128907-20.957031 2.464844-3.398438 4.699219-6.933594 6.691407-10.589844-16.285157 6.839844-31.75 12.972656-45.175782 17.046875-4.878906 1.476562-10.316406.898437-14.773437-1.589844-23.902344-13.316406-46.164063-21.277344-59.585938-21.316406-49.527343.757812-89.796875 43.175781-89.796875 94.605469 0 5.316406-2.359375 10.300781-6.464844 13.679687-4.109374 3.375-9.453124 4.726563-14.671874 3.695313-81.609376-16.078126-129.96875-40.1875-180.257813-90.722657-7.207031 17.269531-9.175781 34.664063-5.84375 51.839844 3.378906 17.398437 12.367187 34.832031 25.996094 50.414063 5.179687 5.914062 5.867187 14.375 1.710937 21.050781-4.140625 6.652343-12.011718 9.761719-19.578125 7.734375-5.914062-1.585938-11.351562-3.667969-16.507812-6.34375 10.503906 22.816406 28.570312 43.917968 51.28125 59.480468 6.582031 4.511719 9.332031 12.921876 6.691406 20.453126-2.644531 7.542968-10.03125 12.398437-18.015625 11.804687-8.699219-.644531-16.40625-2.296875-23.5-5.082031 12.734375 25.933594 33.082031 40.203125 64.429688 45.65625 7.464843 1.300781 13.277343 7.195312 14.464843 14.667968 1.191407 7.472657-2.507812 14.878907-9.199219 18.429688-26.71875 14.164062-55.921874 21.765625-91.140624 23.628906zm0 0"/></svg>