<svg viewBox="0 0 512.00059 512" xmlns="http://www.w3.org/2000/svg"><path d="m487.160156 115.148438c-10.972656-13.019532-25.710937-23.84375-43.867187-32.246094-4.066407-10.394532-9.671875-19.863282-16.828125-28.355469-28.609375-33.949219-82.910156-52.644531-152.910156-52.644531-20.957032 0-103.8125-.875-150.429688-1.8945315-18.910156-.3984375-35.574219 12.6679685-39.703125 31.0937495l-82.445313 370.886719c-2.660156 11.855469.171876 24.097657 7.769532 33.585938 7.59375 9.484375 18.921875 14.925781 31.070312 14.925781h24.546875l-2.6875 12.089844c-2.660156 11.855468.171875 24.097656 7.769531 33.585937 7.59375 9.484375 18.921876 14.925781 31.074219 14.925781h99.796875c18.917969 0 35.332032-13.464843 39.035156-32.011718l17.683594-88.546875 93.421875-1.074219.769531-.085938c6.207032-.714843 38.941407-5.480468 73.988282-29.210937 19.988281-13.53125 36.960937-30.757813 50.449218-51.203125 16.445313-24.917969 27.722657-54.695312 33.511719-88.496094 7.484375-43.671875.078125-79.109375-22.015625-105.324218zm-454.976562 301.660156c-1.097656-1.371094-2.804688-4.265625-1.90625-8.28125l82.445312-370.875c1.019532-4.519532 5.121094-7.746094 9.75-7.625 46.789063 1.019531 130.019532 1.898437 151.082032 1.898437 60.109374 0 107.476562 15.296875 129.949218 41.96875 16.125 19.136719 21.300782 46.359375 15.382813 80.902344-9.226563 53.820313-33.179688 94.164063-71.207031 119.910156-28.203126 19.097657-55.203126 23.511719-59.90625 24.15625l-92.8125 1.066407c-14.152344 0-24.90625 8.140624-27.386719 20.710937l-18.363281 91.96875c-.910157 4.558594-4.945313 7.867187-9.59375 7.867187h-99.800782c-4.085937 0-6.539062-2.300781-7.632812-3.667968zm447.398437-201.410156c-9.222656 53.820312-33.175781 94.164062-71.203125 119.910156-28.203125 19.097656-55.203125 23.511718-59.90625 24.15625l-92.8125 1.066406c-14.152344 0-24.90625 8.140625-27.386718 20.710938l-18.363282 91.96875c-.910156 4.558593-4.945312 7.867187-9.59375 7.867187h-99.796875c-4.089843 0-6.539062-2.296875-7.636719-3.667969-1.097656-1.371094-2.804687-4.265625-1.90625-8.28125l4.144532-18.628906h44.5c18.914062 0 35.332031-13.464844 39.035156-32.011719l17.679688-88.550781 93.421874-1.070312.769532-.085938c6.207031-.714844 38.941406-5.480469 73.988281-29.210938 19.988281-13.535156 36.960937-30.761718 50.453125-51.203124 16.441406-24.921876 27.71875-54.695313 33.507812-88.5 2.28125-13.3125 3.171876-25.855469 2.691407-37.609376 4.976562 3.765626 9.335937 7.847657 13.035156 12.234376 16.125 19.140624 21.300781 46.363281 15.378906 80.90625zm0 0"/></svg>