<svg viewBox="-37 0 512 512" xmlns="http://www.w3.org/2000/svg"><path d="m82.285156 342.90625h-52.355468c-10.789063 0-20.457032-5.578125-25.863282-14.917969-5.40625-9.335937-5.421875-20.5-.046875-29.855469l72.34375-125.898437-33.152343-70.441406c-4.382813-9.308594-3.707032-20.050781 1.804687-28.738281s14.941406-13.871094 25.230469-13.871094h54.003906c11.480469 0 22.082031 6.703125 27 17.078125l39.53125 83.351562c4.21875 8.890625 3.789062 19.277344-1.144531 27.789063l-81.496094 140.605468c-5.328125 9.1875-15.234375 14.898438-25.855469 14.898438zm-52.019531-30.082031 51.910156.003906 81.386719-140.421875-39.433594-83.144531h-53.574218l33.441406 71.054687c3.964844 8.238282 3.617187 17.882813-.933594 25.820313zm0 0"/><path d="m359.492188 512h-52.308594c-10.582032 0-20.46875-5.675781-25.804688-14.8125l-98.90625-169.347656c-8.839844-15.132813-9.011718-34.035156-.453125-49.332032h.003907l147.386718-263.222656c5.277344-9.429687 15.265625-15.285156 26.070313-15.285156h53.476562c10.71875 0 20.359375 5.519531 25.78125 14.769531 5.421875 9.246094 5.53125 20.351563.296875 29.707031l-144.84375 258.816407 95.140625 163.816406c5.4375 9.355469 5.457031 20.539063.058594 29.917969-5.398437 9.375-15.078125 14.972656-25.898437 14.972656zm-52.195313-30.078125h51.859375l-95.640625-164.675781c-4.902344-8.445313-4.984375-18.976563-.214844-27.484375l145.328125-259.683594h-53.035156l-147.328125 263.125c-3.378906 6.035156-3.308594 13.496094.179687 19.46875zm0 0"/></svg>