<svg viewBox="0 0 512 512.00006" xmlns="http://www.w3.org/2000/svg"><path d="m491.746094 512c-.914063 0-1.832032-.0625-2.75-.191406l-238.054688-33.496094c-9.667968-1.355469-16.957031-9.746094-16.957031-19.507812v-172.972657c0-10.863281 8.839844-19.703125 19.703125-19.703125h238.113281c5.261719 0 10.210938 2.050782 13.933594 5.773438 3.71875 3.722656 5.769531 8.667968 5.769531 13.933594l-.058594 206.464843c-.003906 5.707031-2.472656 11.128907-6.78125 14.871094-3.609374 3.132813-8.203124 4.828125-12.917968 4.828125zm-227.769532-62.140625 217.476563 30.597656.050781-184.332031h-217.527344zm-67.976562 23.40625c-.890625 0-1.785156-.0625-2.679688-.183594l-176.082031-24.136719c-9.703125-1.332031-17.023437-9.71875-17.027343-19.515624l-.007813-143.597657c0-5.261719 2.046875-10.207031 5.769531-13.929687s8.667969-5.773438 13.933594-5.773438h176.089844c10.863281 0 19.703125 8.839844 19.703125 19.703125v167.730469c0 5.695312-2.460938 11.105469-6.753907 14.847656-3.605468 3.148438-8.214843 4.851563-12.945312 4.855469zm1.386719-29.902344.011719.003907c-.003907 0-.007813-.003907-.011719-.003907zm-167.179688-22.914062 155.5 21.3125v-145.636719h-155.507812zm165.726563-172.671875-176.234375-.035156c-10.847657 0-19.6875002-8.828126-19.699219-19.679688v-142.039062c-.0117188-9.804688 7.320312-18.207032 17.054688-19.527344l176.226562-23.933594c5.636719-.765625 11.324219.941406 15.609375 4.683594 4.285156 3.742187 6.742187 9.152344 6.742187 14.839844v165.988281c0 10.867187-8.835937 19.703125-19.699218 19.703125zm-165.9375-30.027344 155.644531.03125v-143.910156l-155.644531 21.136718zm461.746094 28.09375h-238.054688c-10.863281 0-19.703125-8.835938-19.703125-19.703125v-171.800781c0-9.714844 7.25-18.09375 16.863281-19.496094h.003906l238.050782-34.640625c5.664062-.820313 11.398437.851563 15.726562 4.597656 4.332032 3.746094 6.8125 9.175781 6.8125 14.902344v206.4375c0 10.867187-8.835937 19.703125-19.699218 19.703125zm-227.765626-29.992188h217.472657v-184.253906l-217.472657 31.644532zm0 0"/></svg>