<svg viewBox="0 -45 512 512" xmlns="http://www.w3.org/2000/svg"><path d="m473.660156 119.761719h-27.273437c-32.304688-67.335938-97.382813-112.257813-171.304688-118.902344-1.625-.402344-3.304687-.535156-4.96875-.382813-4.675781-.3125-9.378906-.476562-14.113281-.476562-81.675781 0-155.328125 46.683594-190.390625 119.761719h-27.269531c-21.140625 0-38.339844 17.199219-38.339844 38.339843v106.089844c0 21.140625 17.199219 38.339844 38.339844 38.339844h27.265625c35.066406 73.046875 108.820312 119.757812 190.390625 119.757812 5.632812 0 11.21875-.226562 16.765625-.664062.101562-.007812.199219-.015625.300781-.023438 74.753906-6 140.722656-51.121093 173.324219-119.070312h27.273437c21.140625 0 38.339844-17.199219 38.339844-38.339844v-106.089844c0-21.140624-17.199219-38.339843-38.339844-38.339843zm-61.1875 0h-60.921875c-12.164062-33.964844-28.933593-62.085938-42.9375-82.011719 43.390625 13.125 80.644531 42.207031 103.859375 82.011719zm-171.46875 0h-48.335937c15.136719-37.355469 35.996093-66.273438 48.335937-81.519531zm29.988282-82.054688c12.335937 15.230469 33.28125 44.28125 48.476562 82.054688h-48.476562zm-67.195313-.078125c-14.058594 19.875-30.972656 48.050782-43.246094 82.132813h-61.03125c23.292969-39.933594 60.710938-69.070313 104.277344-82.132813zm-104.265625 264.902344h61.253906c12.308594 34.0625 29.191406 62.273438 43.191406 82.167969-43.617187-13.042969-81.121093-42.207031-104.445312-82.167969zm171.460938 0h48.136718c-15.121094 37.367188-35.859375 66.378906-48.136718 81.703125zm-29.988282 81.476562c-12.28125-15.265624-32.960937-44.117187-48.105468-81.476562h48.105468zm67.210938.648438c13.957031-19.914062 30.761718-48.105469 43.023437-82.125h61.234375c-23.285156 39.925781-60.695312 69.0625-104.257812 82.125zm173.796875-120.464844c0 4.601563-3.746094 8.347656-8.351563 8.347656h-435.320312c-4.605469 0-8.351563-3.746093-8.351563-8.347656v-106.089844c0-4.605468 3.746094-8.351562 8.351563-8.351562h435.320312c4.605469 0 8.351563 3.746094 8.351563 8.351562zm0 0"/><path d="m180.480469 173.019531c-3.882813-2.132812-7.679688-3.207031-11.394531-3.207031-3.824219 0-6.1875 1.351562-7.085938 4.050781l-15.023438 42.871094-10.800781-36.285156c-1.011719-3.375-3.882812-5.066407-8.605469-5.066407-4.726562 0-7.597656 1.6875-8.609374 5.066407l-10.800782 36.285156-15.023437-42.871094c-.902344-2.699219-3.320313-4.050781-7.257813-4.050781-3.710937 0-7.507812 1.042969-11.390625 3.125-3.882812 2.082031-5.824219 4.53125-5.824219 7.339844 0 .902344.28125 2.085937.84375 3.546875l25.992188 64.976562c1.238281 3.039063 4.558594 4.554688 9.957031 4.554688 6.1875 0 9.84375-1.515625 10.972657-4.554688l11.136718-29.367187 11.140625 29.367187c1.121094 3.039063 4.726563 4.554688 10.800781 4.554688 5.511719 0 8.886719-1.515625 10.125-4.554688l25.992188-64.976562c.449219-.902344.675781-1.96875.675781-3.207031 0-2.925782-1.941406-5.457032-5.820312-7.597657zm0 0"/><path d="m309.085938 173.019531c-3.882813-2.132812-7.679688-3.207031-11.394532-3.207031-3.824218 0-6.1875 1.351562-7.085937 4.050781l-15.023438 42.871094-10.800781-36.285156c-1.011719-3.375-3.882812-5.066407-8.609375-5.066407-4.722656 0-7.59375 1.6875-8.605469 5.066407l-10.800781 36.285156-15.019531-42.871094c-.902344-2.699219-3.320313-4.050781-7.257813-4.050781-3.714843 0-7.511719 1.042969-11.394531 3.125-3.878906 2.082031-5.820312 4.53125-5.820312 7.339844 0 .902344.277343 2.085937.84375 3.546875l25.988281 64.976562c1.238281 3.039063 4.558593 4.554688 9.957031 4.554688 6.1875 0 9.847656-1.515625 10.972656-4.554688l11.136719-29.367187 11.140625 29.367187c1.125 3.039063 4.726562 4.554688 10.800781 4.554688 5.511719 0 8.886719-1.515625 10.128907-4.554688l25.988281-64.976562c.449219-.902344.675781-1.96875.675781-3.207031 0-2.925782-1.9375-5.457032-5.820312-7.597657zm0 0"/><path d="m437.691406 173.019531c-3.882812-2.132812-7.679687-3.207031-11.394531-3.207031-3.824219 0-6.1875 1.351562-7.085937 4.050781l-15.023438 42.871094-10.800781-36.285156c-1.011719-3.375-3.882813-5.066407-8.609375-5.066407-4.722656 0-7.59375 1.6875-8.605469 5.066407l-10.800781 36.285156-15.019532-42.871094c-.902343-2.699219-3.320312-4.050781-7.257812-4.050781-3.714844 0-7.511719 1.042969-11.394531 3.125-3.878907 2.082031-5.820313 4.53125-5.820313 7.339844 0 .902344.277344 2.085937.84375 3.546875l25.988282 64.976562c1.238281 3.039063 4.558593 4.554688 9.957031 4.554688 6.1875 0 9.847656-1.515625 10.972656-4.554688l11.136719-29.367187 11.140625 29.367187c1.125 3.039063 4.726562 4.554688 10.800781 4.554688 5.511719 0 8.886719-1.515625 10.128906-4.554688l25.988282-64.976562c.449218-.902344.675781-1.96875.675781-3.207031 0-2.925782-1.9375-5.457032-5.820313-7.597657zm0 0"/></svg>