<svg viewBox="-26 1 511 511.99994" xmlns="http://www.w3.org/2000/svg"><path d="m344.023438 512c-.019532 0-41.105469-.050781-54.351563-.050781-68.347656 0-117.324219-5.9375-154.125-18.6875-7.839844-2.75-14.691406-5.804688-20.734375-8.496094-10.699219-4.765625-19.144531-8.527344-27.90625-8.527344h-35.699219c-10.808593 0-26.460937-1.15625-37.507812-11.15625-11.832031-10.707031-13.199219-26.234375-13.199219-36.980469l.007812-163.210937c0-14.984375 4.601563-27.636719 13.3125-36.585937 6.257813-6.4375 17.828126-14.109376 37.386719-14.109376.957031 0 2.015625.011719 3.164063.023438 11.15625.125 29.511718.320312 41.386718-9.988281.722657-1.386719 1.425782-2.6875 2.058594-3.855469.425782-.847656.828125-1.542969 1.128906-2.070312.105469-.179688.214844-.359376.316407-.558594.820312-1.949219 1.792969-3.675782 2.941406-5.207032 6.328125-10.589843 13.449219-20.464843 19.640625-27.21875 13.675781-14.960937 26.351562-22.699218 37.535156-29.53125 13.128906-8.019531 22.617188-13.8125 30.875-29.9375l.578125-1.121093c12.363281-24.105469 17.480469-34.082031 20.574219-46.050781 1.046875-4.058594 1.507812-8.324219 1.367188-12.675782-1.121094-16.890625 7.226562-42.816406 34.96875-45.910156l.828124-.09375h.832032c16.886718 0 31.023437 4 42.023437 11.882812 16.371094 11.734376 24.671875 30.800782 24.671875 56.664063 0 46.132813-11.28125 83.042969-21.015625 106.300781l115.855469 14.546875c27.753906 1.601563 49.191406 26.738281 47.917969 56.375-.675781 15.714844-7.191407 29.882813-17.109375 39.777344 9.375 9.203125 14.359375 21.648437 13.8125 35.96875-.179688 14.351563-4.582032 25.820313-13.085938 34.089844-3.285156 3.195312-6.960937 5.671875-10.847656 7.585937 6.578125 8.695313 10.128906 19.28125 10.128906 30.488282 0 15.285156-5.785156 29.234374-16.292968 39.273437-8.5625 8.179687-19.761719 13.304687-31.632813 14.644531 1.847656 5.113282 2.703125 10.675782 2.472656 16.53125-.023437 2.332032-.246093 6.636719-.582031 8.679688-1.53125 9.234375-5.25 16.550781-11.375 22.375-11.558594 11-25.503906 16.816406-40.320312 16.816406zm-292.816407-267.804688c-14.511719 0-20.699219 6.1875-20.699219 20.699219l-.007812 163.210938c0 5.347656.578125 12.246093 3.328125 14.738281 1.402344 1.265625 5.527344 3.394531 17.378906 3.394531h35.699219c15.140625 0 27.269531 5.40625 40.113281 11.125 5.789063 2.582031 11.773438 5.246094 18.402344 7.574219 33.035156 11.441406 80.234375 17.015625 144.25 17.015625 13.253906 0 54.371094.050781 54.371094.050781 7.050781 0 13.660156-2.878906 19.628906-8.554687.757813-.722657 1.785156-1.699219 2.414063-5.328125.085937-.890625.199218-3.152344.21875-4.078125l-.015626-.324219.03125-.695312c.261719-5.839844-2.617187-10.132813-8.554687-12.769532-7.015625-3.113281-11.234375-10.335937-10.5-17.980468.925781-9.660157 9.558594-16.855469 19.230469-16.042969l20.167968 1.707031c6.796876.242188 13.375-2.183594 18.074219-6.671875 4.589844-4.386719 7.019531-10.46875 7.019531-17.585937 0-9.632813-7.027343-20.542969-22.453124-21.742188-4.386719-.335938-8.507813-2.480469-11.300782-5.882812-2.792968-3.390626-4.09375-7.839844-3.578125-12.203126.988281-8.324218 8.078125-14.496093 16.4375-14.3125 9.210938.171876 24.625.46875 30.695313-5.4375.972656-.941406 3.921875-3.8125 4.003906-13.101562l.011719-.507812c.566406-13.246094-9.980469-18.414063-18.929688-20.425782h-.007812c-7.429688-1.671875-12.539063-8.652344-11.890625-16.234375.652344-7.582031 6.875-13.585937 14.480468-13.964843 10.253907-.519532 19.078126-11.910157 19.660157-25.386719.574219-13.355469-8.367188-24.636719-19.929688-25.144531l-1.210937-.105469-117.980469-14.8125c-9.046875-1.136719-16.839844-6.320313-21.378906-14.222657-4.542969-7.902343-5.097657-17.246093-1.523438-25.632812 7.183594-16.855469 19.234375-51.738281 19.234375-96.011719 0-33.542969-18.902344-38.378906-35.757812-38.542969-3.304688.523438-4.984375 2.003907-6.261719 5.40625-1.289063 3.433594-1.425781 7.40625-1.363281 8.761719l.03125.359375-.007813.128906c.273438 7.335938-.496093 14.578126-2.292969 21.523438-3.925781 15.191406-9.878906 26.800781-22.921874 52.234375l-.574219 1.117187c-12.105469 23.636719-27.273438 32.898438-41.9375 41.855469-9.941407 6.074219-20.226563 12.351563-31.039063 24.183594-4.964844 5.414063-11.128906 14.066406-16.496094 23.15625l-.941406 1.5c-.597656 1.308594-1.171875 2.304687-1.570312 3-.109375.195313-.230469.386719-.335938.597656l-.320312.628907c-.910156 1.667968-1.972656 3.644531-2.980469 5.65625l-1.089844 2.164062-1.714843 1.714844c-20.695313 20.695312-50.269532 20.375-64.480469 20.222656-1.027344-.015625-1.976563-.023438-2.835938-.023438zm314.925781 223.652344c-.007812.042969-.015624.089844-.023437.136719.003906-.023437.007813-.050781.015625-.074219zm.011719-.058594c-.003906.019532-.007812.039063-.011719.058594zm.175781-3.484374c0 .039062.003907.074218.003907.105468zm25.296876-122.277344h.023437c-.007813 0-.015625 0-.023437 0zm19.144531-42.203125c-.007813 0-.015625 0-.027344 0zm0 0"/></svg>