<svg viewBox="-26 1 511 511.99994" xmlns="http://www.w3.org/2000/svg"><path d="m249.402344 512h-.832032l-.828124-.09375c-15.433594-1.71875-27.1875-11.265625-32.25-26.183594-3.078126-9.066406-2.859376-17.371094-2.722657-19.6875.144531-4.367187-.3125-8.644531-1.367187-12.714844-3.089844-11.964843-8.207032-21.941406-20.570313-46.042968l-.574219-1.121094c-8.261718-16.128906-17.75-21.925781-30.878906-29.945312-11.183594-6.828126-23.859375-14.570313-37.546875-29.539063-6.179687-6.746094-13.304687-16.625-19.628906-27.210937-1.136719-1.515626-2.105469-3.234376-2.941406-5.207032-.101563-.195312-.210938-.375-.316407-.558594-.300781-.527343-.703124-1.222656-1.125-2.070312-.636718-1.167969-1.335937-2.46875-2.0625-3.855469-11.875-10.308593-30.230468-10.109375-41.390624-9.988281-1.144532.011719-2.203126.023438-3.160157.023438-19.558593 0-31.128906-7.671876-37.386719-14.105469-8.707031-8.953125-13.3125-21.605469-13.3125-36.589844l-.007812-163.210937c0-22.441407 7.535156-31.851563 13.199219-36.980469 11.046875-10 26.699219-11.15625 37.507812-11.15625h35.699219c8.761719 0 17.210938-3.761719 27.90625-8.527344 6.042969-2.691406 12.894531-5.746094 20.675781-8.476563 36.859375-12.769531 85.835938-18.7070308 154.183594-18.7070308 13.246094 0 54.332031-.0507812 54.332031-.0507812 14.835938 0 28.78125 5.816406 40.347656 16.824219 6.117188 5.816406 9.839844 13.132812 11.367188 22.367187.335938 2.042969.558594 6.347656.582031 8.679688.234375 5.855468-.625 11.417968-2.46875 16.53125 11.871094 1.339844 23.066407 6.464844 31.632813 14.648437 10.503906 10.035157 16.292968 23.984375 16.292968 39.273438 0 11.207031-3.554687 21.789062-10.128906 30.484375 3.882813 1.917968 7.5625 4.390625 10.84375 7.585937 8.507813 8.269531 12.910156 19.738281 13.085938 34.089844.550781 14.320313-4.4375 26.769531-13.8125 35.96875 9.921875 9.894531 16.433594 24.066406 17.113281 39.78125 1.273437 29.632813-20.167969 54.773437-47.921875 56.371094l-115.851562 14.546875c9.734374 23.257812 21.011718 60.167968 21.011718 106.300781 0 25.863281-8.296875 44.929687-24.667968 56.664063-11.003907 7.886718-25.140626 11.882812-42.027344 11.882812zm-6.6875-44.152344c-.058594 1.375.082031 5.328125 1.363281 8.742188 1.277344 3.398437 2.957031 4.882812 6.257813 5.40625 10.042968-.121094 17.984374-2.226563 23.613281-6.261719 8.0625-5.777344 12.152343-16.640625 12.152343-32.28125 0-44.273437-12.054687-79.15625-19.234374-96.011719-3.574219-8.386718-3.023438-17.726562 1.519531-25.628906 4.539062-7.90625 12.332031-13.089844 21.382812-14.226562l118.582031-14.890626.605469-.023437c11.5625-.507813 20.503907-11.789063 19.929688-25.148437-.582031-13.476563-9.402344-24.867188-19.667969-25.386719-7.59375-.378907-13.820312-6.382813-14.46875-13.964844-.652344-7.582031 4.457031-14.5625 11.886719-16.234375 8.957031-2.007812 19.507812-7.179688 18.941406-20.425781l-.015625-.507813c-.082031-9.289062-3.03125-12.160156-4.003906-13.101562-6.070313-5.90625-21.484375-5.609375-30.695313-5.4375-8.355469.195312-15.449219-5.988282-16.4375-14.308594-.515625-4.363281.785157-8.8125 3.574219-12.203125 2.792969-3.402344 6.910156-5.546875 11.300781-5.890625 10.816407-.835938 22.457031-7.996094 22.457031-21.738281 0-7.117188-2.429687-13.199219-7.019531-17.585938-4.699219-4.492187-11.269531-6.917969-18.074219-6.671875l-20.167968 1.707032c-9.671875.820312-18.304688-6.378907-19.230469-16.050782-.734375-7.640625 3.488281-14.867187 10.503906-17.976562 5.933594-2.632813 8.8125-6.929688 8.550781-12.765625l-.027343-.695313.015625-.328125c-.023438-.925781-.136719-3.183593-.21875-4.074219-.632813-3.632812-1.660156-4.605468-2.414063-5.320312-5.972656-5.683594-12.582031-8.5625-19.652343-8.5625.019531 0-41.097657.046875-54.351563.046875-64.015625 0-111.214844 5.574219-144.304687 17.039063-6.570313 2.304687-12.558594 4.972656-18.347657 7.550781-12.84375 5.71875-24.972656 11.125-40.113281 11.125h-35.699219c-11.851562 0-15.976562 2.128906-17.375 3.398437-2.753906 2.492188-3.332031 9.390625-3.332031 14.738282l.007812 163.207031c0 14.507812 6.1875 20.699219 20.699219 20.699219.855469 0 1.808594-.011719 2.835938-.019532 14.21875-.148437 43.785156-.476562 64.484375 20.222656l1.714844 1.714844 1.085937 2.167969c1.007813 2.011719 2.070313 3.984375 2.980469 5.652344l.324218.632812c.105469.210938.222657.398438.332032.59375.40625.707031.988281 1.722657 1.574218 3.003907l.148438.160156.789062 1.335937c5.367188 9.085938 11.53125 17.738281 16.484376 23.144531 10.824218 11.839844 21.105468 18.121094 31.050781 24.195313 14.664062 8.957031 29.832031 18.21875 41.941406 41.863281l.570313 1.113282c13.046874 25.429687 19 37.035156 22.921874 52.226562 1.796876 6.945312 2.566407 14.1875 2.292969 21.527344zm168.011718-255.671875h.027344c-.007812 0-.019531 0-.027344 0zm-44.402343-164.585937c0 .03125-.003907.066406-.003907.105468zm-.214844-3.574219c.007813.042969.015625.085937.023437.125l-.007812-.050781c-.007812-.023438-.011719-.050782-.015625-.074219zm0 0"/></svg>