<svg viewBox="0 0 512 512.00003" xmlns="http://www.w3.org/2000/svg"><path d="m511.945312 245.640625c-1.53125-66.980469-29.011718-129.398437-77.382812-175.753906-48.300781-46.289063-111.746094-71.082031-178.589844-69.839844-66.871094-1.253906-130.285156 23.554687-178.585937 69.839844-48.371094 46.355469-75.851563 108.773437-77.38281275 175.75l-.00390625.210937v.210938c.351562 68.261718 29.582031 133.15625 80.320312 178.640625v61.886719c0 12.011718 8.386719 22.476562 19.941407 24.882812 1.710937.355469 3.433593.53125 5.148437.53125 4.648438 0 9.21875-1.296875 13.242188-3.8125l49.738281-31.070312c28.050781 9.820312 57.320313 14.796874 87.078125 14.796874h.375c1.644531.03125 3.277344.046876 4.917969.046876 65.105469-.003907 126.65625-24.707032 173.800781-69.886719 48.371094-46.355469 75.851562-108.769531 77.382812-175.75l.007813-.34375zm-98.160156 154.753906c-41.515625 39.785157-95.707031 61.539063-153.039062 61.539063-1.488282 0-2.980469-.015625-4.476563-.042969l-.164062-.003906h-.160157c-27.667968.054687-54.917968-4.753907-80.917968-14.289063-6.433594-2.359375-13.441406-1.636718-19.222656 1.976563l-45.457032 28.394531v-56.925781c0-6.347657-2.761718-12.390625-7.574218-16.578125-45.867188-39.871094-72.371094-97.578125-72.742188-158.351563 1.394531-58.898437 25.585938-113.773437 68.132812-154.546875 42.59375-40.816406 98.558594-62.644531 157.511719-61.492187l.296875.003906.296875-.003906c58.992188-1.164063 114.921875 20.675781 157.515625 61.492187 42.507813 40.738282 66.695313 95.570313 68.128906 154.414063-1.429687 58.847656-25.617187 113.675781-68.128906 154.414062zm0 0"/><path d="m394.566406 163.722656-95.316406 51.96875-57.097656-48.960937c-9.878906-8.46875-24.824219-7.894531-34.019532 1.304687l-120.511718 120.511719c-4.71875 4.75-7.308594 11.046875-7.285156 17.738281.019531 6.695313 2.644531 12.980469 7.390624 17.695313 4.839844 4.808593 11.171876 7.316406 17.609376 7.316406 4.085937 0 8.210937-1.007813 12.027343-3.078125l95.320313-51.96875 57.15625 48.980469c9.878906 8.46875 24.824218 7.894531 34.019531-1.304688l120.53125-120.53125c8.6875-8.769531 9.644531-22.804687 2.238281-32.671875-7.410156-9.914062-21.191406-12.921875-32.0625-7zm-108.683594 135.710938-57.894531-49.613282c-4.046875-3.46875-9.164062-5.257812-14.3125-5.257812-3.59375 0-7.203125.871094-10.46875 2.652344l-69.894531 38.105468 92.792969-92.792968 57.828125 49.589844c6.875 5.894531 16.835937 6.945312 24.792968 2.609374l70.066407-38.203124zm0 0"/></svg>