<svg viewBox="0 -55 512.00047 512" xmlns="http://www.w3.org/2000/svg"><path d="m349.882812 355.097656-62.269531-72.421875c-5.507812-6.402343-13.511719-10.078125-21.957031-10.078125h-85.648438v-64.742187h20.367188c9.570312 0 18.507812-4.539063 23.910156-12.136719 7.769532-10.933594 7.082032-25.640625-1.671875-35.765625l-85.867187-99.316406c-5.503906-6.367188-13.488282-10.019531-21.90625-10.019531-8.417969 0-16.402344 3.652343-21.910156 10.019531l-85.867188 99.316406c-8.753906 10.125-9.4375 24.832031-1.671875 35.761719 5.402344 7.601562 14.34375 12.140625 23.917969 12.140625h20.363281v129.910156c0 35.9375 29.234375 65.171875 65.167969 65.171875h212.75c9.554687 0 18.484375-4.523438 23.890625-12.105469 7.773437-10.90625 7.117187-25.605469-1.597657-35.734375zm-235.042968 17.863282c-19.40625 0-35.195313-15.789063-35.195313-35.195313v-138.175781c0-11.972656-9.738281-21.710938-21.710937-21.710938l-26.742188-.003906 83.644532-96.746094 83.652343 96.75h-26.746093c-11.972657 0-21.710938 9.738282-21.710938 21.710938v81.273437c0 11.96875 9.738281 21.710938 21.710938 21.710938h93.445312l60.523438 70.386719zm0 0"/><path d="m506.605469 207.21875v-.003906c-5.40625-7.597656-14.34375-12.132813-23.914063-12.132813h-20.359375v-129.910156c0-35.9375-29.238281-65.171875-65.171875-65.171875h-212.746094c-9.554687 0-18.484374 4.523438-23.890624 12.101562-7.777344 10.910157-7.121094 25.605469 1.59375 35.738282l62.269531 72.417968c5.503906 6.40625 13.507812 10.082032 21.960937 10.082032h85.644532v64.742187h-20.363282c-9.570312 0-18.507812 4.539063-23.914062 12.136719-7.769532 10.933594-7.082032 25.640625 1.671875 35.761719l85.867187 99.320312c5.507813 6.367188 13.492188 10.015625 21.910156 10.015625 8.417969 0 16.402344-3.648437 21.90625-10.015625l85.867188-99.320312c8.753906-10.125 9.441406-24.832031 1.667969-35.761719zm-109.441407 114.589844-83.652343-96.753906h26.75c11.96875 0 21.707031-9.738282 21.707031-21.707032v-81.273437c0-11.972657-9.738281-21.710938-21.707031-21.710938h-93.449219l-60.523438-70.386719h210.875c19.40625 0 35.195313 15.785157 35.195313 35.195313v138.175781c0 11.96875 9.734375 21.707032 21.707031 21.707032l26.746094.003906zm0 0"/></svg>