<svg viewBox="0 0 512.00097 512.00097" xmlns="http://www.w3.org/2000/svg"><path d="m469.429688 211.207031c-18.269532 0-33.886719 11.574219-39.910157 27.773438h-81.832031c-2.355469-14.371094-8.035156-27.632813-16.21875-38.976563l56.886719-56.886718c5.691406 2.742187 11.96875 4.199218 18.472656 4.199218 11.371094 0 22.0625-4.429687 30.101563-12.46875 8.039062-8.039062 12.46875-18.730468 12.46875-30.101562s-4.429688-22.058594-12.46875-30.101563c-16.597657-16.59375-43.601563-16.59375-60.199219 0h-.003907c-8.039062 8.042969-12.464843 18.730469-12.464843 30.101563 0 5.808594 1.160156 11.4375 3.363281 16.625l-57.425781 57.425781c-11.289063-8.089844-24.46875-13.707031-38.738281-16.046875v-80.53125c15.847656-6.199219 27.109374-21.628906 27.109374-39.648438 0-23.472656-19.097656-42.570312-42.570312-42.570312s-42.570312 19.09375-42.570312 42.570312c0 18.351563 11.679687 34.03125 27.992187 39.996094v80.183594c-14.265625 2.339844-27.445313 7.953125-38.738281 16.046875l-57.738282-57.738281c2-4.980469 3.054688-10.34375 3.054688-15.871094 0-11.371094-4.429688-22.0625-12.46875-30.101562-8.039062-8.042969-18.730469-12.46875-30.101562-12.46875-11.371094 0-22.058594 4.425781-30.101563 12.46875-8.039063 8.039062-12.464844 18.726562-12.464844 30.097656s4.425781 22.0625 12.464844 30.101562c8.300781 8.296875 19.203125 12.449219 30.101563 12.449219 6.582031 0 13.15625-1.523437 19.164062-4.546875l56.820312 56.816406c-8.1875 11.34375-13.863281 24.605469-16.222656 38.976563h-82.886718c-6.140626-15.96875-21.632813-27.332031-39.734376-27.332031-23.472656 0-42.570312 19.097656-42.570312 42.570312s19.097656 42.570312 42.570312 42.570312c18.269532 0 33.886719-11.574218 39.910157-27.773437h82.710937c2.34375 14.269531 7.957032 27.449219 16.050782 38.738281l-59.769532 59.769532c-15.40625-6.304688-33.78125-3.214844-46.269531 9.269531h-.003906c-16.597657 16.597656-16.597657 43.605469.003906 60.203125 8.296875 8.296875 19.199219 12.449218 30.097656 12.449218 10.902344 0 21.804688-4.152343 30.101563-12.449218 13.226562-13.226563 15.902344-33.058594 8.046875-48.972656l58.996093-58.996094c11.34375 8.183594 24.609376 13.863281 38.976563 16.21875v84.359375c-16.082031 6.085937-27.550781 21.636719-27.550781 39.824219 0 23.472656 19.097656 42.570312 42.570312 42.570312s42.570313-19.09375 42.570313-42.570312c0-18.1875-11.46875-33.738282-27.550781-39.824219v-84.359375c14.367187-2.359375 27.628906-8.035156 38.972656-16.222656l58.9375 58.941406c-7.78125 15.886718-5.085938 35.652344 8.105468 48.84375 8.300782 8.300781 19.199219 12.449218 30.101563 12.449218s21.800781-4.148437 30.101563-12.449218c16.597656-16.597656 16.597656-43.601563 0-60.199219-12.523438-12.523437-30.96875-15.59375-46.402344-9.21875l-59.636719-59.636719c8.09375-11.289062 13.707031-24.46875 16.046875-38.738281h82.007812c6.140626 15.96875 21.632813 27.332031 39.734376 27.332031 23.476562 0 42.570312-19.097656 42.570312-42.570312s-19.097656-42.570313-42.570312-42.570313zm-212.988282 105.226563c-34.425781 0-62.433594-28.003906-62.4375-62.429688 0-.003906 0-.003906 0-.007812v-.003906c.003906-34.417969 27.996094-62.414063 62.410156-62.429688h.027344.027344c34.414062.015625 62.410156 28.015625 62.410156 62.4375-.003906 34.425781-28.011718 62.433594-62.4375 62.433594zm141.523438-220.550782c4.886718-4.882812 12.835937-4.886718 17.722656 0 2.367188 2.367188 3.671875 5.515626 3.671875 8.863282s-1.304687 6.492187-3.671875 8.859375c-2.367188 2.367187-5.511719 3.671875-8.859375 3.671875s-6.496094-1.304688-8.863281-3.671875c-2.367188-2.363281-3.671875-5.511719-3.671875-8.859375.003906-3.347656 1.304687-6.496094 3.671875-8.863282zm-141.964844-65.847656c6.910156 0 12.53125 5.621094 12.53125 12.535156 0 6.910157-5.621094 12.53125-12.53125 12.53125s-12.53125-5.621093-12.53125-12.53125c0-6.914062 5.621094-12.535156 12.53125-12.535156zm-159.429688 84.011719c-2.367187-2.367187-3.671874-5.515625-3.671874-8.863281s1.304687-6.492188 3.671874-8.859375c2.367188-2.367188 5.511719-3.671875 8.859376-3.671875 3.347656 0 6.496093 1.304687 8.863281 3.671875 2.367187 2.367187 3.671875 5.511719 3.671875 8.859375 0 2.617187-.808594 5.105468-2.285156 7.203125-.113282.105469-.230469.195312-.339844.304687-.546875.546875-1.027344 1.132813-1.46875 1.738282-4.914063 4.484374-12.554688 4.367187-17.300782-.382813zm-54 152.703125c-6.910156 0-12.535156-5.621094-12.535156-12.53125 0-6.914062 5.625-12.535156 12.535156-12.535156 6.910157 0 12.53125 5.621094 12.53125 12.535156 0 6.910156-5.621093 12.53125-12.53125 12.53125zm71.59375 149.003906c-4.886718 4.886719-12.835937 4.886719-17.722656 0-4.886718-4.886718-4.886718-12.835937 0-17.722656 4.886719-4.886719 12.835938-4.886719 17.722656 0 4.886719 4.886719 4.886719 12.839844 0 17.722656zm142.277344 66.207032c-6.910156 0-12.535156-5.621094-12.535156-12.53125 0-6.910157 5.625-12.53125 12.535156-12.53125s12.53125 5.621093 12.53125 12.53125c0 6.910156-5.621094 12.53125-12.53125 12.53125zm151.136719-87.785157c3.347656 0 6.496094 1.304688 8.863281 3.671875 4.886719 4.886719 4.886719 12.835938 0 17.722656-2.367187 2.367188-5.515625 3.671876-8.863281 3.671876s-6.492187-1.304688-8.859375-3.671876c-4.886719-4.886718-4.886719-12.835937 0-17.722656 2.367188-2.367187 5.511719-3.671875 8.859375-3.671875zm61.851563-127.867187c-6.910157 0-12.53125-5.621094-12.53125-12.53125s5.621093-12.53125 12.53125-12.53125c6.910156 0 12.535156 5.621094 12.535156 12.53125s-5.625 12.53125-12.535156 12.53125zm0 0"/></svg>