<svg viewBox="-67 0 511 511.998" xmlns="http://www.w3.org/2000/svg"><path d="m159.148438 272.785156h135.128906c2.0625 5.496094 5.292968 10.648438 9.707031 15.0625 8.03125 8.03125 18.710937 12.457032 30.066406 12.457032 11.359375 0 22.039063-4.425782 30.070313-12.457032 16.578125-16.578125 16.578125-43.554687 0-60.136718-8.03125-8.03125-18.710938-12.453126-30.066406-12.453126-11.359376 0-22.039063 4.421876-30.070313 12.453126-4.414063 4.414062-7.640625 9.570312-9.703125 15.066406h-135.132812c-2.050782-10.761719-6.246094-20.773438-12.148438-29.550782l68.125-67.976562c13.085938 9.324219 29.070312 14.828125 46.324219 14.828125 44.136719 0 80.042969-35.902344 80.042969-80.039063 0-44.132812-35.90625-80.039062-80.042969-80.039062s-80.039063 35.90625-80.039063 80.039062c0 16.054688 4.765625 31.011719 12.9375 43.554688l-68.441406 68.292969c-12.902344-8.910157-28.53125-14.148438-45.367188-14.148438-44.132812 0-80.039062 35.90625-80.039062 80.042969 0 44.132812 35.90625 80.039062 80.039062 80.039062 17.042969 0 32.847657-5.371093 45.84375-14.484374l64.585938 63.167968c-8.949219 12.921875-14.207031 28.582032-14.207031 45.453125 0 44.136719 35.902343 80.039063 80.039062 80.039063s80.039063-35.902344 80.039063-80.039063c0-44.132812-35.90625-80.039062-80.039063-80.039062-16.4375 0-31.734375 4.988281-44.457031 13.519531l-65.027344-63.597656c5.734375-8.660156 9.820313-18.492188 11.832032-29.054688zm166.050781-23.855468c2.367187-2.363282 5.507812-3.667969 8.855469-3.667969 3.34375 0 6.484374 1.304687 8.851562 3.667969 4.878906 4.878906 4.878906 12.824218 0 17.703124-2.367188 2.363282-5.507812 3.667969-8.855469 3.667969-3.34375 0-6.484375-1.304687-8.851562-3.667969-4.878907-4.878906-4.878907-12.824218 0-17.703124zm-63.75-218.925782c27.589843 0 50.035156 22.445313 50.035156 50.035156 0 27.589844-22.445313 50.035157-50.035156 50.035157-27.589844 0-50.035157-22.445313-50.035157-50.035157 0-27.589843 22.445313-50.035156 50.035157-50.035156zm-230.945313 227.777344c0-27.589844 22.445313-50.035156 50.035156-50.035156 27.589844 0 50.035157 22.445312 50.035157 50.035156s-22.445313 50.035156-50.035157 50.035156c-27.589843 0-50.035156-22.445312-50.035156-50.035156zm276.332032 174.179688c0 27.589843-22.445313 50.035156-50.035157 50.035156-27.589843 0-50.035156-22.445313-50.035156-50.035156 0-27.589844 22.445313-50.035157 50.035156-50.035157 27.589844 0 50.035157 22.445313 50.035157 50.035157zm0 0"/></svg>