<svg viewBox="0 0 511 511.99962" xmlns="http://www.w3.org/2000/svg"><path d="m512.445312 245.636719c-1.53125-66.976563-29.011718-129.394531-77.382812-175.75-48.300781-46.289063-111.703125-71.082031-178.589844-69.8437502-66.882812-1.2421878-130.285156 23.5585932-178.585937 69.8437502-48.371094 46.355469-75.851563 108.773437-77.382813 175.75l-.003906.210937v.210938c.351562 68.261718 29.574219 133.15625 80.320312 178.640625v61.886719c0 12.011718 8.386719 22.476562 19.941407 24.882812 1.710937.355469 3.433593.53125 5.144531.53125 4.652344 0 9.222656-1.300781 13.242188-3.8125l49.738281-31.070312c28.050781 9.820312 57.328125 14.796874 87.085937 14.796874h.367188c1.648437.03125 3.28125.046876 4.921875.046876 65.105469-.003907 126.65625-24.707032 173.800781-69.886719 48.371094-46.355469 75.851562-108.773438 77.382812-175.75l.007813-.34375zm-98.160156 154.757812c-42.59375 40.816407-98.558594 62.65625-157.515625 61.496094l-.324219-.003906c-27.675781.023437-54.917968-4.753907-80.917968-14.289063-6.429688-2.359375-13.433594-1.640625-19.222656 1.972656l-45.457032 28.398438v-56.925781c0-6.347657-2.761718-12.390625-7.578125-16.578125-45.863281-39.871094-72.367187-97.578125-72.738281-158.351563 1.398438-58.898437 25.589844-113.773437 68.132812-154.542969 42.589844-40.820312 98.566407-62.632812 157.515626-61.496093l.292968.007812.296875-.007812c58.980469-1.160157 114.921875 20.671875 157.515625 61.492187 42.507813 40.738282 66.695313 95.566406 68.128906 154.414063-1.433593 58.847656-25.621093 113.675781-68.128906 154.414062zm0 0"/><path d="m297.753906 314.40625v-103.636719c0-15.203125-12.371094-27.574219-27.574218-27.574219h-50.730469c-15.207031 0-27.578125 12.371094-27.578125 27.574219v26.089844c0 13.546875 9.816406 24.839844 22.710937 27.144531v51.035156c-12.894531 2.304688-22.710937 13.597657-22.710937 27.144532v26.089844c0 15.203124 12.371094 27.574218 27.578125 27.574218h74.402343c15.207032 0 27.578126-12.371094 27.578126-27.574218v-26.089844c0-14.121094-10.3125-25.84375-23.675782-27.777344zm-6.355468 51.414062h-69.496094v-21.183593h4.5c10.039062 0 18.207031-8.167969 18.207031-18.207031v-73.8125c0-10.039063-8.167969-18.207032-18.207031-18.207032h-4.5v-21.183594h45.824218v112.71875c0 10.039063 8.167969 18.207032 18.207032 18.207032h5.464844zm0 0"/><path d="m254.347656 174.210938c24.058594 0 43.632813-19.574219 43.632813-43.632813 0-24.0625-19.574219-43.636719-43.632813-43.636719-24.0625 0-43.636718 19.574219-43.636718 43.636719 0 24.058594 19.574218 43.632813 43.636718 43.632813zm0-57.242188c7.5 0 13.605469 6.105469 13.605469 13.609375s-6.105469 13.605469-13.605469 13.605469c-7.503906 0-13.609375-6.101563-13.609375-13.605469s6.105469-13.609375 13.609375-13.609375zm0 0"/></svg>