<svg viewBox="0 0 511 511.99962" xmlns="http://www.w3.org/2000/svg"><path d="m512.445312 245.636719c-1.53125-66.976563-29.011718-129.394531-77.382812-175.75-48.300781-46.289063-111.746094-71.078125-178.589844-69.8437502-66.871094-1.2421878-130.289062 23.5585932-178.585937 69.8437502-48.371094 46.355469-75.851563 108.773437-77.382813 175.75l-.003906.210937v.210938c.351562 68.265625 29.578125 133.15625 80.320312 178.640625v61.886719c0 12.011718 8.386719 22.476562 19.941407 24.882812 1.710937.355469 3.433593.53125 5.144531.53125 4.652344 0 9.222656-1.300781 13.246094-3.8125l49.738281-31.070312c28.050781 9.820312 57.324219 14.796874 87.082031 14.796874h.371094c1.644531.03125 3.277344.046876 4.917969.046876 65.105469-.003907 126.65625-24.707032 173.800781-69.886719 48.371094-46.355469 75.851562-108.773438 77.382812-175.75l.007813-.34375zm-98.160156 154.757812c-42.59375 40.816407-98.53125 62.640625-157.515625 61.496094l-.324219-.003906c-.160156 0-.3125 0-.472656 0-27.53125 0-54.59375-4.808594-80.445312-14.289063-6.429688-2.359375-13.433594-1.640625-19.222656 1.972656l-45.457032 28.398438v-56.925781c0-6.347657-2.757812-12.390625-7.574218-16.578125-45.863282-39.871094-72.371094-97.578125-72.742188-158.351563 1.394531-58.898437 25.589844-113.773437 68.132812-154.542969 42.59375-40.820312 98.558594-62.667968 157.515626-61.496093l.292968.007812.296875-.007812c59.007813-1.160157 114.925781 20.675781 157.515625 61.496093 42.507813 40.738282 66.699219 95.566407 68.128906 154.414063-1.429687 58.84375-25.621093 113.671875-68.128906 154.410156zm0 0"/><path d="m189.183594 173.976562c5.816406 5.878907 9 13.671876 8.957031 21.945313-.039063 8.289063 6.648437 15.046875 14.9375 15.089844h.078125c8.257812 0 14.972656-6.671875 15.015625-14.941407.082031-16.289062-6.1875-31.640624-17.648437-43.21875-11.460938-11.578124-26.75-18-43.039063-18.082031-.105469 0-.210937 0-.316406 0-16.175781 0-31.402344 6.257813-42.90625 17.648438-11.578125 11.460937-18 26.746093-18.082031 43.039062-.039063 8.292969 6.648437 15.046875 14.941406 15.089844h.078125c8.253906 0 14.96875-6.671875 15.011719-14.941406.085937-17.074219 14.058593-30.90625 31.121093-30.808594 8.269531.042969 16.03125 3.300781 21.851563 9.179687zm0 0"/><path d="m346.683594 135.675781c-.101563 0-.207032-.003906-.3125-.003906-33.488282 0-60.820313 27.164063-60.992188 60.691406-.039062 8.289063 6.648438 15.046875 14.941406 15.089844h.078126c8.253906 0 14.96875-6.671875 15.011718-14.941406.085938-17.019531 13.960938-30.808594 30.964844-30.808594h.160156c8.269532.042969 16.03125 3.300781 21.847656 9.179687 5.820313 5.878907 9.003907 13.671876 8.960938 21.945313-.042969 8.289063 6.648438 15.046875 14.9375 15.089844h.078125c8.257813 0 14.96875-6.675781 15.011719-14.941407.082031-16.292968-6.183594-31.640624-17.648438-43.21875-11.460937-11.578124-26.742187-18-43.039062-18.082031zm0 0"/><path d="m345.339844 258.660156c-.027344 0-.050782 0-.078125 0-8.253907 0-14.96875 6.671875-15.011719 14.941406-.101562 19.636719-7.839844 38.058594-21.796875 51.875-13.863281 13.726563-32.214844 21.273438-51.707031 21.269532-.128906 0-.257813 0-.382813 0-19.640625-.097656-38.0625-7.839844-51.878906-21.792969-13.816406-13.957031-21.367187-32.457031-21.269531-52.09375.042968-8.292969-6.644532-15.046875-14.9375-15.089844-.027344 0-.050782 0-.078125 0-8.253907 0-14.96875 6.671875-15.011719 14.9375-.140625 27.660157 10.5 53.714844 29.957031 73.371094s45.40625 30.558594 73.066407 30.699219h.539062c27.457031 0 53.304688-10.628906 72.832031-29.960938 19.65625-19.457031 30.558594-45.40625 30.695313-73.0625.042968-8.292968-6.644532-15.050781-14.9375-15.09375zm0 0"/></svg>