<svg viewBox="-88 1 511 511.99899" xmlns="http://www.w3.org/2000/svg"><path d="m334.609375 88.980469v-53.542969c0-19.539062-15.894531-35.4375-35.4375-35.4375h-58.746094c-16.738281 0-31.910156 9.238281-39.59375 24.113281l-31.777343 61.503907c-2.269532 4.390624-6.75 7.117187-11.691407 7.117187h-112.296875c-24.574218 0-44.566406 19.996094-44.566406 44.570313v63.972656c0 24.574218 19.992188 44.570312 44.566406 44.570312h41.207032l-80.800782 156.398438c-3.253906 6.292968-4.972656 13.367187-4.972656 20.457031v44.726563c0 24.578124 19.992188 44.570312 44.566406 44.570312h49.449219c16.742187 0 31.914063-9.238281 39.597656-24.113281l31.777344-61.503907c2.269531-4.390624 6.746094-7.117187 11.6875-7.117187h112.464844c24.574219 0 44.566406-19.996094 44.566406-44.570313v-63.972656c0-24.574218-19.992187-44.570312-44.566406-44.570312h-41.371094l80.964844-156.714844c3.253906-6.296875 4.972656-13.371094 4.972656-20.457031zm-30.027344 0c0 2.3125-.5625 4.617187-1.621093 6.671875l-83.730469 162.066406c-4.257813 8.242188-3.921875 17.890625.902343 25.8125 4.824219 7.921875 13.242188 12.652344 22.515626 12.652344h47.394531c8.015625 0 14.539062 6.523437 14.539062 14.539062v63.972656c0 8.015626-6.523437 14.539063-14.539062 14.539063h-112.464844c-16.21875 0-30.921875 8.953125-38.363281 23.363281l-31.777344 61.503906c-2.507812 4.855469-7.457031 7.867188-12.917969 7.867188h-49.449219c-8.019531 0-14.539062-6.519531-14.539062-14.539062v-44.726563c0-2.3125.558594-4.621094 1.621094-6.671875l83.5625-161.753906c4.257812-8.238282 3.921875-17.886719-.902344-25.808594s-13.242188-12.652344-22.515625-12.652344h-47.226563c-8.019531 0-14.539062-6.523437-14.539062-14.539062v-63.972656c0-8.019532 6.519531-14.539063 14.539062-14.539063h112.292969c16.222657 0 30.925781-8.953125 38.367188-23.367187l31.777343-61.503907c2.507813-4.851562 7.457032-7.867187 12.917969-7.867187h58.746094c2.980469 0 5.410156 2.429687 5.410156 5.410156zm0 0"/></svg>