<svg viewBox="1 -44 511.99898 511" xmlns="http://www.w3.org/2000/svg"><path d="m494.535156 91.84375h-167.484375v-20.273438c0-39.1875-31.886719-71.070312-71.074219-71.070312s-71.070312 31.882812-71.070312 71.070312v20.273438h-167.441406c-9.628906 0-17.464844 7.835938-17.464844 17.464844v296.472656c0 9.632812 7.835938 17.464844 17.464844 17.464844h477.070312c9.628906 0 17.464844-7.832032 17.464844-17.464844v-296.472656c0-9.628906-7.835938-17.464844-17.464844-17.464844zm-279.597656-20.273438c0-22.628906 18.410156-41.039062 41.039062-41.039062 22.628907 0 41.042969 18.410156 41.042969 41.039062v20.273438h-82.082031zm-147.019531 321.644532h-37.886719v-271.335938h37.886719zm66.382812 0h-36.351562v-271.335938h36.351562zm213.320313 0h-183.289063v-271.335938h183.289063zm66.382812 0h-36.351562v-271.335938h36.351562zm67.964844 0h-37.933594v-271.335938h37.933594zm0 0"/></svg>