<svg viewBox="0 0 512.002 512" xmlns="http://www.w3.org/2000/svg"><path d="m83.042969 401.898438c14.492187 0 27.035156-5.199219 37.285156-15.449219s15.449219-22.796875 15.449219-37.285157c0-14.488281-5.199219-27.035156-15.449219-37.285156-10.253906-10.25-22.796875-15.445312-37.285156-15.445312-14.492188 0-27.035157 5.195312-37.285157 15.445312s-15.449218 22.792969-15.449218 37.285156c0 14.492188 5.199218 27.035157 15.453125 37.285157 10.25 10.25 22.792969 15.449219 37.28125 15.449219zm-16.054688-68.789063c4.539063-4.539063 9.640625-6.652344 16.054688-6.652344 6.414062 0 11.515625 2.113281 16.054687 6.652344 4.539063 4.539063 6.65625 9.640625 6.65625 16.054687 0 6.410157-2.113281 11.511719-6.65625 16.054688-4.539062 4.539062-9.640625 6.652344-16.054687 6.652344-6.410157 0-11.511719-2.113282-16.054688-6.65625-4.539062-4.539063-6.652343-9.636719-6.652343-16.050782 0-6.414062 2.113281-11.515624 6.652343-16.054687zm0 0"/><path d="m166.375 447.746094c-.796875-4.453125-1.835938-8.6875-3.082031-12.582032-1.359375-4.246093-3.199219-8.421874-5.46875-12.417968-2.480469-4.363282-5.429688-8.191406-8.769531-11.390625-3.6875-3.527344-8.140626-6.339844-13.246094-8.363281-5.0625-2.003907-10.605469-3.019532-16.480469-3.019532-4.929687 0-8.789063 2.246094-12.328125 4.550782-2.121094 1.386718-4.523438 2.933593-7.1875 4.636718-1.121094.714844-3.269531 1.828125-7.152344 3.082032-5.761718 1.867187-11.222656 1.867187-16.992187 0-3.878907-1.253907-6.03125-2.367188-7.144531-3.078126-2.671876-1.707031-5.070313-3.253906-7.207032-4.648437-3.53125-2.296875-7.390625-4.542969-12.316406-4.542969-5.875 0-11.421875 1.019532-16.480469 3.023438-5.101562 2.019531-9.558593 4.832031-13.257812 8.367187-3.332031 3.195313-6.277344 7.023438-8.753907 11.382813-2.269531 3.992187-4.109374 8.171875-5.46875 12.417968-1.246093 3.890626-2.28125 8.125-3.082031 12.578126-.78125 4.347656-1.3125 8.492187-1.578125 12.324218-.25 3.636719-.378906 7.40625-.378906 11.207032 0 15.058593 6.433594 24.347656 11.835938 29.488281 7.640624 7.277343 17.535156 10.964843 29.402343 10.964843h85.855469c11.867188 0 21.761719-3.691406 29.40625-10.964843 5.398438-5.136719 11.835938-14.421875 11.835938-29.492188 0-3.8125-.132813-7.585937-.382813-11.207031-.269531-3.816406-.796875-7.960938-1.578125-12.316406zm-30.574219 31.265625c-1.210937 1.152343-3.433593 2.6875-8.707031 2.6875h-85.855469c-5.273437 0-7.496093-1.53125-8.703125-2.683594-1.167968-1.113281-2.507812-3-2.507812-7.742187 0-3.113282.101562-6.183594.304687-9.128907.191407-2.753906.585938-5.8125 1.175781-9.09375.570313-3.160156 1.28125-6.101562 2.125-8.734375.730469-2.273437 1.730469-4.542968 2.980469-6.738281 1.035157-1.824219 2.1875-3.351563 3.410157-4.523437.875-.835938 2.070312-1.558594 3.550781-2.144532.695312-.277344 1.453125-.488281 2.265625-.640625 1.960937 1.273438 4.136718 2.675781 6.53125 4.203125 3.839844 2.449219 8.441406 4.523438 14.0625 6.335938 11.660156 3.773437 23.804687 3.773437 35.457031.003906 5.628906-1.816406 10.230469-3.890625 14.078125-6.347656 2.386719-1.523438 4.5625-2.925782 6.519531-4.195313.8125.148438 1.570313.363281 2.265625.636719 1.480469.589844 2.675782 1.3125 3.546875 2.144531 1.226563 1.175781 2.378907 2.699219 3.417969 4.527344 1.25 2.199219 2.25 4.464844 2.980469 6.738281.84375 2.636719 1.558593 5.574219 2.125 8.726563.589843 3.292969.984375 6.355469 1.175781 9.101562v.007813c.203125 2.929687.308594 6 .308594 9.121094 0 4.742187-1.339844 6.628906-2.507813 7.738281zm0 0"/><path d="m373.976562 349.164062c0 14.492188 5.195313 27.035157 15.449219 37.285157 10.253907 10.25 22.796875 15.449219 37.285157 15.449219 14.488281 0 27.035156-5.199219 37.285156-15.449219s15.445312-22.796875 15.445312-37.285157c0-14.488281-5.195312-27.035156-15.449218-37.285156-10.25-10.25-22.792969-15.445312-37.285157-15.445312-14.488281 0-27.035156 5.195312-37.28125 15.445312-10.253906 10.25-15.449219 22.796875-15.449219 37.285156zm36.679688-16.054687c4.539062-4.539063 9.640625-6.652344 16.054688-6.652344 6.410156 0 11.515624 2.113281 16.054687 6.652344 4.539063 4.542969 6.652344 9.644531 6.652344 16.054687 0 6.414063-2.113281 11.515626-6.652344 16.054688s-9.640625 6.652344-16.054687 6.652344c-6.414063 0-11.515626-2.113282-16.054688-6.652344-4.542969-4.539062-6.65625-9.640625-6.65625-16.054688 0-6.414062 2.117188-11.515624 6.65625-16.054687zm0 0"/><path d="m511.617188 460.0625c-.265626-3.816406-.792969-7.960938-1.574219-12.316406-.800781-4.453125-1.835938-8.6875-3.085938-12.582032-1.355469-4.246093-3.195312-8.421874-5.46875-12.417968-2.476562-4.363282-5.425781-8.191406-8.765625-11.390625-3.6875-3.527344-8.144531-6.339844-13.25-8.363281-5.0625-2.003907-10.605468-3.019532-16.476562-3.019532-4.929688 0-8.789063 2.246094-12.328125 4.550782-2.125 1.386718-4.523438 2.933593-7.1875 4.636718-1.121094.714844-3.273438 1.828125-7.152344 3.082032-5.765625 1.867187-11.222656 1.867187-16.996094 0-3.878906-1.253907-6.027343-2.367188-7.140625-3.078126-2.671875-1.707031-5.070312-3.253906-7.207031-4.644531-3.53125-2.300781-7.390625-4.546875-12.316406-4.546875-5.878907 0-11.421875 1.019532-16.480469 3.023438-5.101562 2.019531-9.558594 4.832031-13.257812 8.367187-3.335938 3.195313-6.28125 7.023438-8.757813 11.382813-2.269531 3.992187-4.109375 8.171875-5.46875 12.417968-1.242187 3.890626-2.28125 8.125-3.078125 12.578126-.78125 4.347656-1.3125 8.492187-1.578125 12.324218-.25 3.636719-.378906 7.40625-.378906 11.207032 0 15.058593 6.433593 24.347656 11.835937 29.488281 7.640625 7.277343 17.535156 10.964843 29.402344 10.964843h85.855469c11.867187 0 21.761719-3.691406 29.40625-10.964843 5.398437-5.136719 11.835937-14.421875 11.835937-29.492188-.003906-3.816406-.132812-7.585937-.386718-11.207031zm-32.152344 18.949219c-1.210938 1.152343-3.433594 2.6875-8.707032 2.6875h-85.851562c-5.273438 0-7.496094-1.53125-8.703125-2.683594-1.167969-1.113281-2.511719-3-2.511719-7.742187 0-3.109376.105469-6.183594.308594-9.128907.191406-2.753906.585938-5.8125 1.175781-9.09375.566407-3.160156 1.28125-6.101562 2.125-8.730469.726563-2.277343 1.730469-4.542968 2.976563-6.742187 1.039062-1.824219 2.191406-3.351563 3.414062-4.523437.875-.835938 2.066406-1.558594 3.550782-2.144532.695312-.273437 1.449218-.488281 2.265624-.640625 1.960938 1.277344 4.136719 2.675781 6.527344 4.203125 3.839844 2.449219 8.445313 4.523438 14.0625 6.339844 11.664063 3.769531 23.804688 3.769531 35.460938 0 5.625-1.816406 10.226562-3.890625 14.074218-6.34375 2.386719-1.527344 4.5625-2.925781 6.519532-4.199219.816406.152344 1.570312.363281 2.265625.636719 1.480469.589844 2.675781 1.3125 3.546875 2.144531 1.230468 1.179688 2.378906 2.703125 3.421875 4.527344 1.246093 2.199219 2.25 4.464844 2.976562 6.738281.84375 2.636719 1.558594 5.574219 2.125 8.726563.589844 3.292969.984375 6.355469 1.175781 9.101562v.007813c.207032 2.929687.308594 6 .3125 9.121094-.003906 4.742187-1.34375 6.628906-2.511718 7.738281zm0 0"/><path d="m254.875 105.464844c14.492188 0 27.035156-5.195313 37.285156-15.445313s15.449219-22.796875 15.449219-37.285156-5.195313-27.035156-15.449219-37.289063c-10.25-10.246093-22.796875-15.445312-37.285156-15.445312-14.492188 0-27.035156 5.199219-37.285156 15.449219s-15.449219 22.796875-15.449219 37.285156c0 14.492187 5.199219 27.035156 15.453125 37.285156 10.25 10.25 22.792969 15.445313 37.28125 15.445313zm-16.050781-68.785156c4.535156-4.539063 9.636719-6.652344 16.050781-6.652344s11.515625 2.113281 16.054688 6.652344c4.542968 4.542968 6.65625 9.644531 6.65625 16.054687 0 6.414063-2.113282 11.515625-6.65625 16.054687-4.539063 4.539063-9.640626 6.652344-16.054688 6.652344-6.410156 0-11.511719-2.113281-16.054688-6.652344-4.539062-4.539062-6.652343-9.640624-6.652343-16.054687s2.113281-11.515625 6.65625-16.054687zm0 0"/><path d="m339.785156 163.625c-.265625-3.816406-.796875-7.957031-1.574218-12.308594-.800782-4.453125-1.839844-8.6875-3.085938-12.585937-1.359375-4.242188-3.199219-8.421875-5.46875-12.414063-2.476562-4.363281-5.429688-8.195312-8.765625-11.390625-3.6875-3.523437-8.144531-6.339843-13.253906-8.363281-5.0625-2.003906-10.605469-3.019531-16.476563-3.019531-4.933594 0-8.792968 2.246093-12.328125 4.550781-2.121093 1.386719-4.523437 2.929688-7.1875 4.632812-1.121093.71875-3.273437 1.832032-7.152343 3.085938-5.757813 1.863281-11.222657 1.867188-16.996094-.003906-3.875-1.25-6.027344-2.363282-7.140625-3.074219-2.671875-1.710937-5.074219-3.253906-7.203125-4.644531-3.53125-2.300782-7.390625-4.546875-12.320313-4.546875-5.875 0-11.417969 1.015625-16.480469 3.019531-5.101562 2.023438-9.558593 4.835938-13.253906 8.371094-3.335937 3.191406-6.285156 7.023437-8.757812 11.378906-2.269532 3.992188-4.109375 8.171875-5.472656 12.421875-1.242188 3.894531-2.28125 8.125-3.078126 12.578125-.78125 4.347656-1.3125 8.492188-1.578124 12.324219-.25 3.636719-.378907 7.40625-.378907 11.207031 0 15.058594 6.433594 24.34375 11.835938 29.488281 7.640625 7.273438 17.535156 10.960938 29.402343 10.960938h85.855469c11.867188 0 21.761719-3.6875 29.40625-10.960938 5.398438-5.136719 11.832031-14.425781 11.832031-29.492187 0-3.820313-.125-7.59375-.378906-11.214844zm-32.152344 18.957031c-1.210937 1.152344-3.433593 2.6875-8.707031 2.6875h-85.851562c-5.277344 0-7.496094-1.535156-8.703125-2.683593-1.171875-1.113282-2.511719-3-2.511719-7.742188 0-3.113281.101563-6.183594.304687-9.132812.191407-2.75.589844-5.808594 1.175782-9.09375.570312-3.15625 1.285156-6.097657 2.125-8.730469.730468-2.277344 1.730468-4.542969 2.980468-6.738281 1.039063-1.828126 2.1875-3.351563 3.414063-4.523438.875-.839844 2.070313-1.558594 3.546875-2.144531.695312-.277344 1.453125-.488281 2.269531-.640625 1.960938 1.273437 4.136719 2.671875 6.527344 4.203125 3.84375 2.449219 8.449219 4.523437 14.0625 6.335937 11.65625 3.769532 23.816406 3.769532 35.457031.003906 5.625-1.816406 10.226563-3.890624 14.078125-6.347656 2.386719-1.523437 4.558594-2.921875 6.519531-4.195312.816407.148437 1.570313.363281 2.265626.636718 1.480468.585938 2.675781 1.308594 3.550781 2.148438 1.226562 1.171875 2.375 2.695312 3.417969 4.527344 1.246093 2.195312 2.25 4.460937 2.976562 6.730468.84375 2.640626 1.558594 5.578126 2.125 8.730469.589844 3.292969.984375 6.355469 1.175781 9.101563v.007812c.203125 2.929688.308594 6 .308594 9.121094 0 4.742188-1.339844 6.625-2.507813 7.738281zm0 0"/><path d="m301.824219 446.761719h-93.898438c-8.289062 0-15.011719 6.71875-15.011719 15.011719 0 8.289062 6.722657 15.011718 15.011719 15.011718h93.898438c8.292969 0 15.015625-6.722656 15.015625-15.011718 0-8.292969-6.722656-15.011719-15.015625-15.011719zm0 0"/><path d="m164.015625 225.980469c-6.738281-4.832031-16.117187-3.28125-20.945313 3.457031l-25.738281 35.914062c-4.828125 6.742188-3.277343 16.117188 3.460938 20.949219 2.648437 1.898438 5.703125 2.8125 8.730469 2.8125 4.675781 0 9.285156-2.179687 12.21875-6.269531l25.734374-35.917969c4.828126-6.738281 3.28125-16.117187-3.460937-20.945312zm0 0"/><path d="m380.230469 289.109375c3.023437 0 6.082031-.910156 8.730469-2.808594 6.742187-4.832031 8.289062-14.207031 3.460937-20.949219l-25.738281-35.914062c-4.832032-6.742188-14.210938-8.289062-20.949219-3.460938-6.738281 4.832032-8.285156 14.207032-3.457031 20.949219l25.734375 35.914063c2.933593 4.09375 7.539062 6.269531 12.21875 6.269531zm0 0"/></svg>