<svg viewBox="0 0 511 511.99876" xmlns="http://www.w3.org/2000/svg"><path d="m512.160156 246.1875.007813-.34375-.007813-.339844c-1.527344-66.945312-28.996094-129.324218-77.339844-175.65625-48.273437-46.261718-111.640624-71.046875-178.488281-69.8046872-66.847656-1.2070308-130.214843 23.5429692-178.488281 69.8046872-48.34375 46.332032-75.8125 108.710938-77.339844 175.652344l-.003906.210938v.210937c.351562 68.226563 29.558594 133.082031 80.273438 178.542969v61.855468c0 12.003907 8.382812 22.460938 19.933593 24.863282 1.707031.355468 3.429688.53125 5.140625.53125 4.648438 0 9.21875-1.296875 13.234375-3.808594l49.710938-31.054688c28.035156 9.816407 57.296875 14.792969 87.035156 14.792969.125 0 .246094-.003906.371094-.003906 30.414062.585937 60.117187-4.21875 88.460937-14.246094 17.339844 21.113281 43.636719 34.605469 73.027344 34.605469 52.09375 0 94.476562-42.382812 94.476562-94.476562 0-25.257813-9.964843-48.234376-26.167968-65.203126 16.308594-32.816406 25.324218-69.261718 26.164062-106.132812zm-255.53125 215.445312-.328125-.003906c-27.65625.085938-54.886719-4.746094-80.867187-14.277344-6.429688-2.359374-13.429688-1.640624-19.214844 1.972657l-45.429688 28.378906v-56.890625c0-6.347656-2.761718-12.386719-7.574218-16.570312-45.839844-39.851563-72.328125-97.527344-72.703125-158.261719 1.398437-58.871094 25.578125-113.714844 68.097656-154.460938 42.566406-40.796875 98.511719-62.601562 157.425781-61.460937l.296875.003906.296875-.003906c58.945313-1.148438 114.859375 20.664062 157.425782 61.460937 42.488281 40.714844 66.660156 95.511719 68.09375 154.328125-.742188 30.46875-7.835938 60.578125-20.597657 88.019532-13.117187-6.902344-28.039062-10.820313-43.863281-10.820313-52.09375 0-94.476562 42.382813-94.476562 94.476563 0 11.753906 2.160156 23.007812 6.101562 33.394531-23.371094 7.59375-47.757812 11.199219-72.683594 10.714843zm161.058594 20.355469c-35.546875 0-64.464844-28.917969-64.464844-64.464843 0-35.546876 28.917969-64.464844 64.464844-64.464844s64.464844 28.917968 64.464844 64.464844c0 35.546874-28.917969 64.464843-64.464844 64.464843zm0 0"/><path d="m146.390625 204.1875h219.882813c8.289062 0 15.007812-6.71875 15.007812-15.007812 0-8.285157-6.71875-15.003907-15.007812-15.003907h-219.882813c-8.289063 0-15.007813 6.71875-15.007813 15.003907 0 8.289062 6.71875 15.007812 15.007813 15.007812zm0 0"/><path d="m381.28125 255.558594c0-8.285156-6.71875-15.003906-15.007812-15.003906h-219.882813c-8.289063 0-15.007813 6.71875-15.007813 15.003906 0 8.289062 6.71875 15.007812 15.007813 15.007812h219.882813c8.289062 0 15.007812-6.71875 15.007812-15.007812zm0 0"/><path d="m224.488281 306.933594h-78.097656c-8.289063 0-15.007813 6.71875-15.007813 15.003906 0 8.289062 6.71875 15.007812 15.007813 15.007812h78.097656c8.289063 0 15.007813-6.71875 15.007813-15.007812 0-8.285156-6.71875-15.003906-15.007813-15.003906zm0 0"/><path d="m417.6875 375.875c-8.289062 0-15.007812 6.71875-15.007812 15.007812v52.089844c0 8.285156 6.71875 15.003906 15.007812 15.003906s15.007812-6.71875 15.007812-15.003906v-52.089844c0-8.289062-6.71875-15.007812-15.007812-15.007812zm0 0"/></svg>