<svg viewBox="-40 0 511 511.99799" xmlns="http://www.w3.org/2000/svg"><path d="m426.566406 418.089844c-.003906-.003906-.003906-.003906-.007812-.007813-61.699219-53.59375-88.164063-122.957031-88.484375-231.914062-.097657-33.042969-13.707031-65.394531-37.335938-88.757813-10.113281-10-21.597656-18.003906-33.980469-23.839844v-21.324218c0-28.808594-23.4375-52.246094-52.25-52.246094-28.808593 0-52.246093 23.4375-52.246093 52.246094v22.609375c-40.253907 19.984375-68.050781 61.566406-68.050781 109.285156 0 56.160156-6.941407 101.644531-21.21875 139.050781-14.039063 36.785156-36.03125 67.820313-67.230469 94.875-4.796875 4.15625-6.527344 10.949219-4.308594 16.894532 2.222656 5.945312 7.976563 9.9375 14.320313 9.9375l122.167968.003906c2.878906 37.476562 34.269532 67.09375 72.46875 67.09375 38.199219 0 69.589844-29.613282 72.46875-67.085938l133.667969.003906c6.34375 0 12.097656-3.992187 14.316406-9.9375 2.21875-5.941406.492188-12.726562-4.296875-16.886718zm-234.234375-365.84375c0-12.226563 9.949219-22.175782 22.175781-22.175782 12.230469 0 22.179688 9.949219 22.179688 22.175782v11.785156c-7.070312-1.242188-14.28125-1.855469-21.578125-1.800781-7.785156.066406-15.398437.878906-22.777344 2.355469zm18.078125 429.683594c-21.605468 0-39.496094-16.15625-42.253906-37.023438l84.511719.003906c-2.757813 20.863282-20.652344 37.019532-42.257813 37.019532zm-158.527344-67.097657c21.460938-24.007812 37.675782-50.722656 49.199219-80.914062 15.609375-40.894531 23.195313-89.882813 23.195313-149.773438 0-50.222656 40.863281-91.421875 91.085937-91.847656 23.953125-.242187 46.75 9.210937 64.234375 26.496094 17.976563 17.777343 28.332032 42.367187 28.40625 67.464843.175782 59.230469 7.859375 107.753907 23.492188 148.34375 11.511718 29.898438 27.65625 56.394532 48.960937 80.246094zm0 0"/></svg>