<svg viewBox="0 0 512 512.00195" xmlns="http://www.w3.org/2000/svg"><path d="m511.820312 93.34375c0-25.027344-20.363281-45.390625-45.390624-45.390625h-3.816407v-29.816406c0-10-8.136719-18.136719-18.132812-18.136719h-369.445313c-10 0-18.136718 8.136719-18.136718 18.136719v61.414062h-41.902344c-8.28125 0-14.996094 6.714844-14.996094 14.996094s6.714844 14.996094 14.996094 14.996094h41.902344v34.992187h-41.902344c-8.28125 0-14.996094 6.714844-14.996094 14.996094 0 8.285156 6.714844 14.996094 14.996094 14.996094h41.902344v35.800781h-41.902344c-8.28125 0-14.996094 6.710937-14.996094 14.996094 0 8.28125 6.714844 14.996093 14.996094 14.996093h41.902344v34.992188h-41.902344c-8.28125 0-14.996094 6.714844-14.996094 14.996094s6.714844 14.996094 14.996094 14.996094h41.902344v33.953124h-41.902344c-8.28125 0-14.996094 6.714844-14.996094 14.996094s6.714844 14.996094 14.996094 14.996094h41.902344v34.992188h-41.902344c-8.28125 0-14.996094 6.714843-14.996094 14.996093s6.714844 14.996094 14.996094 14.996094h41.902344v59.632813c0 10 8.136718 18.136718 18.136718 18.136718h369.441406c10 0 18.136719-8.136718 18.136719-18.136718v-94.253907h3.816407c25.027343 0 45.386718-20.359375 45.386718-45.386719v-46.4375c0-11.679687-4.433594-22.339843-11.707031-30.394531 7.273437-8.050781 11.707031-18.710937 11.707031-30.390625v-46.4375c0-11.679687-4.433594-22.339844-11.707031-30.390625 7.273437-8.054687 11.707031-18.714843 11.707031-30.394531v-46.4375zm-79.199218 388.664062h-345.730469v-47.773437h21.90625c8.28125 0 14.996094-6.714844 14.996094-14.996094s-6.714844-14.996093-14.996094-14.996093h-21.90625v-34.992188h21.90625c8.28125 0 14.996094-6.714844 14.996094-14.996094 0-8.285156-6.714844-15-14.996094-15h-21.90625v-33.949218h21.90625c8.28125 0 14.996094-6.714844 14.996094-14.996094s-6.714844-14.996094-14.996094-14.996094h-21.90625v-34.992188h21.90625c8.28125 0 14.996094-6.714843 14.996094-15 0-8.28125-6.714844-14.996093-14.996094-14.996093h-21.90625v-35.796875h21.90625c8.28125 0 14.996094-6.714844 14.996094-14.996094s-6.714844-14.996094-14.996094-14.996094h-21.90625v-34.992187h21.90625c8.28125 0 14.996094-6.714844 14.996094-14.996094 0-8.285156-6.714844-15-14.996094-15h-21.90625v-49.554687h345.730469zm49.203125-127.785156c0 8.488282-6.90625 15.394532-15.394531 15.394532h-3.816407v-77.226563h3.816407c8.488281 0 15.394531 6.90625 15.394531 15.394531zm0-107.222656c0 8.492188-6.90625 15.398438-15.394531 15.398438h-3.816407v-77.230469h3.816407c8.488281 0 15.394531 6.90625 15.394531 15.398437zm0-107.21875c0 8.488281-6.90625 15.394531-15.394531 15.394531h-3.816407v-77.226562h3.816407c8.488281 0 15.394531 6.90625 15.394531 15.394531zm0 0"/><path d="m259.59375 252.414062c17.480469 0 32.613281-6.269531 44.976562-18.632812 12.363282-12.367188 18.636719-27.496094 18.636719-44.976562 0-17.476563-6.269531-32.609376-18.636719-44.976563-12.367187-12.363281-27.5-18.632813-44.976562-18.632813s-32.609375 6.269532-44.976562 18.632813c-12.363282 12.367187-18.632813 27.5-18.632813 44.976563 0 17.480468 6.269531 32.613281 18.636719 44.976562 12.367187 12.363281 27.5 18.632812 44.972656 18.632812zm-23.765625-87.375c6.71875-6.722656 14.269531-9.851562 23.765625-9.851562 9.492188 0 17.046875 3.132812 23.765625 9.847656 6.722656 6.722656 9.851563 14.273438 9.851563 23.769532 0 9.492187-3.128907 17.046874-9.847657 23.765624-6.722656 6.71875-14.273437 9.847657-23.769531 9.847657-9.492188 0-17.046875-3.128907-23.769531-9.851563-6.71875-6.71875-9.847657-14.265625-9.847657-23.765625 0-9.492187 3.132813-17.042969 9.851563-23.761719zm0 0"/><path d="m362.710938 306.613281c-.996094-5.546875-2.289063-10.8125-3.835938-15.65625-1.660156-5.183593-3.910156-10.292969-6.6875-15.179687-2.984375-5.253906-6.523438-9.855469-10.523438-13.683594-4.34375-4.15625-9.613281-7.480469-15.667968-9.878906-6.011719-2.378906-12.617188-3.582032-19.636719-3.582032-4.679687 0-8.496094 1.890626-13.511719 5.15625-2.746094 1.792969-5.851562 3.792969-9.300781 5.996094-1.660156 1.058594-4.78125 2.6875-10.222656 4.445313-8.1875 2.648437-16.382813 2.648437-24.578125 0-5.433594-1.757813-8.554688-3.390625-10.207032-4.441407-3.460937-2.210937-6.5625-4.210937-9.320312-6.003906-5.007812-3.265625-8.824219-5.152344-13.5-5.152344-7.023438 0-13.628906 1.203126-19.636719 3.582032-6.046875 2.394531-11.320312 5.71875-15.675781 9.886718-3.992188 3.824219-7.53125 8.425782-10.515625 13.675782-2.773437 4.886718-5.023437 9.992187-6.6875 15.183594-1.546875 4.835937-2.835937 10.105468-3.832031 15.652343-.976563 5.445313-1.640625 10.632813-1.972656 15.414063-.316407 4.582031-.476563 9.339844-.476563 14.144531 0 14.34375 4.675781 26.070313 13.898437 34.851563 9.011719 8.578124 20.757813 12.929687 34.898438 12.929687h110.644531c14.140625 0 25.882813-4.351563 34.898438-12.929687 9.226562-8.777344 13.902343-20.503907 13.902343-34.855469-.003906-4.824219-.164062-9.582031-.484374-14.152344-.328126-4.765625-.992188-9.945313-1.96875-15.402344zm-32.121094 42.679688c-3.300782 3.140625-7.949219 4.664062-14.222656 4.664062h-110.648438c-6.269531 0-10.925781-1.523437-14.21875-4.660156-1.96875-1.875-4.585938-5.273437-4.585938-13.128906 0-4.109375.136719-8.171875.40625-12.066407.257813-3.703124.785157-7.804687 1.574219-12.1875.765625-4.257812 1.730469-8.230468 2.875-11.8125 1.03125-3.21875 2.445313-6.417968 4.199219-9.507812 1.546875-2.722656 3.289062-5.019531 5.175781-6.824219 1.558594-1.488281 3.515625-2.6875 5.980469-3.667969 1.664062-.65625 3.511719-1.097656 5.523438-1.316406.0625.042969.128906.085938.199218.128906 2.816406 1.839844 6 3.890626 9.554688 6.160157 4.632812 2.953125 10.234375 5.472656 17.121094 7.695312 14.15625 4.578125 28.878906 4.578125 43.023437.003907 6.894531-2.226563 12.496094-4.746094 17.136719-7.707032 3.546875-2.265625 6.730468-4.316406 9.542968-6.152344.066407-.042968.136719-.085937.199219-.128906 2.011719.21875 3.863281.660156 5.527344 1.316406 2.464844.980469 4.421875 2.179688 5.976563 3.664063 1.890624 1.808594 3.632812 4.105469 5.179687 6.832031 1.757813 3.089844 3.171875 6.289063 4.199219 9.5 1.144531 3.585938 2.113281 7.5625 2.878906 11.8125.785156 4.394532 1.316406 8.496094 1.570312 12.191406l.003907.011719c.269531 3.875.40625 7.933594.410156 12.054688 0 7.855469-2.617187 11.253906-4.582031 13.125zm0 0"/></svg>