<?xml version="1.0" standalone="no"?>
<!DOCTYPE svg PUBLIC "-//W3C//DTD SVG 20010904//EN"
 "http://www.w3.org/TR/2001/REC-SVG-20010904/DTD/svg10.dtd">
<svg version="1.0" xmlns="http://www.w3.org/2000/svg"
 width="192.000000pt" height="192.000000pt" viewBox="0 0 192.000000 192.000000"
 preserveAspectRatio="xMidYMid meet">
<metadata>
Created by potrace 1.15, written by Peter Selinger 2001-2017
</metadata>
<g transform="translate(0.000000,192.000000) scale(0.100000,-0.100000)"
fill="#000000" stroke="none">
<path d="M232 1739 c-26 -13 -55 -39 -70 -62 l-27 -41 -3 -680 c-2 -497 0
-692 9 -724 14 -52 72 -107 128 -122 27 -7 252 -10 708 -8 655 3 669 3 708 24
22 11 54 41 70 65 l30 44 0 685 c0 377 -3 697 -7 712 -12 40 -57 89 -103 109
-38 17 -82 19 -720 19 -675 0 -680 0 -723 -21z m1440 -39 c14 -10 30 -32 37
-47 8 -21 11 -209 9 -700 l-3 -673 -33 -32 -32 -33 -690 0 -690 0 -32 33 -33
32 -3 673 c-2 491 1 679 9 700 7 15 23 37 37 47 24 19 44 20 712 20 668 0 688
-1 712 -20z"/>
<path d="M607 1652 l-337 -2 2 -697 3 -697 30 -8 c17 -5 305 -12 642 -15 480
-5 622 -3 657 7 l46 13 0 704 0 704 -352 -3 c-194 -2 -505 -4 -691 -6z m62
-80 c5 -20 22 -86 36 -147 14 -60 46 -191 70 -290 45 -186 89 -367 146 -612
19 -79 37 -143 40 -143 4 0 9 12 12 27 5 31 20 95 65 283 73 305 186 781 201
845 l16 70 41 3 42 3 42 -178 c23 -98 62 -261 86 -363 51 -212 102 -427 139
-581 14 -59 25 -123 25 -143 0 -35 -1 -36 -40 -36 -37 0 -40 2 -49 38 -17 64
-49 205 -56 244 -4 21 -13 42 -20 48 -8 7 -71 10 -176 8 l-163 -3 -13 -45 c-7
-25 -26 -99 -41 -165 l-28 -120 -84 0 -85 0 -27 115 c-15 63 -33 138 -40 165
l-13 50 -172 3 -171 2 -10 -32 c-6 -18 -25 -95 -42 -170 l-32 -138 -34 0 -34
0 0 56 c0 31 5 73 10 93 6 20 23 92 39 161 17 69 41 173 55 233 14 59 37 155
52 215 108 454 126 526 135 532 4 3 21 6 38 7 27 2 31 -2 40 -35z"/>
<path d="M617 1373 c-2 -5 -14 -53 -27 -108 -32 -142 -79 -343 -91 -391 -21
-80 -21 -79 126 -75 72 1 132 5 133 6 2 2 0 19 -6 37 -5 18 -17 67 -27 108 -9
41 -23 102 -30 135 -8 33 -26 113 -40 178 -15 64 -28 117 -30 117 -2 0 -6 -3
-8 -7z"/>
<path d="M1286 1349 c-14 -61 -48 -210 -61 -264 -33 -139 -65 -277 -65 -281 0
-7 270 -4 270 4 1 20 -124 548 -131 556 -4 5 -10 -2 -13 -15z"/>
</g>
</svg>
